0
SECTION
2
HEADER
9
$ACADVER
1
AC1009
9
$DWGCODEPAGE
3
ANSI_1251
9
$INSUNITS
70
4
0
ENDSEC
0
SECTION
2
TABLES
0
TABLE
2
LAYER
70
19
0
LAYER
2
WALLS
70
0
62
7
6
CONTINUOUS
0
LAYER
2
WALLS_INT
70
0
62
8
6
CONTINUOUS
0
LAYER
2
OPENINGS
70
0
62
7
6
CONTINUOUS
0
LAYER
2
WINDOWS
70
0
62
5
6
CONTINUOUS
0
LAYER
2
DOORS
70
0
62
3
6
CONTINUOUS
0
LAYER
2
AXES
70
0
62
1
6
CONTINUOUS
0
LAYER
2
DIM
70
0
62
4
6
CONTINUOUS
0
LAYER
2
TEXT
70
0
62
7
6
CONTINUOUS
0
LAYER
2
STAIR
70
0
62
6
6
CONTINUOUS
0
LAYER
2
VENT
70
0
62
2
6
CONTINUOUS
0
LAYER
2
OUTDOOR
70
0
62
8
6
CONTINUOUS
0
LAYER
2
FURN
70
0
62
9
6
CONTINUOUS
0
LAYER
2
SITE
70
0
62
3
6
CONTINUOUS
0
LAYER
2
WATER
70
0
62
5
6
CONTINUOUS
0
LAYER
2
SEWER
70
0
62
30
6
CONTINUOUS
0
LAYER
2
GAS
70
0
62
2
6
CONTINUOUS
0
LAYER
2
POWER
70
0
62
1
6
CONTINUOUS
0
LAYER
2
ROOF
70
0
62
8
6
CONTINUOUS
0
LAYER
2
REBAR
70
0
62
1
6
CONTINUOUS
0
ENDTAB
0
ENDSEC
0
SECTION
2
ENTITIES
0
LINE
8
WALLS
10
-200.0
20
200.0
30
0
11
1000.0
21
200.0
31
0
0
LINE
8
WALLS
10
2500.0
20
200.0
30
0
11
3700.0
21
200.0
31
0
0
LINE
8
WALLS
10
5200.0
20
200.0
30
0
11
7000.0
21
200.0
31
0
0
LINE
8
WALLS
10
8200.0
20
200.0
30
0
11
8800.0
21
200.0
31
0
0
LINE
8
WALLS
10
10000.0
20
200.0
30
0
11
10800.0
21
200.0
31
0
0
LINE
8
WALLS
10
12000.0
20
200.0
30
0
11
12800.0
21
200.0
31
0
0
LINE
8
WALLS
10
200.0
20
-200.0
30
0
11
1000.0
21
-200.0
31
0
0
LINE
8
WALLS
10
2500.0
20
-200.0
30
0
11
3700.0
21
-200.0
31
0
0
LINE
8
WALLS
10
5200.0
20
-200.0
30
0
11
7000.0
21
-200.0
31
0
0
LINE
8
WALLS
10
8200.0
20
-200.0
30
0
11
8800.0
21
-200.0
31
0
0
LINE
8
WALLS
10
10000.0
20
-200.0
30
0
11
10800.0
21
-200.0
31
0
0
LINE
8
WALLS
10
12000.0
20
-200.0
30
0
11
12400.0
21
-200.0
31
0
0
LINE
8
OPENINGS
10
1000.0
20
200.0
30
0
11
1000.0
21
-200.0
31
0
0
LINE
8
OPENINGS
10
2500.0
20
200.0
30
0
11
2500.0
21
-200.0
31
0
0
LINE
8
WINDOWS
10
1000.0
20
100.0
30
0
11
2500.0
21
100.0
31
0
0
LINE
8
WINDOWS
10
1000.0
20
40.0
30
0
11
2500.0
21
40.0
31
0
0
TEXT
8
TEXT
10
1750.0
20
650.0
30
0
40
180.0
1
ОК-6
50
0
72
1
73
2
11
1750.0
21
650.0
31
0
0
LINE
8
OPENINGS
10
3700.0
20
200.0
30
0
11
3700.0
21
-200.0
31
0
0
LINE
8
OPENINGS
10
5200.0
20
200.0
30
0
11
5200.0
21
-200.0
31
0
0
LINE
8
WINDOWS
10
3700.0
20
100.0
30
0
11
5200.0
21
100.0
31
0
0
LINE
8
WINDOWS
10
3700.0
20
40.0
30
0
11
5200.0
21
40.0
31
0
0
TEXT
8
TEXT
10
4450.0
20
650.0
30
0
40
180.0
1
ОК-6
50
0
72
1
73
2
11
4450.0
21
650.0
31
0
0
LINE
8
OPENINGS
10
7000.0
20
200.0
30
0
11
7000.0
21
-200.0
31
0
0
LINE
8
OPENINGS
10
8200.0
20
200.0
30
0
11
8200.0
21
-200.0
31
0
0
LINE
8
WINDOWS
10
7000.0
20
100.0
30
0
11
8200.0
21
100.0
31
0
0
LINE
8
WINDOWS
10
7000.0
20
40.0
30
0
11
8200.0
21
40.0
31
0
0
TEXT
8
TEXT
10
7600.0
20
650.0
30
0
40
180.0
1
ОК-3
50
0
72
1
73
2
11
7600.0
21
650.0
31
0
0
LINE
8
OPENINGS
10
8800.0
20
200.0
30
0
11
8800.0
21
-200.0
31
0
0
LINE
8
OPENINGS
10
10000.0
20
200.0
30
0
11
10000.0
21
-200.0
31
0
0
LINE
8
WINDOWS
10
8800.0
20
100.0
30
0
11
10000.0
21
100.0
31
0
0
LINE
8
WINDOWS
10
8800.0
20
40.0
30
0
11
10000.0
21
40.0
31
0
0
TEXT
8
TEXT
10
9400.0
20
650.0
30
0
40
180.0
1
ОК-3
50
0
72
1
73
2
11
9400.0
21
650.0
31
0
0
LINE
8
OPENINGS
10
10800.0
20
200.0
30
0
11
10800.0
21
-200.0
31
0
0
LINE
8
OPENINGS
10
12000.0
20
200.0
30
0
11
12000.0
21
-200.0
31
0
0
LINE
8
WINDOWS
10
10800.0
20
100.0
30
0
11
12000.0
21
100.0
31
0
0
LINE
8
WINDOWS
10
10800.0
20
40.0
30
0
11
12000.0
21
40.0
31
0
0
TEXT
8
TEXT
10
11400.0
20
650.0
30
0
40
180.0
1
ОК-3
50
0
72
1
73
2
11
11400.0
21
650.0
31
0
0
LINE
8
WALLS
10
-200.0
20
-15800.0
30
0
11
2000.0
21
-15800.0
31
0
0
LINE
8
WALLS
10
4400.0
20
-15800.0
30
0
11
7200.0
21
-15800.0
31
0
0
LINE
8
WALLS
10
8700.0
20
-15800.0
30
0
11
10200.0
21
-15800.0
31
0
0
LINE
8
WALLS
10
11700.0
20
-15800.0
30
0
11
12800.0
21
-15800.0
31
0
0
LINE
8
WALLS
10
200.0
20
-15400.0
30
0
11
2000.0
21
-15400.0
31
0
0
LINE
8
WALLS
10
4400.0
20
-15400.0
30
0
11
7200.0
21
-15400.0
31
0
0
LINE
8
WALLS
10
8700.0
20
-15400.0
30
0
11
10200.0
21
-15400.0
31
0
0
LINE
8
WALLS
10
11700.0
20
-15400.0
30
0
11
12400.0
21
-15400.0
31
0
0
LINE
8
OPENINGS
10
10200.0
20
-15800.0
30
0
11
10200.0
21
-15400.0
31
0
0
LINE
8
OPENINGS
10
11700.0
20
-15800.0
30
0
11
11700.0
21
-15400.0
31
0
0
LINE
8
WINDOWS
10
10200.0
20
-15700.0
30
0
11
11700.0
21
-15700.0
31
0
0
LINE
8
WINDOWS
10
10200.0
20
-15640.0
30
0
11
11700.0
21
-15640.0
31
0
0
TEXT
8
TEXT
10
10950.0
20
-16250.0
30
0
40
180.0
1
ОК-6
50
0
72
1
73
2
11
10950.0
21
-16250.0
31
0
0
LINE
8
OPENINGS
10
7200.0
20
-15800.0
30
0
11
7200.0
21
-15400.0
31
0
0
LINE
8
OPENINGS
10
8700.0
20
-15800.0
30
0
11
8700.0
21
-15400.0
31
0
0
LINE
8
WINDOWS
10
7200.0
20
-15700.0
30
0
11
8700.0
21
-15700.0
31
0
0
LINE
8
WINDOWS
10
7200.0
20
-15640.0
30
0
11
8700.0
21
-15640.0
31
0
0
TEXT
8
TEXT
10
7950.0
20
-16250.0
30
0
40
180.0
1
ОК-6
50
0
72
1
73
2
11
7950.0
21
-16250.0
31
0
0
LINE
8
OPENINGS
10
2000.0
20
-15800.0
30
0
11
2000.0
21
-15400.0
31
0
0
LINE
8
OPENINGS
10
4400.0
20
-15800.0
30
0
11
4400.0
21
-15400.0
31
0
0
LINE
8
WINDOWS
10
2000.0
20
-15700.0
30
0
11
4400.0
21
-15700.0
31
0
0
LINE
8
WINDOWS
10
2000.0
20
-15640.0
30
0
11
4400.0
21
-15640.0
31
0
0
TEXT
8
TEXT
10
3200.0
20
-16250.0
30
0
40
180.0
1
ОК-9
50
0
72
1
73
2
11
3200.0
21
-16250.0
31
0
0
LINE
8
WALLS
10
-200.0
20
200.0
30
0
11
-200.0
21
-1500.0
31
0
0
LINE
8
WALLS
10
-200.0
20
-3000.0
30
0
11
-200.0
21
-5500.0
31
0
0
LINE
8
WALLS
10
-200.0
20
-6400.0
30
0
11
-200.0
21
-8300.0
31
0
0
LINE
8
WALLS
10
-200.0
20
-9200.0
30
0
11
-200.0
21
-10100.0
31
0
0
LINE
8
WALLS
10
-200.0
20
-11000.0
30
0
11
-200.0
21
-12800.0
31
0
0
LINE
8
WALLS
10
-200.0
20
-14300.0
30
0
11
-200.0
21
-15800.0
31
0
0
LINE
8
WALLS
10
200.0
20
-200.0
30
0
11
200.0
21
-1500.0
31
0
0
LINE
8
WALLS
10
200.0
20
-3000.0
30
0
11
200.0
21
-5500.0
31
0
0
LINE
8
WALLS
10
200.0
20
-6400.0
30
0
11
200.0
21
-8300.0
31
0
0
LINE
8
WALLS
10
200.0
20
-9200.0
30
0
11
200.0
21
-10100.0
31
0
0
LINE
8
WALLS
10
200.0
20
-11000.0
30
0
11
200.0
21
-12800.0
31
0
0
LINE
8
WALLS
10
200.0
20
-14300.0
30
0
11
200.0
21
-15400.0
31
0
0
LINE
8
OPENINGS
10
-200.0
20
-12800.0
30
0
11
200.0
21
-12800.0
31
0
0
LINE
8
OPENINGS
10
-200.0
20
-14300.0
30
0
11
200.0
21
-14300.0
31
0
0
LINE
8
WINDOWS
10
-100.0
20
-12800.0
30
0
11
-100.0
21
-14300.0
31
0
0
LINE
8
WINDOWS
10
-40.0
20
-12800.0
30
0
11
-40.0
21
-14300.0
31
0
0
TEXT
8
TEXT
10
-650.0
20
-13550.0
30
0
40
180.0
1
ОК-6
50
90
72
1
73
2
11
-650.0
21
-13550.0
31
0
0
LINE
8
OPENINGS
10
-200.0
20
-10100.0
30
0
11
200.0
21
-10100.0
31
0
0
LINE
8
OPENINGS
10
-200.0
20
-11000.0
30
0
11
200.0
21
-11000.0
31
0
0
LINE
8
WINDOWS
10
-100.0
20
-10100.0
30
0
11
-100.0
21
-11000.0
31
0
0
LINE
8
WINDOWS
10
-40.0
20
-10100.0
30
0
11
-40.0
21
-11000.0
31
0
0
TEXT
8
TEXT
10
-650.0
20
-10550.0
30
0
40
180.0
1
ОК-4
50
90
72
1
73
2
11
-650.0
21
-10550.0
31
0
0
LINE
8
OPENINGS
10
-200.0
20
-8300.0
30
0
11
200.0
21
-8300.0
31
0
0
LINE
8
OPENINGS
10
-200.0
20
-9200.0
30
0
11
200.0
21
-9200.0
31
0
0
LINE
8
WINDOWS
10
-100.0
20
-8300.0
30
0
11
-100.0
21
-9200.0
31
0
0
LINE
8
WINDOWS
10
-40.0
20
-8300.0
30
0
11
-40.0
21
-9200.0
31
0
0
TEXT
8
TEXT
10
-650.0
20
-8750.0
30
0
40
180.0
1
ОК-4а
50
90
72
1
73
2
11
-650.0
21
-8750.0
31
0
0
LINE
8
OPENINGS
10
-200.0
20
-5500.0
30
0
11
200.0
21
-5500.0
31
0
0
LINE
8
OPENINGS
10
-200.0
20
-6400.0
30
0
11
200.0
21
-6400.0
31
0
0
LINE
8
WINDOWS
10
-100.0
20
-5500.0
30
0
11
-100.0
21
-6400.0
31
0
0
LINE
8
WINDOWS
10
-40.0
20
-5500.0
30
0
11
-40.0
21
-6400.0
31
0
0
TEXT
8
TEXT
10
-650.0
20
-5950.0
30
0
40
180.0
1
ОК-4
50
90
72
1
73
2
11
-650.0
21
-5950.0
31
0
0
LINE
8
OPENINGS
10
-200.0
20
-1500.0
30
0
11
200.0
21
-1500.0
31
0
0
LINE
8
OPENINGS
10
-200.0
20
-3000.0
30
0
11
200.0
21
-3000.0
31
0
0
LINE
8
WINDOWS
10
-100.0
20
-1500.0
30
0
11
-100.0
21
-3000.0
31
0
0
LINE
8
WINDOWS
10
-40.0
20
-1500.0
30
0
11
-40.0
21
-3000.0
31
0
0
TEXT
8
TEXT
10
-650.0
20
-2250.0
30
0
40
180.0
1
ОК-6
50
90
72
1
73
2
11
-650.0
21
-2250.0
31
0
0
LINE
8
WALLS
10
12800.0
20
200.0
30
0
11
12800.0
21
-2400.0
31
0
0
LINE
8
WALLS
10
12800.0
20
-3600.0
30
0
11
12800.0
21
-4900.0
31
0
0
LINE
8
WALLS
10
12800.0
20
-5500.0
30
0
11
12800.0
21
-12400.0
31
0
0
LINE
8
WALLS
10
12800.0
20
-13900.0
30
0
11
12800.0
21
-15800.0
31
0
0
LINE
8
WALLS
10
12400.0
20
-200.0
30
0
11
12400.0
21
-2400.0
31
0
0
LINE
8
WALLS
10
12400.0
20
-3600.0
30
0
11
12400.0
21
-4900.0
31
0
0
LINE
8
WALLS
10
12400.0
20
-5500.0
30
0
11
12400.0
21
-12400.0
31
0
0
LINE
8
WALLS
10
12400.0
20
-13900.0
30
0
11
12400.0
21
-15400.0
31
0
0
LINE
8
OPENINGS
10
12800.0
20
-2400.0
30
0
11
12400.0
21
-2400.0
31
0
0
LINE
8
OPENINGS
10
12800.0
20
-3600.0
30
0
11
12400.0
21
-3600.0
31
0
0
LINE
8
WINDOWS
10
12700.0
20
-2400.0
30
0
11
12700.0
21
-3600.0
31
0
0
LINE
8
WINDOWS
10
12640.0
20
-2400.0
30
0
11
12640.0
21
-3600.0
31
0
0
TEXT
8
TEXT
10
13250.0
20
-3000.0
30
0
40
180.0
1
ОК-3
50
90
72
1
73
2
11
13250.0
21
-3000.0
31
0
0
LINE
8
OPENINGS
10
12800.0
20
-4900.0
30
0
11
12400.0
21
-4900.0
31
0
0
LINE
8
OPENINGS
10
12800.0
20
-5500.0
30
0
11
12400.0
21
-5500.0
31
0
0
LINE
8
WINDOWS
10
12700.0
20
-4900.0
30
0
11
12700.0
21
-5500.0
31
0
0
LINE
8
WINDOWS
10
12640.0
20
-4900.0
30
0
11
12640.0
21
-5500.0
31
0
0
TEXT
8
TEXT
10
13250.0
20
-5200.0
30
0
40
180.0
1
ОК-5
50
90
72
1
73
2
11
13250.0
21
-5200.0
31
0
0
LINE
8
OPENINGS
10
12800.0
20
-12400.0
30
0
11
12400.0
21
-12400.0
31
0
0
LINE
8
OPENINGS
10
12800.0
20
-13900.0
30
0
11
12400.0
21
-13900.0
31
0
0
LINE
8
WINDOWS
10
12700.0
20
-12400.0
30
0
11
12700.0
21
-13900.0
31
0
0
LINE
8
WINDOWS
10
12640.0
20
-12400.0
30
0
11
12640.0
21
-13900.0
31
0
0
TEXT
8
TEXT
10
13250.0
20
-13150.0
30
0
40
180.0
1
ОК-6
50
90
72
1
73
2
11
13250.0
21
-13150.0
31
0
0
LINE
8
WALLS
10
6175.0
20
-200.0
30
0
11
6175.0
21
-2400.0
31
0
0
LINE
8
WALLS
10
6425.0
20
-200.0
30
0
11
6425.0
21
-2400.0
31
0
0
LINE
8
WALLS
10
6175.0
20
-3300.0
30
0
11
6175.0
21
-8200.0
31
0
0
LINE
8
WALLS
10
6425.0
20
-3300.0
30
0
11
6425.0
21
-8200.0
31
0
0
LINE
8
WALLS
10
6175.0
20
-9400.0
30
0
11
6175.0
21
-15400.0
31
0
0
LINE
8
WALLS
10
6425.0
20
-9400.0
30
0
11
6425.0
21
-15400.0
31
0
0
LINE
8
WALLS
10
6175.0
20
-200.0
30
0
11
6425.0
21
-200.0
31
0
0
LINE
8
WALLS
10
6175.0
20
-15400.0
30
0
11
6425.0
21
-15400.0
31
0
0
LINE
8
WALLS_INT
10
200.0
20
-4500.0
30
0
11
6175.0
21
-4500.0
31
0
0
LINE
8
WALLS_INT
10
200.0
20
-4650.0
30
0
11
6175.0
21
-4650.0
31
0
0
LINE
8
WALLS_INT
10
200.0
20
-4500.0
30
0
11
200.0
21
-4650.0
31
0
0
LINE
8
WALLS_INT
10
6175.0
20
-4500.0
30
0
11
6175.0
21
-4650.0
31
0
0
LINE
8
WALLS_INT
10
3200.0
20
-4650.0
30
0
11
3200.0
21
-8000.0
31
0
0
LINE
8
WALLS_INT
10
3300.0
20
-4650.0
30
0
11
3300.0
21
-8000.0
31
0
0
LINE
8
WALLS_INT
10
3200.0
20
-4650.0
30
0
11
3300.0
21
-4650.0
31
0
0
LINE
8
WALLS_INT
10
3200.0
20
-8000.0
30
0
11
3300.0
21
-8000.0
31
0
0
LINE
8
WALLS_INT
10
200.0
20
-8000.0
30
0
11
1000.0
21
-8000.0
31
0
0
LINE
8
WALLS_INT
10
200.0
20
-8100.0
30
0
11
1000.0
21
-8100.0
31
0
0
LINE
8
WALLS_INT
10
1800.0
20
-8000.0
30
0
11
4200.0
21
-8000.0
31
0
0
LINE
8
WALLS_INT
10
1800.0
20
-8100.0
30
0
11
4200.0
21
-8100.0
31
0
0
LINE
8
WALLS_INT
10
5100.0
20
-8000.0
30
0
11
6175.0
21
-8000.0
31
0
0
LINE
8
WALLS_INT
10
5100.0
20
-8100.0
30
0
11
6175.0
21
-8100.0
31
0
0
LINE
8
WALLS_INT
10
200.0
20
-8000.0
30
0
11
200.0
21
-8100.0
31
0
0
LINE
8
WALLS_INT
10
6175.0
20
-8000.0
30
0
11
6175.0
21
-8100.0
31
0
0
LINE
8
WALLS_INT
10
200.0
20
-9350.0
30
0
11
5000.0
21
-9350.0
31
0
0
LINE
8
WALLS_INT
10
200.0
20
-9500.0
30
0
11
5000.0
21
-9500.0
31
0
0
LINE
8
WALLS_INT
10
5900.0
20
-9350.0
30
0
11
6175.0
21
-9350.0
31
0
0
LINE
8
WALLS_INT
10
5900.0
20
-9500.0
30
0
11
6175.0
21
-9500.0
31
0
0
LINE
8
WALLS_INT
10
200.0
20
-9350.0
30
0
11
200.0
21
-9500.0
31
0
0
LINE
8
WALLS_INT
10
6175.0
20
-9350.0
30
0
11
6175.0
21
-9500.0
31
0
0
LINE
8
WALLS_INT
10
2600.0
20
-9500.0
30
0
11
2600.0
21
-11650.0
31
0
0
LINE
8
WALLS_INT
10
2700.0
20
-9500.0
30
0
11
2700.0
21
-11650.0
31
0
0
LINE
8
WALLS_INT
10
2600.0
20
-9500.0
30
0
11
2700.0
21
-9500.0
31
0
0
LINE
8
WALLS_INT
10
2600.0
20
-11650.0
30
0
11
2700.0
21
-11650.0
31
0
0
LINE
8
WALLS_INT
10
4600.0
20
-9500.0
30
0
11
4600.0
21
-11650.0
31
0
0
LINE
8
WALLS_INT
10
4700.0
20
-9500.0
30
0
11
4700.0
21
-11650.0
31
0
0
LINE
8
WALLS_INT
10
4600.0
20
-9500.0
30
0
11
4700.0
21
-9500.0
31
0
0
LINE
8
WALLS_INT
10
4600.0
20
-11650.0
30
0
11
4700.0
21
-11650.0
31
0
0
LINE
8
WALLS_INT
10
200.0
20
-11650.0
30
0
11
1200.0
21
-11650.0
31
0
0
LINE
8
WALLS_INT
10
200.0
20
-11800.0
30
0
11
1200.0
21
-11800.0
31
0
0
LINE
8
WALLS_INT
10
2000.0
20
-11650.0
30
0
11
3200.0
21
-11650.0
31
0
0
LINE
8
WALLS_INT
10
2000.0
20
-11800.0
30
0
11
3200.0
21
-11800.0
31
0
0
LINE
8
WALLS_INT
10
4000.0
20
-11650.0
30
0
11
5000.0
21
-11650.0
31
0
0
LINE
8
WALLS_INT
10
4000.0
20
-11800.0
30
0
11
5000.0
21
-11800.0
31
0
0
LINE
8
WALLS_INT
10
5900.0
20
-11650.0
30
0
11
6175.0
21
-11650.0
31
0
0
LINE
8
WALLS_INT
10
5900.0
20
-11800.0
30
0
11
6175.0
21
-11800.0
31
0
0
LINE
8
WALLS_INT
10
200.0
20
-11650.0
30
0
11
200.0
21
-11800.0
31
0
0
LINE
8
WALLS_INT
10
6175.0
20
-11650.0
30
0
11
6175.0
21
-11800.0
31
0
0
LINE
8
WALLS_INT
10
10400.0
20
-3900.0
30
0
11
12400.0
21
-3900.0
31
0
0
LINE
8
WALLS_INT
10
10400.0
20
-4000.0
30
0
11
12400.0
21
-4000.0
31
0
0
LINE
8
WALLS_INT
10
10400.0
20
-3900.0
30
0
11
10400.0
21
-4000.0
31
0
0
LINE
8
WALLS_INT
10
12400.0
20
-3900.0
30
0
11
12400.0
21
-4000.0
31
0
0
LINE
8
WALLS_INT
10
10400.0
20
-4000.0
30
0
11
10400.0
21
-4300.0
31
0
0
LINE
8
WALLS_INT
10
10500.0
20
-4000.0
30
0
11
10500.0
21
-4300.0
31
0
0
LINE
8
WALLS_INT
10
10400.0
20
-5100.0
30
0
11
10400.0
21
-7400.0
31
0
0
LINE
8
WALLS_INT
10
10500.0
20
-5100.0
30
0
11
10500.0
21
-7400.0
31
0
0
LINE
8
WALLS_INT
10
10400.0
20
-8200.0
30
0
11
10400.0
21
-9350.0
31
0
0
LINE
8
WALLS_INT
10
10500.0
20
-8200.0
30
0
11
10500.0
21
-9350.0
31
0
0
LINE
8
WALLS_INT
10
10400.0
20
-4000.0
30
0
11
10500.0
21
-4000.0
31
0
0
LINE
8
WALLS_INT
10
10400.0
20
-9350.0
30
0
11
10500.0
21
-9350.0
31
0
0
LINE
8
WALLS_INT
10
10500.0
20
-6800.0
30
0
11
12400.0
21
-6800.0
31
0
0
LINE
8
WALLS_INT
10
10500.0
20
-6900.0
30
0
11
12400.0
21
-6900.0
31
0
0
LINE
8
WALLS_INT
10
10500.0
20
-6800.0
30
0
11
10500.0
21
-6900.0
31
0
0
LINE
8
WALLS_INT
10
12400.0
20
-6800.0
30
0
11
12400.0
21
-6900.0
31
0
0
LINE
8
WALLS_INT
10
6425.0
20
-9350.0
30
0
11
7000.0
21
-9350.0
31
0
0
LINE
8
WALLS_INT
10
6425.0
20
-9500.0
30
0
11
7000.0
21
-9500.0
31
0
0
LINE
8
WALLS_INT
10
7900.0
20
-9350.0
30
0
11
9500.0
21
-9350.0
31
0
0
LINE
8
WALLS_INT
10
7900.0
20
-9500.0
30
0
11
9500.0
21
-9500.0
31
0
0
LINE
8
WALLS_INT
10
10400.0
20
-9350.0
30
0
11
12400.0
21
-9350.0
31
0
0
LINE
8
WALLS_INT
10
10400.0
20
-9500.0
30
0
11
12400.0
21
-9500.0
31
0
0
LINE
8
WALLS_INT
10
6425.0
20
-9350.0
30
0
11
6425.0
21
-9500.0
31
0
0
LINE
8
WALLS_INT
10
12400.0
20
-9350.0
30
0
11
12400.0
21
-9500.0
31
0
0
LINE
8
WALLS_INT
10
9200.0
20
-9500.0
30
0
11
9200.0
21
-15400.0
31
0
0
LINE
8
WALLS_INT
10
9350.0
20
-9500.0
30
0
11
9350.0
21
-15400.0
31
0
0
LINE
8
WALLS_INT
10
9200.0
20
-9500.0
30
0
11
9350.0
21
-9500.0
31
0
0
LINE
8
WALLS_INT
10
9200.0
20
-15400.0
30
0
11
9350.0
21
-15400.0
31
0
0
LINE
8
OPENINGS
10
6175.0
20
-2400.0
30
0
11
6425.0
21
-2400.0
31
0
0
LINE
8
OPENINGS
10
6175.0
20
-3300.0
30
0
11
6425.0
21
-3300.0
31
0
0
LINE
8
DOORS
10
6175.0
20
-2400.0
30
0
11
5275.0
21
-2400.0
31
0
0
ARC
8
DOORS
10
6175.0
20
-2400.0
30
0
40
900.0
50
180.00
51
-90.00
0
TEXT
8
TEXT
10
6300.0
20
-2850.0
30
0
40
150.0
1
Д-2
50
90
72
1
73
2
11
6300.0
21
-2850.0
31
0
0
LINE
8
OPENINGS
10
6175.0
20
-8200.0
30
0
11
6425.0
21
-8200.0
31
0
0
LINE
8
OPENINGS
10
6175.0
20
-9400.0
30
0
11
6425.0
21
-9400.0
31
0
0
TEXT
8
TEXT
10
6300.0
20
-8800.0
30
0
40
150.0
1
ПР-2
50
90
72
1
73
2
11
6300.0
21
-8800.0
31
0
0
LINE
8
OPENINGS
10
1000.0
20
-8000.0
30
0
11
1000.0
21
-8100.0
31
0
0
LINE
8
OPENINGS
10
1800.0
20
-8000.0
30
0
11
1800.0
21
-8100.0
31
0
0
LINE
8
DOORS
10
1800.0
20
-8000.0
30
0
11
1800.0
21
-7200.0
31
0
0
ARC
8
DOORS
10
1800.0
20
-8000.0
30
0
40
800.0
50
90.00
51
180.00
0
TEXT
8
TEXT
10
1400.0
20
-7700.0
30
0
40
150.0
1
Д-3
50
0
72
1
73
2
11
1400.0
21
-7700.0
31
0
0
LINE
8
OPENINGS
10
4200.0
20
-8000.0
30
0
11
4200.0
21
-8100.0
31
0
0
LINE
8
OPENINGS
10
5100.0
20
-8000.0
30
0
11
5100.0
21
-8100.0
31
0
0
LINE
8
DOORS
10
4200.0
20
-8000.0
30
0
11
4200.0
21
-7100.0
31
0
0
ARC
8
DOORS
10
4200.0
20
-8000.0
30
0
40
900.0
50
0.00
51
90.00
0
TEXT
8
TEXT
10
4650.0
20
-7700.0
30
0
40
150.0
1
Д-2
50
0
72
1
73
2
11
4650.0
21
-7700.0
31
0
0
LINE
8
OPENINGS
10
5000.0
20
-9350.0
30
0
11
5000.0
21
-9500.0
31
0
0
LINE
8
OPENINGS
10
5900.0
20
-9350.0
30
0
11
5900.0
21
-9500.0
31
0
0
LINE
8
DOORS
10
5900.0
20
-9500.0
30
0
11
5900.0
21
-10400.0
31
0
0
ARC
8
DOORS
10
5900.0
20
-9500.0
30
0
40
900.0
50
180.00
51
-90.00
0
TEXT
8
TEXT
10
5450.0
20
-9075.0
30
0
40
150.0
1
Д-2
50
0
72
1
73
2
11
5450.0
21
-9075.0
31
0
0
LINE
8
OPENINGS
10
5000.0
20
-11650.0
30
0
11
5000.0
21
-11800.0
31
0
0
LINE
8
OPENINGS
10
5900.0
20
-11650.0
30
0
11
5900.0
21
-11800.0
31
0
0
LINE
8
DOORS
10
5900.0
20
-11800.0
30
0
11
5900.0
21
-12700.0
31
0
0
ARC
8
DOORS
10
5900.0
20
-11800.0
30
0
40
900.0
50
180.00
51
-90.00
0
TEXT
8
TEXT
10
5450.0
20
-11375.0
30
0
40
150.0
1
Д-2
50
0
72
1
73
2
11
5450.0
21
-11375.0
31
0
0
LINE
8
OPENINGS
10
3200.0
20
-11650.0
30
0
11
3200.0
21
-11800.0
31
0
0
LINE
8
OPENINGS
10
4000.0
20
-11650.0
30
0
11
4000.0
21
-11800.0
31
0
0
LINE
8
DOORS
10
3200.0
20
-11650.0
30
0
11
3200.0
21
-10850.0
31
0
0
ARC
8
DOORS
10
3200.0
20
-11650.0
30
0
40
800.0
50
0.00
51
90.00
0
TEXT
8
TEXT
10
3600.0
20
-11375.0
30
0
40
150.0
1
Д-3
50
0
72
1
73
2
11
3600.0
21
-11375.0
31
0
0
LINE
8
OPENINGS
10
1200.0
20
-11650.0
30
0
11
1200.0
21
-11800.0
31
0
0
LINE
8
OPENINGS
10
2000.0
20
-11650.0
30
0
11
2000.0
21
-11800.0
31
0
0
LINE
8
DOORS
10
2000.0
20
-11650.0
30
0
11
2000.0
21
-10850.0
31
0
0
ARC
8
DOORS
10
2000.0
20
-11650.0
30
0
40
800.0
50
90.00
51
180.00
0
TEXT
8
TEXT
10
1600.0
20
-11375.0
30
0
40
150.0
1
Д-3
50
0
72
1
73
2
11
1600.0
21
-11375.0
31
0
0
LINE
8
OPENINGS
10
10400.0
20
-4300.0
30
0
11
10500.0
21
-4300.0
31
0
0
LINE
8
OPENINGS
10
10400.0
20
-5100.0
30
0
11
10500.0
21
-5100.0
31
0
0
LINE
8
DOORS
10
10500.0
20
-4300.0
30
0
11
11300.0
21
-4300.0
31
0
0
ARC
8
DOORS
10
10500.0
20
-4300.0
30
0
40
800.0
50
-90.00
51
0.00
0
TEXT
8
TEXT
10
10450.0
20
-4700.0
30
0
40
150.0
1
Д-3
50
90
72
1
73
2
11
10450.0
21
-4700.0
31
0
0
LINE
8
OPENINGS
10
10400.0
20
-7400.0
30
0
11
10500.0
21
-7400.0
31
0
0
LINE
8
OPENINGS
10
10400.0
20
-8200.0
30
0
11
10500.0
21
-8200.0
31
0
0
LINE
8
DOORS
10
10500.0
20
-8200.0
30
0
11
11300.0
21
-8200.0
31
0
0
ARC
8
DOORS
10
10500.0
20
-8200.0
30
0
40
800.0
50
0.00
51
90.00
0
TEXT
8
TEXT
10
10450.0
20
-7800.0
30
0
40
150.0
1
Д-3
50
90
72
1
73
2
11
10450.0
21
-7800.0
31
0
0
LINE
8
OPENINGS
10
7000.0
20
-9350.0
30
0
11
7000.0
21
-9500.0
31
0
0
LINE
8
OPENINGS
10
7900.0
20
-9350.0
30
0
11
7900.0
21
-9500.0
31
0
0
LINE
8
DOORS
10
7000.0
20
-9500.0
30
0
11
7000.0
21
-10400.0
31
0
0
ARC
8
DOORS
10
7000.0
20
-9500.0
30
0
40
900.0
50
-90.00
51
0.00
0
TEXT
8
TEXT
10
7450.0
20
-9075.0
30
0
40
150.0
1
Д-2
50
0
72
1
73
2
11
7450.0
21
-9075.0
31
0
0
LINE
8
OPENINGS
10
9500.0
20
-9350.0
30
0
11
9500.0
21
-9500.0
31
0
0
LINE
8
OPENINGS
10
10400.0
20
-9350.0
30
0
11
10400.0
21
-9500.0
31
0
0
LINE
8
DOORS
10
10400.0
20
-9500.0
30
0
11
10400.0
21
-10400.0
31
0
0
ARC
8
DOORS
10
10400.0
20
-9500.0
30
0
40
900.0
50
180.00
51
-90.00
0
TEXT
8
TEXT
10
9950.0
20
-9075.0
30
0
40
150.0
1
Д-2
50
0
72
1
73
2
11
9950.0
21
-9075.0
31
0
0
LINE
8
STAIR
10
7775.0
20
-4330.0
30
0
11
8925.0
21
-4330.0
31
0
0
LINE
8
STAIR
10
6425.0
20
-6850.0
30
0
11
7575.0
21
-6850.0
31
0
0
LINE
8
STAIR
10
7775.0
20
-4610.0
30
0
11
8925.0
21
-4610.0
31
0
0
LINE
8
STAIR
10
6425.0
20
-6570.0
30
0
11
7575.0
21
-6570.0
31
0
0
LINE
8
STAIR
10
7775.0
20
-4890.0
30
0
11
8925.0
21
-4890.0
31
0
0
LINE
8
STAIR
10
6425.0
20
-6290.0
30
0
11
7575.0
21
-6290.0
31
0
0
LINE
8
STAIR
10
7775.0
20
-5170.0
30
0
11
8925.0
21
-5170.0
31
0
0
LINE
8
STAIR
10
6425.0
20
-6010.0
30
0
11
7575.0
21
-6010.0
31
0
0
LINE
8
STAIR
10
7775.0
20
-5450.0
30
0
11
8925.0
21
-5450.0
31
0
0
LINE
8
STAIR
10
6425.0
20
-5730.0
30
0
11
7575.0
21
-5730.0
31
0
0
LINE
8
STAIR
10
7775.0
20
-5730.0
30
0
11
8925.0
21
-5730.0
31
0
0
LINE
8
STAIR
10
6425.0
20
-5450.0
30
0
11
7575.0
21
-5450.0
31
0
0
LINE
8
STAIR
10
7775.0
20
-6010.0
30
0
11
8925.0
21
-6010.0
31
0
0
LINE
8
STAIR
10
6425.0
20
-5170.0
30
0
11
7575.0
21
-5170.0
31
0
0
LINE
8
STAIR
10
7775.0
20
-6290.0
30
0
11
8925.0
21
-6290.0
31
0
0
LINE
8
STAIR
10
6425.0
20
-4890.0
30
0
11
7575.0
21
-4890.0
31
0
0
LINE
8
STAIR
10
7775.0
20
-6570.0
30
0
11
8925.0
21
-6570.0
31
0
0
LINE
8
STAIR
10
6425.0
20
-4610.0
30
0
11
7575.0
21
-4610.0
31
0
0
LINE
8
STAIR
10
7775.0
20
-6850.0
30
0
11
8925.0
21
-6850.0
31
0
0
LINE
8
STAIR
10
6425.0
20
-4330.0
30
0
11
7575.0
21
-4330.0
31
0
0
POLYLINE
8
STAIR
66
1
70
1
0
VERTEX
8
STAIR
10
6425.0
20
-6850.0
30
0
0
VERTEX
8
STAIR
10
8925.0
20
-6850.0
30
0
0
VERTEX
8
STAIR
10
8925.0
20
-8000.0
30
0
0
VERTEX
8
STAIR
10
6425.0
20
-8000.0
30
0
0
SEQEND
8
STAIR
0
LINE
8
STAIR
10
7775.0
20
-4330.0
30
0
11
7775.0
21
-6850.0
31
0
0
LINE
8
STAIR
10
7575.0
20
-6850.0
30
0
11
7575.0
21
-4330.0
31
0
0
POLYLINE
8
STAIR
66
1
70
1
0
VERTEX
8
STAIR
10
6425.0
20
-4330.0
30
0
0
VERTEX
8
STAIR
10
8925.0
20
-4330.0
30
0
0
VERTEX
8
STAIR
10
8925.0
20
-8000.0
30
0
0
VERTEX
8
STAIR
10
6425.0
20
-8000.0
30
0
0
SEQEND
8
STAIR
0
POLYLINE
8
VENT
66
1
70
1
0
VERTEX
8
VENT
10
5775.0
20
-200.0
30
0
0
VERTEX
8
VENT
10
6175.0
20
-200.0
30
0
0
VERTEX
8
VENT
10
6175.0
20
-600.0
30
0
0
VERTEX
8
VENT
10
5775.0
20
-600.0
30
0
0
SEQEND
8
VENT
0
TEXT
8
VENT
10
5975.0
20
100.0
30
0
40
150.0
1
В1
50
0
72
1
73
2
11
5975.0
21
100.0
31
0
0
POLYLINE
8
VENT
66
1
70
1
0
VERTEX
8
VENT
10
5775.0
20
-4650.0
30
0
0
VERTEX
8
VENT
10
6175.0
20
-4650.0
30
0
0
VERTEX
8
VENT
10
6175.0
20
-5050.0
30
0
0
VERTEX
8
VENT
10
5775.0
20
-5050.0
30
0
0
SEQEND
8
VENT
0
TEXT
8
VENT
10
5975.0
20
-4350.0
30
0
40
150.0
1
В2
50
0
72
1
73
2
11
5975.0
21
-4350.0
31
0
0
POLYLINE
8
VENT
66
1
70
1
0
VERTEX
8
VENT
10
10500.0
20
-4000.0
30
0
0
VERTEX
8
VENT
10
10900.0
20
-4000.0
30
0
0
VERTEX
8
VENT
10
10900.0
20
-4400.0
30
0
0
VERTEX
8
VENT
10
10500.0
20
-4400.0
30
0
0
SEQEND
8
VENT
0
TEXT
8
VENT
10
10700.0
20
-3700.0
30
0
40
150.0
1
В3
50
0
72
1
73
2
11
10700.0
21
-3700.0
31
0
0
POLYLINE
8
VENT
66
1
70
1
0
VERTEX
8
VENT
10
5775.0
20
-10350.0
30
0
0
VERTEX
8
VENT
10
6175.0
20
-10350.0
30
0
0
VERTEX
8
VENT
10
6175.0
20
-10750.0
30
0
0
VERTEX
8
VENT
10
5775.0
20
-10750.0
30
0
0
SEQEND
8
VENT
0
TEXT
8
VENT
10
5975.0
20
-10050.0
30
0
40
150.0
1
В4
50
0
72
1
73
2
11
5975.0
21
-10050.0
31
0
0
POLYLINE
8
VENT
66
1
70
1
0
VERTEX
8
VENT
10
2200.0
20
-9500.0
30
0
0
VERTEX
8
VENT
10
2600.0
20
-9500.0
30
0
0
VERTEX
8
VENT
10
2600.0
20
-9900.0
30
0
0
VERTEX
8
VENT
10
2200.0
20
-9900.0
30
0
0
SEQEND
8
VENT
0
TEXT
8
VENT
10
2400.0
20
-9200.0
30
0
40
150.0
1
В5
50
0
72
1
73
2
11
2400.0
21
-9200.0
31
0
0
POLYLINE
8
VENT
66
1
70
1
0
VERTEX
8
VENT
10
2800.0
20
-4650.0
30
0
0
VERTEX
8
VENT
10
3200.0
20
-4650.0
30
0
0
VERTEX
8
VENT
10
3200.0
20
-5050.0
30
0
0
VERTEX
8
VENT
10
2800.0
20
-5050.0
30
0
0
SEQEND
8
VENT
0
TEXT
8
VENT
10
3000.0
20
-4350.0
30
0
40
150.0
1
В6
50
0
72
1
73
2
11
3000.0
21
-4350.0
31
0
0
POLYLINE
8
VENT
66
1
70
1
0
VERTEX
8
VENT
10
3500.0
20
-200.0
30
0
0
VERTEX
8
VENT
10
3900.0
20
-200.0
30
0
0
VERTEX
8
VENT
10
3900.0
20
-600.0
30
0
0
VERTEX
8
VENT
10
3500.0
20
-600.0
30
0
0
SEQEND
8
VENT
0
TEXT
8
VENT
10
3700.0
20
100.0
30
0
40
150.0
1
В7
50
0
72
1
73
2
11
3700.0
21
100.0
31
0
0
TEXT
8
TEXT
10
9412.5
20
-1800.0
30
0
40
250.0
1
2.01 Холл (лаундж)
50
0
72
1
73
2
11
9412.5
21
-1800.0
31
0
0
TEXT
8
TEXT
10
9412.5
20
-2250.0
30
0
40
220.0
1
22.11 м2
50
0
72
1
73
2
11
9412.5
21
-2250.0
31
0
0
TEXT
8
TEXT
10
9662.5
20
-5750.0
30
0
40
250.0
1
2.02 Коридор
50
0
72
1
73
2
11
9662.5
21
-5750.0
31
0
0
TEXT
8
TEXT
10
9662.5
20
-6200.0
30
0
40
220.0
1
10.87 м2
50
0
72
1
73
2
11
9662.5
21
-6200.0
31
0
0
TEXT
8
TEXT
10
11450.0
20
-5150.0
30
0
40
250.0
1
2.03 Санузел детский
50
0
72
1
73
2
11
11450.0
21
-5150.0
31
0
0
TEXT
8
TEXT
10
11450.0
20
-5600.0
30
0
40
220.0
1
5.32 м2
50
0
72
1
73
2
11
11450.0
21
-5600.0
31
0
0
TEXT
8
TEXT
10
11450.0
20
-7875.0
30
0
40
250.0
1
2.04 Бельевая
50
0
72
1
73
2
11
11450.0
21
-7875.0
31
0
0
TEXT
8
TEXT
10
11450.0
20
-8325.0
30
0
40
220.0
1
4.65 м2
50
0
72
1
73
2
11
11450.0
21
-8325.0
31
0
0
TEXT
8
TEXT
10
7812.5
20
-12200.0
30
0
40
250.0
1
2.05 Спальня 3
50
0
72
1
73
2
11
7812.5
21
-12200.0
31
0
0
TEXT
8
TEXT
10
7812.5
20
-12650.0
30
0
40
220.0
1
16.37 м2
50
0
72
1
73
2
11
7812.5
21
-12650.0
31
0
0
TEXT
8
TEXT
10
10875.0
20
-12200.0
30
0
40
250.0
1
2.06 Спальня 4
50
0
72
1
73
2
11
10875.0
21
-12200.0
31
0
0
TEXT
8
TEXT
10
10875.0
20
-12650.0
30
0
40
220.0
1
18.00 м2
50
0
72
1
73
2
11
10875.0
21
-12650.0
31
0
0
TEXT
8
TEXT
10
3187.5
20
-2100.0
30
0
40
250.0
1
2.07 Спальня 2 (гостевая)
50
0
72
1
73
2
11
3187.5
21
-2100.0
31
0
0
TEXT
8
TEXT
10
3187.5
20
-2550.0
30
0
40
220.0
1
25.69 м2
50
0
72
1
73
2
11
3187.5
21
-2550.0
31
0
0
TEXT
8
TEXT
10
1700.0
20
-6075.0
30
0
40
250.0
1
2.08 Ванная общая
50
0
72
1
73
2
11
1700.0
21
-6075.0
31
0
0
TEXT
8
TEXT
10
1700.0
20
-6525.0
30
0
40
220.0
1
10.05 м2
50
0
72
1
73
2
11
1700.0
21
-6525.0
31
0
0
TEXT
8
TEXT
10
4737.5
20
-6075.0
30
0
40
250.0
1
2.09 Постирочная-гладильная
50
0
72
1
73
2
11
4737.5
21
-6075.0
31
0
0
TEXT
8
TEXT
10
4737.5
20
-6525.0
30
0
40
220.0
1
9.63 м2
50
0
72
1
73
2
11
4737.5
21
-6525.0
31
0
0
TEXT
8
TEXT
10
3187.5
20
-8475.0
30
0
40
250.0
1
2.10 Коридор (зап.)
50
0
72
1
73
2
11
3187.5
21
-8475.0
31
0
0
TEXT
8
TEXT
10
3187.5
20
-8925.0
30
0
40
220.0
1
7.47 м2
50
0
72
1
73
2
11
3187.5
21
-8925.0
31
0
0
TEXT
8
TEXT
10
1400.0
20
-10325.0
30
0
40
250.0
1
2.11 Санузел мастер
50
0
72
1
73
2
11
1400.0
21
-10325.0
31
0
0
TEXT
8
TEXT
10
1400.0
20
-10775.0
30
0
40
220.0
1
5.16 м2
50
0
72
1
73
2
11
1400.0
21
-10775.0
31
0
0
TEXT
8
TEXT
10
3650.0
20
-10325.0
30
0
40
250.0
1
2.12 Гардеробная
50
0
72
1
73
2
11
3650.0
21
-10325.0
31
0
0
TEXT
8
TEXT
10
3650.0
20
-10775.0
30
0
40
220.0
1
4.08 м2
50
0
72
1
73
2
11
3650.0
21
-10775.0
31
0
0
TEXT
8
TEXT
10
5437.5
20
-10325.0
30
0
40
250.0
1
2.13 Прихожая спальни
50
0
72
1
73
2
11
5437.5
21
-10325.0
31
0
0
TEXT
8
TEXT
10
5437.5
20
-10775.0
30
0
40
220.0
1
3.17 м2
50
0
72
1
73
2
11
5437.5
21
-10775.0
31
0
0
TEXT
8
TEXT
10
3187.5
20
-13350.0
30
0
40
250.0
1
2.14 Спальня родителей
50
0
72
1
73
2
11
3187.5
21
-13350.0
31
0
0
TEXT
8
TEXT
10
3187.5
20
-13800.0
30
0
40
220.0
1
21.51 м2
50
0
72
1
73
2
11
3187.5
21
-13800.0
31
0
0
LINE
8
AXES
10
0.0
20
4200.0
30
0
11
0.0
21
-19800.0
31
0
0
CIRCLE
8
AXES
10
0.0
20
4700.0
30
0
40
400.0
0
TEXT
8
AXES
10
0.0
20
4700.0
30
0
40
350.0
1
1
50
0
72
1
73
2
11
0.0
21
4700.0
31
0
0
CIRCLE
8
AXES
10
0.0
20
-20300.0
30
0
40
400.0
0
TEXT
8
AXES
10
0.0
20
-20300.0
30
0
40
350.0
1
1
50
0
72
1
73
2
11
0.0
21
-20300.0
31
0
0
LINE
8
AXES
10
6300.0
20
4200.0
30
0
11
6300.0
21
-19800.0
31
0
0
CIRCLE
8
AXES
10
6300.0
20
4700.0
30
0
40
400.0
0
TEXT
8
AXES
10
6300.0
20
4700.0
30
0
40
350.0
1
2
50
0
72
1
73
2
11
6300.0
21
4700.0
31
0
0
CIRCLE
8
AXES
10
6300.0
20
-20300.0
30
0
40
400.0
0
TEXT
8
AXES
10
6300.0
20
-20300.0
30
0
40
350.0
1
2
50
0
72
1
73
2
11
6300.0
21
-20300.0
31
0
0
LINE
8
AXES
10
12600.0
20
4200.0
30
0
11
12600.0
21
-19800.0
31
0
0
CIRCLE
8
AXES
10
12600.0
20
4700.0
30
0
40
400.0
0
TEXT
8
AXES
10
12600.0
20
4700.0
30
0
40
350.0
1
3
50
0
72
1
73
2
11
12600.0
21
4700.0
31
0
0
CIRCLE
8
AXES
10
12600.0
20
-20300.0
30
0
40
400.0
0
TEXT
8
AXES
10
12600.0
20
-20300.0
30
0
40
350.0
1
3
50
0
72
1
73
2
11
12600.0
21
-20300.0
31
0
0
LINE
8
AXES
10
-3400.0
20
-0.0
30
0
11
16000.0
21
-0.0
31
0
0
CIRCLE
8
AXES
10
-3900.0
20
-0.0
30
0
40
400.0
0
TEXT
8
AXES
10
-3900.0
20
-0.0
30
0
40
350.0
1
А
50
0
72
1
73
2
11
-3900.0
21
-0.0
31
0
0
CIRCLE
8
AXES
10
16500.0
20
-0.0
30
0
40
400.0
0
TEXT
8
AXES
10
16500.0
20
-0.0
30
0
40
350.0
1
А
50
0
72
1
73
2
11
16500.0
21
-0.0
31
0
0
LINE
8
AXES
10
-3400.0
20
-15600.0
30
0
11
16000.0
21
-15600.0
31
0
0
CIRCLE
8
AXES
10
-3900.0
20
-15600.0
30
0
40
400.0
0
TEXT
8
AXES
10
-3900.0
20
-15600.0
30
0
40
350.0
1
Б
50
0
72
1
73
2
11
-3900.0
21
-15600.0
31
0
0
CIRCLE
8
AXES
10
16500.0
20
-15600.0
30
0
40
400.0
0
TEXT
8
AXES
10
16500.0
20
-15600.0
30
0
40
350.0
1
Б
50
0
72
1
73
2
11
16500.0
21
-15600.0
31
0
0
LINE
8
DIM
10
-200.0
20
200.0
30
0
11
-200.0
21
2900.0
31
0
0
LINE
8
DIM
10
1000.0
20
200.0
30
0
11
1000.0
21
2900.0
31
0
0
LINE
8
DIM
10
2500.0
20
200.0
30
0
11
2500.0
21
2900.0
31
0
0
LINE
8
DIM
10
3700.0
20
200.0
30
0
11
3700.0
21
2900.0
31
0
0
LINE
8
DIM
10
5200.0
20
200.0
30
0
11
5200.0
21
2900.0
31
0
0
LINE
8
DIM
10
7000.0
20
200.0
30
0
11
7000.0
21
2900.0
31
0
0
LINE
8
DIM
10
8200.0
20
200.0
30
0
11
8200.0
21
2900.0
31
0
0
LINE
8
DIM
10
8800.0
20
200.0
30
0
11
8800.0
21
2900.0
31
0
0
LINE
8
DIM
10
10000.0
20
200.0
30
0
11
10000.0
21
2900.0
31
0
0
LINE
8
DIM
10
10800.0
20
200.0
30
0
11
10800.0
21
2900.0
31
0
0
LINE
8
DIM
10
12000.0
20
200.0
30
0
11
12000.0
21
2900.0
31
0
0
LINE
8
DIM
10
12800.0
20
200.0
30
0
11
12800.0
21
2900.0
31
0
0
LINE
8
DIM
10
-200.0
20
3100.0
30
0
11
12800.0
21
3100.0
31
0
0
LINE
8
DIM
10
-300.0
20
3000.0
30
0
11
-100.0
21
3200.0
31
0
0
TEXT
8
DIM
10
400.0
20
3220.0
30
0
40
200.0
1
1200
50
0
72
1
73
2
11
400.0
21
3220.0
31
0
0
LINE
8
DIM
10
900.0
20
3000.0
30
0
11
1100.0
21
3200.0
31
0
0
TEXT
8
DIM
10
1750.0
20
3220.0
30
0
40
200.0
1
1500
50
0
72
1
73
2
11
1750.0
21
3220.0
31
0
0
LINE
8
DIM
10
2400.0
20
3000.0
30
0
11
2600.0
21
3200.0
31
0
0
TEXT
8
DIM
10
3100.0
20
3220.0
30
0
40
200.0
1
1200
50
0
72
1
73
2
11
3100.0
21
3220.0
31
0
0
LINE
8
DIM
10
3600.0
20
3000.0
30
0
11
3800.0
21
3200.0
31
0
0
TEXT
8
DIM
10
4450.0
20
3220.0
30
0
40
200.0
1
1500
50
0
72
1
73
2
11
4450.0
21
3220.0
31
0
0
LINE
8
DIM
10
5100.0
20
3000.0
30
0
11
5300.0
21
3200.0
31
0
0
TEXT
8
DIM
10
6100.0
20
3220.0
30
0
40
200.0
1
1800
50
0
72
1
73
2
11
6100.0
21
3220.0
31
0
0
LINE
8
DIM
10
6900.0
20
3000.0
30
0
11
7100.0
21
3200.0
31
0
0
TEXT
8
DIM
10
7600.0
20
3220.0
30
0
40
200.0
1
1200
50
0
72
1
73
2
11
7600.0
21
3220.0
31
0
0
LINE
8
DIM
10
8100.0
20
3000.0
30
0
11
8300.0
21
3200.0
31
0
0
TEXT
8
DIM
10
8500.0
20
3220.0
30
0
40
200.0
1
600
50
0
72
1
73
2
11
8500.0
21
3220.0
31
0
0
LINE
8
DIM
10
8700.0
20
3000.0
30
0
11
8900.0
21
3200.0
31
0
0
TEXT
8
DIM
10
9400.0
20
3220.0
30
0
40
200.0
1
1200
50
0
72
1
73
2
11
9400.0
21
3220.0
31
0
0
LINE
8
DIM
10
9900.0
20
3000.0
30
0
11
10100.0
21
3200.0
31
0
0
TEXT
8
DIM
10
10400.0
20
3220.0
30
0
40
200.0
1
800
50
0
72
1
73
2
11
10400.0
21
3220.0
31
0
0
LINE
8
DIM
10
10700.0
20
3000.0
30
0
11
10900.0
21
3200.0
31
0
0
TEXT
8
DIM
10
11400.0
20
3220.0
30
0
40
200.0
1
1200
50
0
72
1
73
2
11
11400.0
21
3220.0
31
0
0
LINE
8
DIM
10
11900.0
20
3000.0
30
0
11
12100.0
21
3200.0
31
0
0
TEXT
8
DIM
10
12400.0
20
3220.0
30
0
40
200.0
1
800
50
0
72
1
73
2
11
12400.0
21
3220.0
31
0
0
LINE
8
DIM
10
12700.0
20
3000.0
30
0
11
12900.0
21
3200.0
31
0
0
LINE
8
DIM
10
0.0
20
200.0
30
0
11
0.0
21
3915.0
31
0
0
LINE
8
DIM
10
6300.0
20
200.0
30
0
11
6300.0
21
3915.0
31
0
0
LINE
8
DIM
10
12600.0
20
200.0
30
0
11
12600.0
21
3915.0
31
0
0
LINE
8
DIM
10
0.0
20
4115.0
30
0
11
12600.0
21
4115.0
31
0
0
LINE
8
DIM
10
-100.0
20
4015.0
30
0
11
100.0
21
4215.0
31
0
0
TEXT
8
DIM
10
3150.0
20
4235.0
30
0
40
200.0
1
6300
50
0
72
1
73
2
11
3150.0
21
4235.0
31
0
0
LINE
8
DIM
10
6200.0
20
4015.0
30
0
11
6400.0
21
4215.0
31
0
0
TEXT
8
DIM
10
9450.0
20
4235.0
30
0
40
200.0
1
6300
50
0
72
1
73
2
11
9450.0
21
4235.0
31
0
0
LINE
8
DIM
10
12500.0
20
4015.0
30
0
11
12700.0
21
4215.0
31
0
0
LINE
8
DIM
10
-200.0
20
200.0
30
0
11
-200.0
21
4930.0
31
0
0
LINE
8
DIM
10
12800.0
20
200.0
30
0
11
12800.0
21
4930.0
31
0
0
LINE
8
DIM
10
-200.0
20
5130.0
30
0
11
12800.0
21
5130.0
31
0
0
LINE
8
DIM
10
-300.0
20
5030.0
30
0
11
-100.0
21
5230.0
31
0
0
TEXT
8
DIM
10
6300.0
20
5250.0
30
0
40
200.0
1
13000
50
0
72
1
73
2
11
6300.0
21
5250.0
31
0
0
LINE
8
DIM
10
12700.0
20
5030.0
30
0
11
12900.0
21
5230.0
31
0
0
LINE
8
DIM
10
-200.0
20
-15800.0
30
0
11
-200.0
21
-18500.0
31
0
0
LINE
8
DIM
10
2000.0
20
-15800.0
30
0
11
2000.0
21
-18500.0
31
0
0
LINE
8
DIM
10
4400.0
20
-15800.0
30
0
11
4400.0
21
-18500.0
31
0
0
LINE
8
DIM
10
7200.0
20
-15800.0
30
0
11
7200.0
21
-18500.0
31
0
0
LINE
8
DIM
10
8700.0
20
-15800.0
30
0
11
8700.0
21
-18500.0
31
0
0
LINE
8
DIM
10
10200.0
20
-15800.0
30
0
11
10200.0
21
-18500.0
31
0
0
LINE
8
DIM
10
11700.0
20
-15800.0
30
0
11
11700.0
21
-18500.0
31
0
0
LINE
8
DIM
10
12800.0
20
-15800.0
30
0
11
12800.0
21
-18500.0
31
0
0
LINE
8
DIM
10
-200.0
20
-18700.0
30
0
11
12800.0
21
-18700.0
31
0
0
LINE
8
DIM
10
-300.0
20
-18800.0
30
0
11
-100.0
21
-18600.0
31
0
0
TEXT
8
DIM
10
900.0
20
-18580.0
30
0
40
200.0
1
2200
50
0
72
1
73
2
11
900.0
21
-18580.0
31
0
0
LINE
8
DIM
10
1900.0
20
-18800.0
30
0
11
2100.0
21
-18600.0
31
0
0
TEXT
8
DIM
10
3200.0
20
-18580.0
30
0
40
200.0
1
2400
50
0
72
1
73
2
11
3200.0
21
-18580.0
31
0
0
LINE
8
DIM
10
4300.0
20
-18800.0
30
0
11
4500.0
21
-18600.0
31
0
0
TEXT
8
DIM
10
5800.0
20
-18580.0
30
0
40
200.0
1
2800
50
0
72
1
73
2
11
5800.0
21
-18580.0
31
0
0
LINE
8
DIM
10
7100.0
20
-18800.0
30
0
11
7300.0
21
-18600.0
31
0
0
TEXT
8
DIM
10
7950.0
20
-18580.0
30
0
40
200.0
1
1500
50
0
72
1
73
2
11
7950.0
21
-18580.0
31
0
0
LINE
8
DIM
10
8600.0
20
-18800.0
30
0
11
8800.0
21
-18600.0
31
0
0
TEXT
8
DIM
10
9450.0
20
-18580.0
30
0
40
200.0
1
1500
50
0
72
1
73
2
11
9450.0
21
-18580.0
31
0
0
LINE
8
DIM
10
10100.0
20
-18800.0
30
0
11
10300.0
21
-18600.0
31
0
0
TEXT
8
DIM
10
10950.0
20
-18580.0
30
0
40
200.0
1
1500
50
0
72
1
73
2
11
10950.0
21
-18580.0
31
0
0
LINE
8
DIM
10
11600.0
20
-18800.0
30
0
11
11800.0
21
-18600.0
31
0
0
TEXT
8
DIM
10
12250.0
20
-18580.0
30
0
40
200.0
1
1100
50
0
72
1
73
2
11
12250.0
21
-18580.0
31
0
0
LINE
8
DIM
10
12700.0
20
-18800.0
30
0
11
12900.0
21
-18600.0
31
0
0
LINE
8
DIM
10
0.0
20
-15800.0
30
0
11
0.0
21
-19515.0
31
0
0
LINE
8
DIM
10
6300.0
20
-15800.0
30
0
11
6300.0
21
-19515.0
31
0
0
LINE
8
DIM
10
12600.0
20
-15800.0
30
0
11
12600.0
21
-19515.0
31
0
0
LINE
8
DIM
10
0.0
20
-19715.0
30
0
11
12600.0
21
-19715.0
31
0
0
LINE
8
DIM
10
-100.0
20
-19815.0
30
0
11
100.0
21
-19615.0
31
0
0
TEXT
8
DIM
10
3150.0
20
-19595.0
30
0
40
200.0
1
6300
50
0
72
1
73
2
11
3150.0
21
-19595.0
31
0
0
LINE
8
DIM
10
6200.0
20
-19815.0
30
0
11
6400.0
21
-19615.0
31
0
0
TEXT
8
DIM
10
9450.0
20
-19595.0
30
0
40
200.0
1
6300
50
0
72
1
73
2
11
9450.0
21
-19595.0
31
0
0
LINE
8
DIM
10
12500.0
20
-19815.0
30
0
11
12700.0
21
-19615.0
31
0
0
LINE
8
DIM
10
-200.0
20
-15800.0
30
0
11
-200.0
21
-20530.0
31
0
0
LINE
8
DIM
10
12800.0
20
-15800.0
30
0
11
12800.0
21
-20530.0
31
0
0
LINE
8
DIM
10
-200.0
20
-20730.0
30
0
11
12800.0
21
-20730.0
31
0
0
LINE
8
DIM
10
-300.0
20
-20830.0
30
0
11
-100.0
21
-20630.0
31
0
0
TEXT
8
DIM
10
6300.0
20
-20610.0
30
0
40
200.0
1
13000
50
0
72
1
73
2
11
6300.0
21
-20610.0
31
0
0
LINE
8
DIM
10
12700.0
20
-20830.0
30
0
11
12900.0
21
-20630.0
31
0
0
LINE
8
DIM
10
-200.0
20
200.0
30
0
11
-3000.0
21
200.0
31
0
0
LINE
8
DIM
10
-200.0
20
-1500.0
30
0
11
-3000.0
21
-1500.0
31
0
0
LINE
8
DIM
10
-200.0
20
-3000.0
30
0
11
-3000.0
21
-3000.0
31
0
0
LINE
8
DIM
10
-200.0
20
-5500.0
30
0
11
-3000.0
21
-5500.0
31
0
0
LINE
8
DIM
10
-200.0
20
-6400.0
30
0
11
-3000.0
21
-6400.0
31
0
0
LINE
8
DIM
10
-200.0
20
-8300.0
30
0
11
-3000.0
21
-8300.0
31
0
0
LINE
8
DIM
10
-200.0
20
-9200.0
30
0
11
-3000.0
21
-9200.0
31
0
0
LINE
8
DIM
10
-200.0
20
-10100.0
30
0
11
-3000.0
21
-10100.0
31
0
0
LINE
8
DIM
10
-200.0
20
-11000.0
30
0
11
-3000.0
21
-11000.0
31
0
0
LINE
8
DIM
10
-200.0
20
-12800.0
30
0
11
-3000.0
21
-12800.0
31
0
0
LINE
8
DIM
10
-200.0
20
-14300.0
30
0
11
-3000.0
21
-14300.0
31
0
0
LINE
8
DIM
10
-200.0
20
-15800.0
30
0
11
-3000.0
21
-15800.0
31
0
0
LINE
8
DIM
10
-2800.0
20
200.0
30
0
11
-2800.0
21
-15800.0
31
0
0
LINE
8
DIM
10
-2900.0
20
100.0
30
0
11
-2700.0
21
300.0
31
0
0
TEXT
8
DIM
10
-2920.0
20
-650.0
30
0
40
200.0
1
1700
50
90
72
1
73
2
11
-2920.0
21
-650.0
31
0
0
LINE
8
DIM
10
-2900.0
20
-1600.0
30
0
11
-2700.0
21
-1400.0
31
0
0
TEXT
8
DIM
10
-2920.0
20
-2250.0
30
0
40
200.0
1
1500
50
90
72
1
73
2
11
-2920.0
21
-2250.0
31
0
0
LINE
8
DIM
10
-2900.0
20
-3100.0
30
0
11
-2700.0
21
-2900.0
31
0
0
TEXT
8
DIM
10
-2920.0
20
-4250.0
30
0
40
200.0
1
2500
50
90
72
1
73
2
11
-2920.0
21
-4250.0
31
0
0
LINE
8
DIM
10
-2900.0
20
-5600.0
30
0
11
-2700.0
21
-5400.0
31
0
0
TEXT
8
DIM
10
-2920.0
20
-5950.0
30
0
40
200.0
1
900
50
90
72
1
73
2
11
-2920.0
21
-5950.0
31
0
0
LINE
8
DIM
10
-2900.0
20
-6500.0
30
0
11
-2700.0
21
-6300.0
31
0
0
TEXT
8
DIM
10
-2920.0
20
-7350.0
30
0
40
200.0
1
1900
50
90
72
1
73
2
11
-2920.0
21
-7350.0
31
0
0
LINE
8
DIM
10
-2900.0
20
-8400.0
30
0
11
-2700.0
21
-8200.0
31
0
0
TEXT
8
DIM
10
-2920.0
20
-8750.0
30
0
40
200.0
1
900
50
90
72
1
73
2
11
-2920.0
21
-8750.0
31
0
0
LINE
8
DIM
10
-2900.0
20
-9300.0
30
0
11
-2700.0
21
-9100.0
31
0
0
TEXT
8
DIM
10
-2920.0
20
-9650.0
30
0
40
200.0
1
900
50
90
72
1
73
2
11
-2920.0
21
-9650.0
31
0
0
LINE
8
DIM
10
-2900.0
20
-10200.0
30
0
11
-2700.0
21
-10000.0
31
0
0
TEXT
8
DIM
10
-2920.0
20
-10550.0
30
0
40
200.0
1
900
50
90
72
1
73
2
11
-2920.0
21
-10550.0
31
0
0
LINE
8
DIM
10
-2900.0
20
-11100.0
30
0
11
-2700.0
21
-10900.0
31
0
0
TEXT
8
DIM
10
-2920.0
20
-11900.0
30
0
40
200.0
1
1800
50
90
72
1
73
2
11
-2920.0
21
-11900.0
31
0
0
LINE
8
DIM
10
-2900.0
20
-12900.0
30
0
11
-2700.0
21
-12700.0
31
0
0
TEXT
8
DIM
10
-2920.0
20
-13550.0
30
0
40
200.0
1
1500
50
90
72
1
73
2
11
-2920.0
21
-13550.0
31
0
0
LINE
8
DIM
10
-2900.0
20
-14400.0
30
0
11
-2700.0
21
-14200.0
31
0
0
TEXT
8
DIM
10
-2920.0
20
-15050.0
30
0
40
200.0
1
1500
50
90
72
1
73
2
11
-2920.0
21
-15050.0
31
0
0
LINE
8
DIM
10
-2900.0
20
-15900.0
30
0
11
-2700.0
21
-15700.0
31
0
0
LINE
8
DIM
10
-200.0
20
-0.0
30
0
11
-3910.0
21
-0.0
31
0
0
LINE
8
DIM
10
-200.0
20
-15600.0
30
0
11
-3910.0
21
-15600.0
31
0
0
LINE
8
DIM
10
-3710.0
20
-0.0
30
0
11
-3710.0
21
-15600.0
31
0
0
LINE
8
DIM
10
-3810.0
20
-100.0
30
0
11
-3610.0
21
100.0
31
0
0
TEXT
8
DIM
10
-3830.0
20
-7800.0
30
0
40
200.0
1
15600
50
90
72
1
73
2
11
-3830.0
21
-7800.0
31
0
0
LINE
8
DIM
10
-3810.0
20
-15700.0
30
0
11
-3610.0
21
-15500.0
31
0
0
LINE
8
DIM
10
-200.0
20
200.0
30
0
11
-4820.0
21
200.0
31
0
0
LINE
8
DIM
10
-200.0
20
-15800.0
30
0
11
-4820.0
21
-15800.0
31
0
0
LINE
8
DIM
10
-4620.0
20
200.0
30
0
11
-4620.0
21
-15800.0
31
0
0
LINE
8
DIM
10
-4720.0
20
100.0
30
0
11
-4520.0
21
300.0
31
0
0
TEXT
8
DIM
10
-4740.0
20
-7800.0
30
0
40
200.0
1
16000
50
90
72
1
73
2
11
-4740.0
21
-7800.0
31
0
0
LINE
8
DIM
10
-4720.0
20
-15900.0
30
0
11
-4520.0
21
-15700.0
31
0
0
LINE
8
DIM
10
12800.0
20
200.0
30
0
11
15600.0
21
200.0
31
0
0
LINE
8
DIM
10
12800.0
20
-2400.0
30
0
11
15600.0
21
-2400.0
31
0
0
LINE
8
DIM
10
12800.0
20
-3600.0
30
0
11
15600.0
21
-3600.0
31
0
0
LINE
8
DIM
10
12800.0
20
-4900.0
30
0
11
15600.0
21
-4900.0
31
0
0
LINE
8
DIM
10
12800.0
20
-5500.0
30
0
11
15600.0
21
-5500.0
31
0
0
LINE
8
DIM
10
12800.0
20
-12400.0
30
0
11
15600.0
21
-12400.0
31
0
0
LINE
8
DIM
10
12800.0
20
-13900.0
30
0
11
15600.0
21
-13900.0
31
0
0
LINE
8
DIM
10
12800.0
20
-15800.0
30
0
11
15600.0
21
-15800.0
31
0
0
LINE
8
DIM
10
15400.0
20
200.0
30
0
11
15400.0
21
-15800.0
31
0
0
LINE
8
DIM
10
15300.0
20
100.0
30
0
11
15500.0
21
300.0
31
0
0
TEXT
8
DIM
10
15280.0
20
-1100.0
30
0
40
200.0
1
2600
50
90
72
1
73
2
11
15280.0
21
-1100.0
31
0
0
LINE
8
DIM
10
15300.0
20
-2500.0
30
0
11
15500.0
21
-2300.0
31
0
0
TEXT
8
DIM
10
15280.0
20
-3000.0
30
0
40
200.0
1
1200
50
90
72
1
73
2
11
15280.0
21
-3000.0
31
0
0
LINE
8
DIM
10
15300.0
20
-3700.0
30
0
11
15500.0
21
-3500.0
31
0
0
TEXT
8
DIM
10
15280.0
20
-4250.0
30
0
40
200.0
1
1300
50
90
72
1
73
2
11
15280.0
21
-4250.0
31
0
0
LINE
8
DIM
10
15300.0
20
-5000.0
30
0
11
15500.0
21
-4800.0
31
0
0
TEXT
8
DIM
10
15280.0
20
-5200.0
30
0
40
200.0
1
600
50
90
72
1
73
2
11
15280.0
21
-5200.0
31
0
0
LINE
8
DIM
10
15300.0
20
-5600.0
30
0
11
15500.0
21
-5400.0
31
0
0
TEXT
8
DIM
10
15280.0
20
-8950.0
30
0
40
200.0
1
6900
50
90
72
1
73
2
11
15280.0
21
-8950.0
31
0
0
LINE
8
DIM
10
15300.0
20
-12500.0
30
0
11
15500.0
21
-12300.0
31
0
0
TEXT
8
DIM
10
15280.0
20
-13150.0
30
0
40
200.0
1
1500
50
90
72
1
73
2
11
15280.0
21
-13150.0
31
0
0
LINE
8
DIM
10
15300.0
20
-14000.0
30
0
11
15500.0
21
-13800.0
31
0
0
TEXT
8
DIM
10
15280.0
20
-14850.0
30
0
40
200.0
1
1900
50
90
72
1
73
2
11
15280.0
21
-14850.0
31
0
0
LINE
8
DIM
10
15300.0
20
-15900.0
30
0
11
15500.0
21
-15700.0
31
0
0
LINE
8
DIM
10
12800.0
20
-0.0
30
0
11
16510.0
21
-0.0
31
0
0
LINE
8
DIM
10
12800.0
20
-15600.0
30
0
11
16510.0
21
-15600.0
31
0
0
LINE
8
DIM
10
16310.0
20
-0.0
30
0
11
16310.0
21
-15600.0
31
0
0
LINE
8
DIM
10
16210.0
20
-100.0
30
0
11
16410.0
21
100.0
31
0
0
TEXT
8
DIM
10
16190.0
20
-7800.0
30
0
40
200.0
1
15600
50
90
72
1
73
2
11
16190.0
21
-7800.0
31
0
0
LINE
8
DIM
10
16210.0
20
-15700.0
30
0
11
16410.0
21
-15500.0
31
0
0
LINE
8
DIM
10
12800.0
20
200.0
30
0
11
17420.0
21
200.0
31
0
0
LINE
8
DIM
10
12800.0
20
-15800.0
30
0
11
17420.0
21
-15800.0
31
0
0
LINE
8
DIM
10
17220.0
20
200.0
30
0
11
17220.0
21
-15800.0
31
0
0
LINE
8
DIM
10
17120.0
20
100.0
30
0
11
17320.0
21
300.0
31
0
0
TEXT
8
DIM
10
17100.0
20
-7800.0
30
0
40
200.0
1
16000
50
90
72
1
73
2
11
17100.0
21
-7800.0
31
0
0
LINE
8
DIM
10
17120.0
20
-15900.0
30
0
11
17320.0
21
-15700.0
31
0
0
POLYLINE
8
OUTDOOR
66
1
70
1
0
VERTEX
8
OUTDOOR
10
0.0
20
-15800.0
30
0
0
VERTEX
8
OUTDOOR
10
12600.0
20
-15800.0
30
0
0
VERTEX
8
OUTDOOR
10
12600.0
20
-18800.0
30
0
0
VERTEX
8
OUTDOOR
10
0.0
20
-18800.0
30
0
0
SEQEND
8
OUTDOOR
0
POLYLINE
8
OUTDOOR
66
1
70
1
0
VERTEX
8
OUTDOOR
10
6200.0
20
1800.0
30
0
0
VERTEX
8
OUTDOOR
10
8600.0
20
1800.0
30
0
0
VERTEX
8
OUTDOOR
10
8600.0
20
200.0
30
0
0
VERTEX
8
OUTDOOR
10
6200.0
20
200.0
30
0
0
SEQEND
8
OUTDOOR
0
POLYLINE
8
OUTDOOR
66
1
70
1
0
VERTEX
8
OUTDOOR
10
5900.0
20
2200.0
30
0
0
VERTEX
8
OUTDOOR
10
8900.0
20
2200.0
30
0
0
VERTEX
8
OUTDOOR
10
8900.0
20
200.0
30
0
0
VERTEX
8
OUTDOOR
10
5900.0
20
200.0
30
0
0
SEQEND
8
OUTDOOR
0
TEXT
8
TEXT
10
6300.0
20
3600.0
30
0
40
400.0
1
План 2-го этажа на отм. +3,300. Размеры в мм.
50
0
72
1
73
2
11
6300.0
21
3600.0
31
0
0
ENDSEC
0
EOF
