0
SECTION
2
HEADER
9
$ACADVER
1
AC1009
9
$DWGCODEPAGE
3
ANSI_1251
9
$INSUNITS
70
4
0
ENDSEC
0
SECTION
2
TABLES
0
TABLE
2
LAYER
70
19
0
LAYER
2
WALLS
70
0
62
7
6
CONTINUOUS
0
LAYER
2
WALLS_INT
70
0
62
8
6
CONTINUOUS
0
LAYER
2
OPENINGS
70
0
62
7
6
CONTINUOUS
0
LAYER
2
WINDOWS
70
0
62
5
6
CONTINUOUS
0
LAYER
2
DOORS
70
0
62
3
6
CONTINUOUS
0
LAYER
2
AXES
70
0
62
1
6
CONTINUOUS
0
LAYER
2
DIM
70
0
62
4
6
CONTINUOUS
0
LAYER
2
TEXT
70
0
62
7
6
CONTINUOUS
0
LAYER
2
STAIR
70
0
62
6
6
CONTINUOUS
0
LAYER
2
VENT
70
0
62
2
6
CONTINUOUS
0
LAYER
2
OUTDOOR
70
0
62
8
6
CONTINUOUS
0
LAYER
2
FURN
70
0
62
9
6
CONTINUOUS
0
LAYER
2
SITE
70
0
62
3
6
CONTINUOUS
0
LAYER
2
WATER
70
0
62
5
6
CONTINUOUS
0
LAYER
2
SEWER
70
0
62
30
6
CONTINUOUS
0
LAYER
2
GAS
70
0
62
2
6
CONTINUOUS
0
LAYER
2
POWER
70
0
62
1
6
CONTINUOUS
0
LAYER
2
ROOF
70
0
62
8
6
CONTINUOUS
0
LAYER
2
REBAR
70
0
62
1
6
CONTINUOUS
0
ENDTAB
0
ENDSEC
0
SECTION
2
ENTITIES
0
POLYLINE
8
WALLS
66
1
70
1
0
VERTEX
8
WALLS
10
0.0
20
0.0
30
0
0
VERTEX
8
WALLS
10
16000.0
20
0.0
30
0
0
VERTEX
8
WALLS
10
16000.0
20
6273.6
30
0
0
VERTEX
8
WALLS
10
0.0
20
6273.6
30
0
0
SEQEND
8
WALLS
0
POLYLINE
8
ROOF
66
1
70
1
0
VERTEX
8
ROOF
10
-500.0
20
6273.6
30
0
0
VERTEX
8
ROOF
10
16500.0
20
6273.6
30
0
0
VERTEX
8
ROOF
10
16500.0
20
6553.6
30
0
0
VERTEX
8
ROOF
10
-500.0
20
6553.6
30
0
0
SEQEND
8
ROOF
0
POLYLINE
8
ROOF
66
1
70
1
0
VERTEX
8
ROOF
10
-500.0
20
6553.6
30
0
0
VERTEX
8
ROOF
10
16500.0
20
6553.6
30
0
0
VERTEX
8
ROOF
10
16500.0
20
10652.8
30
0
0
VERTEX
8
ROOF
10
-500.0
20
10652.8
30
0
0
SEQEND
8
ROOF
0
POLYLINE
8
WALLS
66
1
70
1
0
VERTEX
8
WALLS
10
0.0
20
-450.0
30
0
0
VERTEX
8
WALLS
10
16000.0
20
-450.0
30
0
0
VERTEX
8
WALLS
10
16000.0
20
0.0
30
0
0
VERTEX
8
WALLS
10
0.0
20
0.0
30
0
0
SEQEND
8
WALLS
0
POLYLINE
8
WINDOWS
66
1
70
1
0
VERTEX
8
WINDOWS
10
11600.0
20
1000.0
30
0
0
VERTEX
8
WINDOWS
10
13400.0
20
1000.0
30
0
0
VERTEX
8
WINDOWS
10
13400.0
20
2500.0
30
0
0
VERTEX
8
WINDOWS
10
11600.0
20
2500.0
30
0
0
SEQEND
8
WINDOWS
0
POLYLINE
8
WINDOWS
66
1
70
1
0
VERTEX
8
WINDOWS
10
8000.0
20
1000.0
30
0
0
VERTEX
8
WINDOWS
10
9500.0
20
1000.0
30
0
0
VERTEX
8
WINDOWS
10
9500.0
20
2500.0
30
0
0
VERTEX
8
WINDOWS
10
8000.0
20
2500.0
30
0
0
SEQEND
8
WINDOWS
0
POLYLINE
8
WINDOWS
66
1
70
1
0
VERTEX
8
WINDOWS
10
2700.0
20
1750.0
30
0
0
VERTEX
8
WINDOWS
10
3700.0
20
1750.0
30
0
0
VERTEX
8
WINDOWS
10
3700.0
20
2500.0
30
0
0
VERTEX
8
WINDOWS
10
2700.0
20
2500.0
30
0
0
SEQEND
8
WINDOWS
0
POLYLINE
8
WINDOWS
66
1
70
1
0
VERTEX
8
WINDOWS
10
13000.0
20
4300.0
30
0
0
VERTEX
8
WINDOWS
10
14500.0
20
4300.0
30
0
0
VERTEX
8
WINDOWS
10
14500.0
20
5800.0
30
0
0
VERTEX
8
WINDOWS
10
13000.0
20
5800.0
30
0
0
SEQEND
8
WINDOWS
0
POLYLINE
8
WINDOWS
66
1
70
1
0
VERTEX
8
WINDOWS
10
10300.0
20
4550.0
30
0
0
VERTEX
8
WINDOWS
10
11200.0
20
4550.0
30
0
0
VERTEX
8
WINDOWS
10
11200.0
20
5800.0
30
0
0
VERTEX
8
WINDOWS
10
10300.0
20
5800.0
30
0
0
SEQEND
8
WINDOWS
0
POLYLINE
8
WINDOWS
66
1
70
1
0
VERTEX
8
WINDOWS
10
8500.0
20
4300.0
30
0
0
VERTEX
8
WINDOWS
10
9400.0
20
4300.0
30
0
0
VERTEX
8
WINDOWS
10
9400.0
20
5800.0
30
0
0
VERTEX
8
WINDOWS
10
8500.0
20
5800.0
30
0
0
SEQEND
8
WINDOWS
0
POLYLINE
8
WINDOWS
66
1
70
1
0
VERTEX
8
WINDOWS
10
5700.0
20
4550.0
30
0
0
VERTEX
8
WINDOWS
10
6600.0
20
4550.0
30
0
0
VERTEX
8
WINDOWS
10
6600.0
20
5800.0
30
0
0
VERTEX
8
WINDOWS
10
5700.0
20
5800.0
30
0
0
SEQEND
8
WINDOWS
0
POLYLINE
8
WINDOWS
66
1
70
1
0
VERTEX
8
WINDOWS
10
1700.0
20
4300.0
30
0
0
VERTEX
8
WINDOWS
10
3200.0
20
4300.0
30
0
0
VERTEX
8
WINDOWS
10
3200.0
20
5800.0
30
0
0
VERTEX
8
WINDOWS
10
1700.0
20
5800.0
30
0
0
SEQEND
8
WINDOWS
0
LINE
8
SITE
10
-2000.0
20
-450.0
30
0
11
18000.0
21
-450.0
31
0
0
CIRCLE
8
AXES
10
200.0
20
-1750.0
30
0
40
400.0
0
TEXT
8
AXES
10
200.0
20
-1750.0
30
0
40
350.0
1
А
50
0
72
1
73
2
11
200.0
21
-1750.0
31
0
0
CIRCLE
8
AXES
10
15800.0
20
-1750.0
30
0
40
400.0
0
TEXT
8
AXES
10
15800.0
20
-1750.0
30
0
40
350.0
1
Б
50
0
72
1
73
2
11
15800.0
21
-1750.0
31
0
0
TEXT
8
TEXT
10
8000.0
20
11652.8
30
0
40
400.0
1
Фасад А-Б (западный)
50
0
72
1
73
2
11
8000.0
21
11652.8
31
0
0
POLYLINE
8
WALLS
66
1
70
1
0
VERTEX
8
WALLS
10
38000.0
20
0.0
30
0
0
VERTEX
8
WALLS
10
22000.0
20
0.0
30
0
0
VERTEX
8
WALLS
10
22000.0
20
6273.6
30
0
0
VERTEX
8
WALLS
10
38000.0
20
6273.6
30
0
0
SEQEND
8
WALLS
0
POLYLINE
8
ROOF
66
1
70
1
0
VERTEX
8
ROOF
10
38500.0
20
6273.6
30
0
0
VERTEX
8
ROOF
10
21500.0
20
6273.6
30
0
0
VERTEX
8
ROOF
10
21500.0
20
6553.6
30
0
0
VERTEX
8
ROOF
10
38500.0
20
6553.6
30
0
0
SEQEND
8
ROOF
0
POLYLINE
8
ROOF
66
1
70
1
0
VERTEX
8
ROOF
10
38500.0
20
6553.6
30
0
0
VERTEX
8
ROOF
10
21500.0
20
6553.6
30
0
0
VERTEX
8
ROOF
10
21500.0
20
10652.8
30
0
0
VERTEX
8
ROOF
10
38500.0
20
10652.8
30
0
0
SEQEND
8
ROOF
0
POLYLINE
8
WALLS
66
1
70
1
0
VERTEX
8
WALLS
10
38000.0
20
-450.0
30
0
0
VERTEX
8
WALLS
10
22000.0
20
-450.0
30
0
0
VERTEX
8
WALLS
10
22000.0
20
0.0
30
0
0
VERTEX
8
WALLS
10
38000.0
20
0.0
30
0
0
SEQEND
8
WALLS
0
POLYLINE
8
WINDOWS
66
1
70
1
0
VERTEX
8
WINDOWS
10
35400.0
20
1000.0
30
0
0
VERTEX
8
WINDOWS
10
34200.0
20
1000.0
30
0
0
VERTEX
8
WINDOWS
10
34200.0
20
2500.0
30
0
0
VERTEX
8
WINDOWS
10
35400.0
20
2500.0
30
0
0
SEQEND
8
WINDOWS
0
POLYLINE
8
WINDOWS
66
1
70
1
0
VERTEX
8
WINDOWS
10
33200.0
20
1500.0
30
0
0
VERTEX
8
WINDOWS
10
32600.0
20
1500.0
30
0
0
VERTEX
8
WINDOWS
10
32600.0
20
2500.0
30
0
0
VERTEX
8
WINDOWS
10
33200.0
20
2500.0
30
0
0
SEQEND
8
WINDOWS
0
POLYLINE
8
WINDOWS
66
1
70
1
0
VERTEX
8
WINDOWS
10
28800.0
20
750.0
30
0
0
VERTEX
8
WINDOWS
10
27000.0
20
750.0
30
0
0
VERTEX
8
WINDOWS
10
27000.0
20
2500.0
30
0
0
VERTEX
8
WINDOWS
10
28800.0
20
2500.0
30
0
0
SEQEND
8
WINDOWS
0
POLYLINE
8
WINDOWS
66
1
70
1
0
VERTEX
8
WINDOWS
10
25400.0
20
750.0
30
0
0
VERTEX
8
WINDOWS
10
23600.0
20
750.0
30
0
0
VERTEX
8
WINDOWS
10
23600.0
20
2500.0
30
0
0
VERTEX
8
WINDOWS
10
25400.0
20
2500.0
30
0
0
SEQEND
8
WINDOWS
0
POLYLINE
8
WINDOWS
66
1
70
1
0
VERTEX
8
WINDOWS
10
35400.0
20
4300.0
30
0
0
VERTEX
8
WINDOWS
10
34200.0
20
4300.0
30
0
0
VERTEX
8
WINDOWS
10
34200.0
20
5800.0
30
0
0
VERTEX
8
WINDOWS
10
35400.0
20
5800.0
30
0
0
SEQEND
8
WINDOWS
0
POLYLINE
8
WINDOWS
66
1
70
1
0
VERTEX
8
WINDOWS
10
32900.0
20
4800.0
30
0
0
VERTEX
8
WINDOWS
10
32300.0
20
4800.0
30
0
0
VERTEX
8
WINDOWS
10
32300.0
20
5800.0
30
0
0
VERTEX
8
WINDOWS
10
32900.0
20
5800.0
30
0
0
SEQEND
8
WINDOWS
0
POLYLINE
8
WINDOWS
66
1
70
1
0
VERTEX
8
WINDOWS
10
25400.0
20
4300.0
30
0
0
VERTEX
8
WINDOWS
10
23900.0
20
4300.0
30
0
0
VERTEX
8
WINDOWS
10
23900.0
20
5800.0
30
0
0
VERTEX
8
WINDOWS
10
25400.0
20
5800.0
30
0
0
SEQEND
8
WINDOWS
0
LINE
8
SITE
10
20000.0
20
-450.0
30
0
11
40000.0
21
-450.0
31
0
0
CIRCLE
8
AXES
10
37800.0
20
-1750.0
30
0
40
400.0
0
TEXT
8
AXES
10
37800.0
20
-1750.0
30
0
40
350.0
1
А
50
0
72
1
73
2
11
37800.0
21
-1750.0
31
0
0
CIRCLE
8
AXES
10
22200.0
20
-1750.0
30
0
40
400.0
0
TEXT
8
AXES
10
22200.0
20
-1750.0
30
0
40
350.0
1
Б
50
0
72
1
73
2
11
22200.0
21
-1750.0
31
0
0
TEXT
8
TEXT
10
30000.0
20
11652.8
30
0
40
400.0
1
Фасад Б-А (восточный)
50
0
72
1
73
2
11
30000.0
21
11652.8
31
0
0
ENDSEC
0
EOF
