0
SECTION
2
HEADER
9
$ACADVER
1
AC1009
9
$DWGCODEPAGE
3
ANSI_1251
9
$INSUNITS
70
4
0
ENDSEC
0
SECTION
2
TABLES
0
TABLE
2
LAYER
70
19
0
LAYER
2
WALLS
70
0
62
7
6
CONTINUOUS
0
LAYER
2
WALLS_INT
70
0
62
8
6
CONTINUOUS
0
LAYER
2
OPENINGS
70
0
62
7
6
CONTINUOUS
0
LAYER
2
WINDOWS
70
0
62
5
6
CONTINUOUS
0
LAYER
2
DOORS
70
0
62
3
6
CONTINUOUS
0
LAYER
2
AXES
70
0
62
1
6
CONTINUOUS
0
LAYER
2
DIM
70
0
62
4
6
CONTINUOUS
0
LAYER
2
TEXT
70
0
62
7
6
CONTINUOUS
0
LAYER
2
STAIR
70
0
62
6
6
CONTINUOUS
0
LAYER
2
VENT
70
0
62
2
6
CONTINUOUS
0
LAYER
2
OUTDOOR
70
0
62
8
6
CONTINUOUS
0
LAYER
2
FURN
70
0
62
9
6
CONTINUOUS
0
LAYER
2
SITE
70
0
62
3
6
CONTINUOUS
0
LAYER
2
WATER
70
0
62
5
6
CONTINUOUS
0
LAYER
2
SEWER
70
0
62
30
6
CONTINUOUS
0
LAYER
2
GAS
70
0
62
2
6
CONTINUOUS
0
LAYER
2
POWER
70
0
62
1
6
CONTINUOUS
0
LAYER
2
ROOF
70
0
62
8
6
CONTINUOUS
0
LAYER
2
REBAR
70
0
62
1
6
CONTINUOUS
0
ENDTAB
0
ENDSEC
0
SECTION
2
ENTITIES
0
LINE
8
WALLS
10
-200.0
20
200.0
30
0
11
550.0
21
200.0
31
0
0
LINE
8
WALLS
10
3550.0
20
200.0
30
0
11
4800.0
21
200.0
31
0
0
LINE
8
WALLS
10
5600.0
20
200.0
30
0
11
6900.0
21
200.0
31
0
0
LINE
8
WALLS
10
7900.0
20
200.0
30
0
11
8800.0
21
200.0
31
0
0
LINE
8
WALLS
10
10000.0
20
200.0
30
0
11
12800.0
21
200.0
31
0
0
LINE
8
WALLS
10
200.0
20
-200.0
30
0
11
550.0
21
-200.0
31
0
0
LINE
8
WALLS
10
3550.0
20
-200.0
30
0
11
4800.0
21
-200.0
31
0
0
LINE
8
WALLS
10
5600.0
20
-200.0
30
0
11
6900.0
21
-200.0
31
0
0
LINE
8
WALLS
10
7900.0
20
-200.0
30
0
11
8800.0
21
-200.0
31
0
0
LINE
8
WALLS
10
10000.0
20
-200.0
30
0
11
12400.0
21
-200.0
31
0
0
LINE
8
OPENINGS
10
4800.0
20
200.0
30
0
11
4800.0
21
-200.0
31
0
0
LINE
8
OPENINGS
10
5600.0
20
200.0
30
0
11
5600.0
21
-200.0
31
0
0
LINE
8
WINDOWS
10
4800.0
20
100.0
30
0
11
5600.0
21
100.0
31
0
0
LINE
8
WINDOWS
10
4800.0
20
40.0
30
0
11
5600.0
21
40.0
31
0
0
TEXT
8
TEXT
10
5200.0
20
650.0
30
0
40
180.0
1
ОК-4б
50
0
72
1
73
2
11
5200.0
21
650.0
31
0
0
LINE
8
OPENINGS
10
8800.0
20
200.0
30
0
11
8800.0
21
-200.0
31
0
0
LINE
8
OPENINGS
10
10000.0
20
200.0
30
0
11
10000.0
21
-200.0
31
0
0
LINE
8
WINDOWS
10
8800.0
20
100.0
30
0
11
10000.0
21
100.0
31
0
0
LINE
8
WINDOWS
10
8800.0
20
40.0
30
0
11
10000.0
21
40.0
31
0
0
TEXT
8
TEXT
10
9400.0
20
650.0
30
0
40
180.0
1
ОК-3
50
0
72
1
73
2
11
9400.0
21
650.0
31
0
0
LINE
8
OPENINGS
10
6900.0
20
200.0
30
0
11
6900.0
21
-200.0
31
0
0
LINE
8
OPENINGS
10
7900.0
20
200.0
30
0
11
7900.0
21
-200.0
31
0
0
TEXT
8
TEXT
10
7400.0
20
650.0
30
0
40
180.0
1
ДН-1
50
0
72
1
73
2
11
7400.0
21
650.0
31
0
0
LINE
8
OPENINGS
10
550.0
20
200.0
30
0
11
550.0
21
-200.0
31
0
0
LINE
8
OPENINGS
10
3550.0
20
200.0
30
0
11
3550.0
21
-200.0
31
0
0
TEXT
8
TEXT
10
2050.0
20
650.0
30
0
40
180.0
1
ВС-1
50
0
72
1
73
2
11
2050.0
21
650.0
31
0
0
LINE
8
WALLS
10
-200.0
20
-15800.0
30
0
11
1200.0
21
-15800.0
31
0
0
LINE
8
WALLS
10
3600.0
20
-15800.0
30
0
11
4200.0
21
-15800.0
31
0
0
LINE
8
WALLS
10
5700.0
20
-15800.0
30
0
11
7000.0
21
-15800.0
31
0
0
LINE
8
WALLS
10
10000.0
20
-15800.0
30
0
11
10600.0
21
-15800.0
31
0
0
LINE
8
WALLS
10
12100.0
20
-15800.0
30
0
11
12800.0
21
-15800.0
31
0
0
LINE
8
WALLS
10
200.0
20
-15400.0
30
0
11
1200.0
21
-15400.0
31
0
0
LINE
8
WALLS
10
3600.0
20
-15400.0
30
0
11
4200.0
21
-15400.0
31
0
0
LINE
8
WALLS
10
5700.0
20
-15400.0
30
0
11
7000.0
21
-15400.0
31
0
0
LINE
8
WALLS
10
10000.0
20
-15400.0
30
0
11
10600.0
21
-15400.0
31
0
0
LINE
8
WALLS
10
12100.0
20
-15400.0
30
0
11
12400.0
21
-15400.0
31
0
0
LINE
8
OPENINGS
10
10600.0
20
-15800.0
30
0
11
10600.0
21
-15400.0
31
0
0
LINE
8
OPENINGS
10
12100.0
20
-15800.0
30
0
11
12100.0
21
-15400.0
31
0
0
LINE
8
WINDOWS
10
10600.0
20
-15700.0
30
0
11
12100.0
21
-15700.0
31
0
0
LINE
8
WINDOWS
10
10600.0
20
-15640.0
30
0
11
12100.0
21
-15640.0
31
0
0
TEXT
8
TEXT
10
11350.0
20
-16250.0
30
0
40
180.0
1
ОК-2
50
0
72
1
73
2
11
11350.0
21
-16250.0
31
0
0
LINE
8
OPENINGS
10
4200.0
20
-15800.0
30
0
11
4200.0
21
-15400.0
31
0
0
LINE
8
OPENINGS
10
5700.0
20
-15800.0
30
0
11
5700.0
21
-15400.0
31
0
0
LINE
8
WINDOWS
10
4200.0
20
-15700.0
30
0
11
5700.0
21
-15700.0
31
0
0
LINE
8
WINDOWS
10
4200.0
20
-15640.0
30
0
11
5700.0
21
-15640.0
31
0
0
TEXT
8
TEXT
10
4950.0
20
-16250.0
30
0
40
180.0
1
ОК-6
50
0
72
1
73
2
11
4950.0
21
-16250.0
31
0
0
LINE
8
OPENINGS
10
1200.0
20
-15800.0
30
0
11
1200.0
21
-15400.0
31
0
0
LINE
8
OPENINGS
10
3600.0
20
-15800.0
30
0
11
3600.0
21
-15400.0
31
0
0
TEXT
8
TEXT
10
2400.0
20
-16250.0
30
0
40
180.0
1
ДБ-1
50
0
72
1
73
2
11
2400.0
21
-16250.0
31
0
0
LINE
8
OPENINGS
10
7000.0
20
-15800.0
30
0
11
7000.0
21
-15400.0
31
0
0
LINE
8
OPENINGS
10
10000.0
20
-15800.0
30
0
11
10000.0
21
-15400.0
31
0
0
TEXT
8
TEXT
10
8500.0
20
-16250.0
30
0
40
180.0
1
ДБ-2
50
0
72
1
73
2
11
8500.0
21
-16250.0
31
0
0
LINE
8
WALLS
10
-200.0
20
200.0
30
0
11
-200.0
21
-2500.0
31
0
0
LINE
8
WALLS
10
-200.0
20
-3500.0
30
0
11
-200.0
21
-7800.0
31
0
0
LINE
8
WALLS
10
-200.0
20
-9300.0
30
0
11
-200.0
21
-11400.0
31
0
0
LINE
8
WALLS
10
-200.0
20
-13200.0
30
0
11
-200.0
21
-15800.0
31
0
0
LINE
8
WALLS
10
200.0
20
-200.0
30
0
11
200.0
21
-2500.0
31
0
0
LINE
8
WALLS
10
200.0
20
-3500.0
30
0
11
200.0
21
-7800.0
31
0
0
LINE
8
WALLS
10
200.0
20
-9300.0
30
0
11
200.0
21
-11400.0
31
0
0
LINE
8
WALLS
10
200.0
20
-13200.0
30
0
11
200.0
21
-15400.0
31
0
0
LINE
8
OPENINGS
10
-200.0
20
-11400.0
30
0
11
200.0
21
-11400.0
31
0
0
LINE
8
OPENINGS
10
-200.0
20
-13200.0
30
0
11
200.0
21
-13200.0
31
0
0
LINE
8
WINDOWS
10
-100.0
20
-11400.0
30
0
11
-100.0
21
-13200.0
31
0
0
LINE
8
WINDOWS
10
-40.0
20
-11400.0
30
0
11
-40.0
21
-13200.0
31
0
0
TEXT
8
TEXT
10
-650.0
20
-12300.0
30
0
40
180.0
1
ОК-7
50
90
72
1
73
2
11
-650.0
21
-12300.0
31
0
0
LINE
8
OPENINGS
10
-200.0
20
-7800.0
30
0
11
200.0
21
-7800.0
31
0
0
LINE
8
OPENINGS
10
-200.0
20
-9300.0
30
0
11
200.0
21
-9300.0
31
0
0
LINE
8
WINDOWS
10
-100.0
20
-7800.0
30
0
11
-100.0
21
-9300.0
31
0
0
LINE
8
WINDOWS
10
-40.0
20
-7800.0
30
0
11
-40.0
21
-9300.0
31
0
0
TEXT
8
TEXT
10
-650.0
20
-8550.0
30
0
40
180.0
1
ОК-6
50
90
72
1
73
2
11
-650.0
21
-8550.0
31
0
0
LINE
8
OPENINGS
10
-200.0
20
-2500.0
30
0
11
200.0
21
-2500.0
31
0
0
LINE
8
OPENINGS
10
-200.0
20
-3500.0
30
0
11
200.0
21
-3500.0
31
0
0
LINE
8
WINDOWS
10
-100.0
20
-2500.0
30
0
11
-100.0
21
-3500.0
31
0
0
LINE
8
WINDOWS
10
-40.0
20
-2500.0
30
0
11
-40.0
21
-3500.0
31
0
0
TEXT
8
TEXT
10
-650.0
20
-3000.0
30
0
40
180.0
1
ОК-8
50
90
72
1
73
2
11
-650.0
21
-3000.0
31
0
0
LINE
8
WALLS
10
12800.0
20
200.0
30
0
11
12800.0
21
-2400.0
31
0
0
LINE
8
WALLS
10
12800.0
20
-3600.0
30
0
11
12800.0
21
-4600.0
31
0
0
LINE
8
WALLS
10
12800.0
20
-5200.0
30
0
11
12800.0
21
-9000.0
31
0
0
LINE
8
WALLS
10
12800.0
20
-10800.0
30
0
11
12800.0
21
-12400.0
31
0
0
LINE
8
WALLS
10
12800.0
20
-14200.0
30
0
11
12800.0
21
-15800.0
31
0
0
LINE
8
WALLS
10
12400.0
20
-200.0
30
0
11
12400.0
21
-2400.0
31
0
0
LINE
8
WALLS
10
12400.0
20
-3600.0
30
0
11
12400.0
21
-4600.0
31
0
0
LINE
8
WALLS
10
12400.0
20
-5200.0
30
0
11
12400.0
21
-9000.0
31
0
0
LINE
8
WALLS
10
12400.0
20
-10800.0
30
0
11
12400.0
21
-12400.0
31
0
0
LINE
8
WALLS
10
12400.0
20
-14200.0
30
0
11
12400.0
21
-15400.0
31
0
0
LINE
8
OPENINGS
10
12800.0
20
-2400.0
30
0
11
12400.0
21
-2400.0
31
0
0
LINE
8
OPENINGS
10
12800.0
20
-3600.0
30
0
11
12400.0
21
-3600.0
31
0
0
LINE
8
WINDOWS
10
12700.0
20
-2400.0
30
0
11
12700.0
21
-3600.0
31
0
0
LINE
8
WINDOWS
10
12640.0
20
-2400.0
30
0
11
12640.0
21
-3600.0
31
0
0
TEXT
8
TEXT
10
13250.0
20
-3000.0
30
0
40
180.0
1
ОК-3
50
90
72
1
73
2
11
13250.0
21
-3000.0
31
0
0
LINE
8
OPENINGS
10
12800.0
20
-4600.0
30
0
11
12400.0
21
-4600.0
31
0
0
LINE
8
OPENINGS
10
12800.0
20
-5200.0
30
0
11
12400.0
21
-5200.0
31
0
0
LINE
8
WINDOWS
10
12700.0
20
-4600.0
30
0
11
12700.0
21
-5200.0
31
0
0
LINE
8
WINDOWS
10
12640.0
20
-4600.0
30
0
11
12640.0
21
-5200.0
31
0
0
TEXT
8
TEXT
10
13250.0
20
-4900.0
30
0
40
180.0
1
ОК-5
50
90
72
1
73
2
11
13250.0
21
-4900.0
31
0
0
LINE
8
OPENINGS
10
12800.0
20
-9000.0
30
0
11
12400.0
21
-9000.0
31
0
0
LINE
8
OPENINGS
10
12800.0
20
-10800.0
30
0
11
12400.0
21
-10800.0
31
0
0
LINE
8
WINDOWS
10
12700.0
20
-9000.0
30
0
11
12700.0
21
-10800.0
31
0
0
LINE
8
WINDOWS
10
12640.0
20
-9000.0
30
0
11
12640.0
21
-10800.0
31
0
0
TEXT
8
TEXT
10
13250.0
20
-9900.0
30
0
40
180.0
1
ОК-1
50
90
72
1
73
2
11
13250.0
21
-9900.0
31
0
0
LINE
8
OPENINGS
10
12800.0
20
-12400.0
30
0
11
12400.0
21
-12400.0
31
0
0
LINE
8
OPENINGS
10
12800.0
20
-14200.0
30
0
11
12400.0
21
-14200.0
31
0
0
LINE
8
WINDOWS
10
12700.0
20
-12400.0
30
0
11
12700.0
21
-14200.0
31
0
0
LINE
8
WINDOWS
10
12640.0
20
-12400.0
30
0
11
12640.0
21
-14200.0
31
0
0
TEXT
8
TEXT
10
13250.0
20
-13300.0
30
0
40
180.0
1
ОК-1
50
90
72
1
73
2
11
13250.0
21
-13300.0
31
0
0
LINE
8
WALLS
10
6175.0
20
-200.0
30
0
11
6175.0
21
-600.0
31
0
0
LINE
8
WALLS
10
6425.0
20
-200.0
30
0
11
6425.0
21
-600.0
31
0
0
LINE
8
WALLS
10
6175.0
20
-1500.0
30
0
11
6175.0
21
-3000.0
31
0
0
LINE
8
WALLS
10
6425.0
20
-1500.0
30
0
11
6425.0
21
-3000.0
31
0
0
LINE
8
WALLS
10
6175.0
20
-3900.0
30
0
11
6175.0
21
-8600.0
31
0
0
LINE
8
WALLS
10
6425.0
20
-3900.0
30
0
11
6425.0
21
-8600.0
31
0
0
LINE
8
WALLS
10
6175.0
20
-9500.0
30
0
11
6175.0
21
-11200.0
31
0
0
LINE
8
WALLS
10
6425.0
20
-9500.0
30
0
11
6425.0
21
-11200.0
31
0
0
LINE
8
WALLS
10
6175.0
20
-14200.0
30
0
11
6175.0
21
-15400.0
31
0
0
LINE
8
WALLS
10
6425.0
20
-14200.0
30
0
11
6425.0
21
-15400.0
31
0
0
LINE
8
WALLS
10
6175.0
20
-200.0
30
0
11
6425.0
21
-200.0
31
0
0
LINE
8
WALLS
10
6175.0
20
-15400.0
30
0
11
6425.0
21
-15400.0
31
0
0
LINE
8
WALLS
10
3900.0
20
-200.0
30
0
11
3900.0
21
-4500.0
31
0
0
LINE
8
WALLS
10
4100.0
20
-200.0
30
0
11
4100.0
21
-4500.0
31
0
0
LINE
8
WALLS
10
3900.0
20
-5400.0
30
0
11
3900.0
21
-6600.0
31
0
0
LINE
8
WALLS
10
4100.0
20
-5400.0
30
0
11
4100.0
21
-6600.0
31
0
0
LINE
8
WALLS
10
3900.0
20
-200.0
30
0
11
4100.0
21
-200.0
31
0
0
LINE
8
WALLS
10
3900.0
20
-6600.0
30
0
11
4100.0
21
-6600.0
31
0
0
LINE
8
WALLS
10
200.0
20
-6600.0
30
0
11
6175.0
21
-6600.0
31
0
0
LINE
8
WALLS
10
200.0
20
-6800.0
30
0
11
6175.0
21
-6800.0
31
0
0
LINE
8
WALLS
10
200.0
20
-6600.0
30
0
11
200.0
21
-6800.0
31
0
0
LINE
8
WALLS
10
6175.0
20
-6600.0
30
0
11
6175.0
21
-6800.0
31
0
0
LINE
8
WALLS_INT
10
4100.0
20
-2900.0
30
0
11
6175.0
21
-2900.0
31
0
0
LINE
8
WALLS_INT
10
4100.0
20
-3000.0
30
0
11
6175.0
21
-3000.0
31
0
0
LINE
8
WALLS_INT
10
4100.0
20
-2900.0
30
0
11
4100.0
21
-3000.0
31
0
0
LINE
8
WALLS_INT
10
6175.0
20
-2900.0
30
0
11
6175.0
21
-3000.0
31
0
0
LINE
8
WALLS_INT
10
4000.0
20
-6800.0
30
0
11
4000.0
21
-8600.0
31
0
0
LINE
8
WALLS_INT
10
4150.0
20
-6800.0
30
0
11
4150.0
21
-8600.0
31
0
0
LINE
8
WALLS_INT
10
4000.0
20
-9500.0
30
0
11
4000.0
21
-10250.0
31
0
0
LINE
8
WALLS_INT
10
4150.0
20
-9500.0
30
0
11
4150.0
21
-10250.0
31
0
0
LINE
8
WALLS_INT
10
4000.0
20
-6800.0
30
0
11
4150.0
21
-6800.0
31
0
0
LINE
8
WALLS_INT
10
4000.0
20
-10250.0
30
0
11
4150.0
21
-10250.0
31
0
0
LINE
8
WALLS_INT
10
4150.0
20
-8200.0
30
0
11
4600.0
21
-8200.0
31
0
0
LINE
8
WALLS_INT
10
4150.0
20
-8300.0
30
0
11
4600.0
21
-8300.0
31
0
0
LINE
8
WALLS_INT
10
5400.0
20
-8200.0
30
0
11
6175.0
21
-8200.0
31
0
0
LINE
8
WALLS_INT
10
5400.0
20
-8300.0
30
0
11
6175.0
21
-8300.0
31
0
0
LINE
8
WALLS_INT
10
4150.0
20
-8200.0
30
0
11
4150.0
21
-8300.0
31
0
0
LINE
8
WALLS_INT
10
6175.0
20
-8200.0
30
0
11
6175.0
21
-8300.0
31
0
0
LINE
8
WALLS_INT
10
200.0
20
-10200.0
30
0
11
4600.0
21
-10200.0
31
0
0
LINE
8
WALLS_INT
10
200.0
20
-10350.0
30
0
11
4600.0
21
-10350.0
31
0
0
LINE
8
WALLS_INT
10
5500.0
20
-10200.0
30
0
11
6175.0
21
-10200.0
31
0
0
LINE
8
WALLS_INT
10
5500.0
20
-10350.0
30
0
11
6175.0
21
-10350.0
31
0
0
LINE
8
WALLS_INT
10
200.0
20
-10200.0
30
0
11
200.0
21
-10350.0
31
0
0
LINE
8
WALLS_INT
10
6175.0
20
-10200.0
30
0
11
6175.0
21
-10350.0
31
0
0
LINE
8
WALLS_INT
10
8300.0
20
-200.0
30
0
11
8300.0
21
-2000.0
31
0
0
LINE
8
WALLS_INT
10
8400.0
20
-200.0
30
0
11
8400.0
21
-2000.0
31
0
0
LINE
8
WALLS_INT
10
8300.0
20
-200.0
30
0
11
8400.0
21
-200.0
31
0
0
LINE
8
WALLS_INT
10
8300.0
20
-2000.0
30
0
11
8400.0
21
-2000.0
31
0
0
LINE
8
WALLS_INT
10
6425.0
20
-2000.0
30
0
11
7000.0
21
-2000.0
31
0
0
LINE
8
WALLS_INT
10
6425.0
20
-2100.0
30
0
11
7000.0
21
-2100.0
31
0
0
LINE
8
WALLS_INT
10
7900.0
20
-2000.0
30
0
11
8300.0
21
-2000.0
31
0
0
LINE
8
WALLS_INT
10
7900.0
20
-2100.0
30
0
11
8300.0
21
-2100.0
31
0
0
LINE
8
WALLS_INT
10
6425.0
20
-2000.0
30
0
11
6425.0
21
-2100.0
31
0
0
LINE
8
WALLS_INT
10
8300.0
20
-2000.0
30
0
11
8300.0
21
-2100.0
31
0
0
LINE
8
WALLS_INT
10
10400.0
20
-200.0
30
0
11
10400.0
21
-2000.0
31
0
0
LINE
8
WALLS_INT
10
10500.0
20
-200.0
30
0
11
10500.0
21
-2000.0
31
0
0
LINE
8
WALLS_INT
10
10400.0
20
-200.0
30
0
11
10500.0
21
-200.0
31
0
0
LINE
8
WALLS_INT
10
10400.0
20
-2000.0
30
0
11
10500.0
21
-2000.0
31
0
0
LINE
8
WALLS_INT
10
10500.0
20
-2000.0
30
0
11
10800.0
21
-2000.0
31
0
0
LINE
8
WALLS_INT
10
10500.0
20
-2100.0
30
0
11
10800.0
21
-2100.0
31
0
0
LINE
8
WALLS_INT
10
11600.0
20
-2000.0
30
0
11
12400.0
21
-2000.0
31
0
0
LINE
8
WALLS_INT
10
11600.0
20
-2100.0
30
0
11
12400.0
21
-2100.0
31
0
0
LINE
8
WALLS_INT
10
10500.0
20
-2000.0
30
0
11
10500.0
21
-2100.0
31
0
0
LINE
8
WALLS_INT
10
12400.0
20
-2000.0
30
0
11
12400.0
21
-2100.0
31
0
0
LINE
8
WALLS_INT
10
10400.0
20
-3900.0
30
0
11
12400.0
21
-3900.0
31
0
0
LINE
8
WALLS_INT
10
10400.0
20
-4000.0
30
0
11
12400.0
21
-4000.0
31
0
0
LINE
8
WALLS_INT
10
10400.0
20
-3900.0
30
0
11
10400.0
21
-4000.0
31
0
0
LINE
8
WALLS_INT
10
12400.0
20
-3900.0
30
0
11
12400.0
21
-4000.0
31
0
0
LINE
8
WALLS_INT
10
10400.0
20
-4000.0
30
0
11
10400.0
21
-4300.0
31
0
0
LINE
8
WALLS_INT
10
10500.0
20
-4000.0
30
0
11
10500.0
21
-4300.0
31
0
0
LINE
8
WALLS_INT
10
10400.0
20
-5100.0
30
0
11
10400.0
21
-6600.0
31
0
0
LINE
8
WALLS_INT
10
10500.0
20
-5100.0
30
0
11
10500.0
21
-6600.0
31
0
0
LINE
8
WALLS_INT
10
10400.0
20
-7400.0
30
0
11
10400.0
21
-8000.0
31
0
0
LINE
8
WALLS_INT
10
10500.0
20
-7400.0
30
0
11
10500.0
21
-8000.0
31
0
0
LINE
8
WALLS_INT
10
10400.0
20
-4000.0
30
0
11
10500.0
21
-4000.0
31
0
0
LINE
8
WALLS_INT
10
10400.0
20
-8000.0
30
0
11
10500.0
21
-8000.0
31
0
0
LINE
8
WALLS_INT
10
10500.0
20
-6100.0
30
0
11
12400.0
21
-6100.0
31
0
0
LINE
8
WALLS_INT
10
10500.0
20
-6200.0
30
0
11
12400.0
21
-6200.0
31
0
0
LINE
8
WALLS_INT
10
10500.0
20
-6100.0
30
0
11
10500.0
21
-6200.0
31
0
0
LINE
8
WALLS_INT
10
12400.0
20
-6100.0
30
0
11
12400.0
21
-6200.0
31
0
0
LINE
8
WALLS_INT
10
10400.0
20
-8000.0
30
0
11
12400.0
21
-8000.0
31
0
0
LINE
8
WALLS_INT
10
10400.0
20
-8100.0
30
0
11
12400.0
21
-8100.0
31
0
0
LINE
8
WALLS_INT
10
10400.0
20
-8000.0
30
0
11
10400.0
21
-8100.0
31
0
0
LINE
8
WALLS_INT
10
12400.0
20
-8000.0
30
0
11
12400.0
21
-8100.0
31
0
0
LINE
8
WALLS_INT
10
6425.0
20
-8000.0
30
0
11
8925.0
21
-8000.0
31
0
0
LINE
8
WALLS_INT
10
6425.0
20
-8100.0
30
0
11
8925.0
21
-8100.0
31
0
0
LINE
8
WALLS_INT
10
6425.0
20
-8000.0
30
0
11
6425.0
21
-8100.0
31
0
0
LINE
8
WALLS_INT
10
8925.0
20
-8000.0
30
0
11
8925.0
21
-8100.0
31
0
0
LINE
8
OPENINGS
10
6175.0
20
-600.0
30
0
11
6425.0
21
-600.0
31
0
0
LINE
8
OPENINGS
10
6175.0
20
-1500.0
30
0
11
6425.0
21
-1500.0
31
0
0
LINE
8
DOORS
10
6425.0
20
-600.0
30
0
11
7325.0
21
-600.0
31
0
0
ARC
8
DOORS
10
6425.0
20
-600.0
30
0
40
900.0
50
-90.00
51
0.00
0
TEXT
8
TEXT
10
6300.0
20
-1050.0
30
0
40
150.0
1
Д-2
50
90
72
1
73
2
11
6300.0
21
-1050.0
31
0
0
LINE
8
OPENINGS
10
6175.0
20
-3000.0
30
0
11
6425.0
21
-3000.0
31
0
0
LINE
8
OPENINGS
10
6175.0
20
-3900.0
30
0
11
6425.0
21
-3900.0
31
0
0
LINE
8
DOORS
10
6425.0
20
-3900.0
30
0
11
7325.0
21
-3900.0
31
0
0
ARC
8
DOORS
10
6425.0
20
-3900.0
30
0
40
900.0
50
0.00
51
90.00
0
TEXT
8
TEXT
10
6300.0
20
-3450.0
30
0
40
150.0
1
Д-2
50
90
72
1
73
2
11
6300.0
21
-3450.0
31
0
0
LINE
8
OPENINGS
10
3900.0
20
-4500.0
30
0
11
4100.0
21
-4500.0
31
0
0
LINE
8
OPENINGS
10
3900.0
20
-5400.0
30
0
11
4100.0
21
-5400.0
31
0
0
LINE
8
DOORS
10
4100.0
20
-5400.0
30
0
11
5000.0
21
-5400.0
31
0
0
ARC
8
DOORS
10
4100.0
20
-5400.0
30
0
40
900.0
50
0.00
51
90.00
0
TEXT
8
TEXT
10
4000.0
20
-4950.0
30
0
40
150.0
1
Д-2п
50
90
72
1
73
2
11
4000.0
21
-4950.0
31
0
0
LINE
8
OPENINGS
10
7000.0
20
-2000.0
30
0
11
7000.0
21
-2100.0
31
0
0
LINE
8
OPENINGS
10
7900.0
20
-2000.0
30
0
11
7900.0
21
-2100.0
31
0
0
LINE
8
DOORS
10
7000.0
20
-2100.0
30
0
11
7000.0
21
-3000.0
31
0
0
ARC
8
DOORS
10
7000.0
20
-2100.0
30
0
40
900.0
50
-90.00
51
0.00
0
TEXT
8
TEXT
10
7450.0
20
-1700.0
30
0
40
150.0
1
Д-2
50
0
72
1
73
2
11
7450.0
21
-1700.0
31
0
0
LINE
8
OPENINGS
10
10800.0
20
-2000.0
30
0
11
10800.0
21
-2100.0
31
0
0
LINE
8
OPENINGS
10
11600.0
20
-2000.0
30
0
11
11600.0
21
-2100.0
31
0
0
LINE
8
DOORS
10
10800.0
20
-2000.0
30
0
11
10800.0
21
-1200.0
31
0
0
ARC
8
DOORS
10
10800.0
20
-2000.0
30
0
40
800.0
50
0.00
51
90.00
0
TEXT
8
TEXT
10
11200.0
20
-1700.0
30
0
40
150.0
1
Д-3
50
0
72
1
73
2
11
11200.0
21
-1700.0
31
0
0
LINE
8
OPENINGS
10
10400.0
20
-4300.0
30
0
11
10500.0
21
-4300.0
31
0
0
LINE
8
OPENINGS
10
10400.0
20
-5100.0
30
0
11
10500.0
21
-5100.0
31
0
0
LINE
8
DOORS
10
10500.0
20
-4300.0
30
0
11
11300.0
21
-4300.0
31
0
0
ARC
8
DOORS
10
10500.0
20
-4300.0
30
0
40
800.0
50
-90.00
51
0.00
0
TEXT
8
TEXT
10
10450.0
20
-4700.0
30
0
40
150.0
1
Д-3
50
90
72
1
73
2
11
10450.0
21
-4700.0
31
0
0
LINE
8
OPENINGS
10
10400.0
20
-6600.0
30
0
11
10500.0
21
-6600.0
31
0
0
LINE
8
OPENINGS
10
10400.0
20
-7400.0
30
0
11
10500.0
21
-7400.0
31
0
0
LINE
8
DOORS
10
10500.0
20
-7400.0
30
0
11
11300.0
21
-7400.0
31
0
0
ARC
8
DOORS
10
10500.0
20
-7400.0
30
0
40
800.0
50
0.00
51
90.00
0
TEXT
8
TEXT
10
10450.0
20
-7000.0
30
0
40
150.0
1
Д-3
50
90
72
1
73
2
11
10450.0
21
-7000.0
31
0
0
LINE
8
OPENINGS
10
4600.0
20
-8200.0
30
0
11
4600.0
21
-8300.0
31
0
0
LINE
8
OPENINGS
10
5400.0
20
-8200.0
30
0
11
5400.0
21
-8300.0
31
0
0
LINE
8
DOORS
10
4600.0
20
-8200.0
30
0
11
4600.0
21
-7400.0
31
0
0
ARC
8
DOORS
10
4600.0
20
-8200.0
30
0
40
800.0
50
0.00
51
90.00
0
TEXT
8
TEXT
10
5000.0
20
-7900.0
30
0
40
150.0
1
Д-3
50
0
72
1
73
2
11
5000.0
21
-7900.0
31
0
0
LINE
8
OPENINGS
10
4000.0
20
-8600.0
30
0
11
4150.0
21
-8600.0
31
0
0
LINE
8
OPENINGS
10
4000.0
20
-9500.0
30
0
11
4150.0
21
-9500.0
31
0
0
LINE
8
DOORS
10
4000.0
20
-8600.0
30
0
11
3100.0
21
-8600.0
31
0
0
ARC
8
DOORS
10
4000.0
20
-8600.0
30
0
40
900.0
50
180.00
51
-90.00
0
TEXT
8
TEXT
10
4075.0
20
-9050.0
30
0
40
150.0
1
Д-2
50
90
72
1
73
2
11
4075.0
21
-9050.0
31
0
0
LINE
8
OPENINGS
10
4600.0
20
-10200.0
30
0
11
4600.0
21
-10350.0
31
0
0
LINE
8
OPENINGS
10
5500.0
20
-10200.0
30
0
11
5500.0
21
-10350.0
31
0
0
LINE
8
DOORS
10
4600.0
20
-10350.0
30
0
11
4600.0
21
-11250.0
31
0
0
ARC
8
DOORS
10
4600.0
20
-10350.0
30
0
40
900.0
50
-90.00
51
0.00
0
TEXT
8
TEXT
10
5050.0
20
-9925.0
30
0
40
150.0
1
Д-2
50
0
72
1
73
2
11
5050.0
21
-9925.0
31
0
0
LINE
8
OPENINGS
10
6175.0
20
-8600.0
30
0
11
6425.0
21
-8600.0
31
0
0
LINE
8
OPENINGS
10
6175.0
20
-9500.0
30
0
11
6425.0
21
-9500.0
31
0
0
LINE
8
DOORS
10
6425.0
20
-8600.0
30
0
11
7325.0
21
-8600.0
31
0
0
ARC
8
DOORS
10
6425.0
20
-8600.0
30
0
40
900.0
50
-90.00
51
0.00
0
TEXT
8
TEXT
10
6300.0
20
-9050.0
30
0
40
150.0
1
Д-2
50
90
72
1
73
2
11
6300.0
21
-9050.0
31
0
0
LINE
8
OPENINGS
10
6175.0
20
-11200.0
30
0
11
6425.0
21
-11200.0
31
0
0
LINE
8
OPENINGS
10
6175.0
20
-14200.0
30
0
11
6425.0
21
-14200.0
31
0
0
TEXT
8
TEXT
10
6300.0
20
-12700.0
30
0
40
150.0
1
ПР-1
50
90
72
1
73
2
11
6300.0
21
-12700.0
31
0
0
LINE
8
STAIR
10
7775.0
20
-4330.0
30
0
11
8925.0
21
-4330.0
31
0
0
LINE
8
STAIR
10
6425.0
20
-6850.0
30
0
11
7575.0
21
-6850.0
31
0
0
LINE
8
STAIR
10
7775.0
20
-4610.0
30
0
11
8925.0
21
-4610.0
31
0
0
LINE
8
STAIR
10
6425.0
20
-6570.0
30
0
11
7575.0
21
-6570.0
31
0
0
LINE
8
STAIR
10
7775.0
20
-4890.0
30
0
11
8925.0
21
-4890.0
31
0
0
LINE
8
STAIR
10
6425.0
20
-6290.0
30
0
11
7575.0
21
-6290.0
31
0
0
LINE
8
STAIR
10
7775.0
20
-5170.0
30
0
11
8925.0
21
-5170.0
31
0
0
LINE
8
STAIR
10
6425.0
20
-6010.0
30
0
11
7575.0
21
-6010.0
31
0
0
LINE
8
STAIR
10
7775.0
20
-5450.0
30
0
11
8925.0
21
-5450.0
31
0
0
LINE
8
STAIR
10
6425.0
20
-5730.0
30
0
11
7575.0
21
-5730.0
31
0
0
LINE
8
STAIR
10
7775.0
20
-5730.0
30
0
11
8925.0
21
-5730.0
31
0
0
LINE
8
STAIR
10
6425.0
20
-5450.0
30
0
11
7575.0
21
-5450.0
31
0
0
LINE
8
STAIR
10
7775.0
20
-6010.0
30
0
11
8925.0
21
-6010.0
31
0
0
LINE
8
STAIR
10
6425.0
20
-5170.0
30
0
11
7575.0
21
-5170.0
31
0
0
LINE
8
STAIR
10
7775.0
20
-6290.0
30
0
11
8925.0
21
-6290.0
31
0
0
LINE
8
STAIR
10
6425.0
20
-4890.0
30
0
11
7575.0
21
-4890.0
31
0
0
LINE
8
STAIR
10
7775.0
20
-6570.0
30
0
11
8925.0
21
-6570.0
31
0
0
LINE
8
STAIR
10
6425.0
20
-4610.0
30
0
11
7575.0
21
-4610.0
31
0
0
LINE
8
STAIR
10
7775.0
20
-6850.0
30
0
11
8925.0
21
-6850.0
31
0
0
LINE
8
STAIR
10
6425.0
20
-4330.0
30
0
11
7575.0
21
-4330.0
31
0
0
POLYLINE
8
STAIR
66
1
70
1
0
VERTEX
8
STAIR
10
6425.0
20
-6850.0
30
0
0
VERTEX
8
STAIR
10
8925.0
20
-6850.0
30
0
0
VERTEX
8
STAIR
10
8925.0
20
-8000.0
30
0
0
VERTEX
8
STAIR
10
6425.0
20
-8000.0
30
0
0
SEQEND
8
STAIR
0
LINE
8
STAIR
10
7775.0
20
-4330.0
30
0
11
7775.0
21
-6850.0
31
0
0
LINE
8
STAIR
10
7575.0
20
-6850.0
30
0
11
7575.0
21
-4330.0
31
0
0
POLYLINE
8
VENT
66
1
70
1
0
VERTEX
8
VENT
10
5775.0
20
-200.0
30
0
0
VERTEX
8
VENT
10
6175.0
20
-200.0
30
0
0
VERTEX
8
VENT
10
6175.0
20
-600.0
30
0
0
VERTEX
8
VENT
10
5775.0
20
-600.0
30
0
0
SEQEND
8
VENT
0
TEXT
8
VENT
10
5975.0
20
100.0
30
0
40
150.0
1
В1
50
0
72
1
73
2
11
5975.0
21
100.0
31
0
0
POLYLINE
8
VENT
66
1
70
1
0
VERTEX
8
VENT
10
5775.0
20
-4650.0
30
0
0
VERTEX
8
VENT
10
6175.0
20
-4650.0
30
0
0
VERTEX
8
VENT
10
6175.0
20
-5050.0
30
0
0
VERTEX
8
VENT
10
5775.0
20
-5050.0
30
0
0
SEQEND
8
VENT
0
TEXT
8
VENT
10
5975.0
20
-4350.0
30
0
40
150.0
1
В2
50
0
72
1
73
2
11
5975.0
21
-4350.0
31
0
0
POLYLINE
8
VENT
66
1
70
1
0
VERTEX
8
VENT
10
10500.0
20
-4000.0
30
0
0
VERTEX
8
VENT
10
10900.0
20
-4000.0
30
0
0
VERTEX
8
VENT
10
10900.0
20
-4400.0
30
0
0
VERTEX
8
VENT
10
10500.0
20
-4400.0
30
0
0
SEQEND
8
VENT
0
TEXT
8
VENT
10
10700.0
20
-3700.0
30
0
40
150.0
1
В3
50
0
72
1
73
2
11
10700.0
21
-3700.0
31
0
0
POLYLINE
8
VENT
66
1
70
1
0
VERTEX
8
VENT
10
5775.0
20
-10350.0
30
0
0
VERTEX
8
VENT
10
6175.0
20
-10350.0
30
0
0
VERTEX
8
VENT
10
6175.0
20
-10750.0
30
0
0
VERTEX
8
VENT
10
5775.0
20
-10750.0
30
0
0
SEQEND
8
VENT
0
TEXT
8
VENT
10
5975.0
20
-10050.0
30
0
40
150.0
1
В4
50
0
72
1
73
2
11
5975.0
21
-10050.0
31
0
0
POLYLINE
8
VENT
66
1
70
1
0
VERTEX
8
VENT
10
3500.0
20
-200.0
30
0
0
VERTEX
8
VENT
10
3900.0
20
-200.0
30
0
0
VERTEX
8
VENT
10
3900.0
20
-600.0
30
0
0
VERTEX
8
VENT
10
3500.0
20
-600.0
30
0
0
SEQEND
8
VENT
0
TEXT
8
VENT
10
3700.0
20
100.0
30
0
40
150.0
1
В7
50
0
72
1
73
2
11
3700.0
21
100.0
31
0
0
TEXT
8
TEXT
10
7362.5
20
-850.0
30
0
40
250.0
1
1.01 Тамбур
50
0
72
1
73
2
11
7362.5
21
-850.0
31
0
0
TEXT
8
TEXT
10
7362.5
20
-1300.0
30
0
40
220.0
1
3.38 м2
50
0
72
1
73
2
11
7362.5
21
-1300.0
31
0
0
TEXT
8
TEXT
10
9412.5
20
-2750.0
30
0
40
250.0
1
1.02 Прихожая
50
0
72
1
73
2
11
9412.5
21
-2750.0
31
0
0
TEXT
8
TEXT
10
9412.5
20
-3200.0
30
0
40
220.0
1
14.36 м2
50
0
72
1
73
2
11
9412.5
21
-3200.0
31
0
0
TEXT
8
TEXT
10
11450.0
20
-850.0
30
0
40
250.0
1
1.03 Гардероб
50
0
72
1
73
2
11
11450.0
21
-850.0
31
0
0
TEXT
8
TEXT
10
11450.0
20
-1300.0
30
0
40
220.0
1
3.42 м2
50
0
72
1
73
2
11
11450.0
21
-1300.0
31
0
0
TEXT
8
TEXT
10
8412.5
20
-5750.0
30
0
40
250.0
1
1.04 Лестничный холл
50
0
72
1
73
2
11
8412.5
21
-5750.0
31
0
0
TEXT
8
TEXT
10
8412.5
20
-6200.0
30
0
40
220.0
1
15.90 м2
50
0
72
1
73
2
11
8412.5
21
-6200.0
31
0
0
TEXT
8
TEXT
10
11450.0
20
-4800.0
30
0
40
250.0
1
1.05 Санузел гостевой
50
0
72
1
73
2
11
11450.0
21
-4800.0
31
0
0
TEXT
8
TEXT
10
11450.0
20
-5250.0
30
0
40
220.0
1
3.99 м2
50
0
72
1
73
2
11
11450.0
21
-5250.0
31
0
0
TEXT
8
TEXT
10
11450.0
20
-6850.0
30
0
40
250.0
1
1.06 Кладовая хоз.
50
0
72
1
73
2
11
11450.0
21
-6850.0
31
0
0
TEXT
8
TEXT
10
11450.0
20
-7300.0
30
0
40
220.0
1
3.42 м2
50
0
72
1
73
2
11
11450.0
21
-7300.0
31
0
0
TEXT
8
TEXT
10
9412.5
20
-11500.0
30
0
40
250.0
1
1.07 Гостиная
50
0
72
1
73
2
11
9412.5
21
-11500.0
31
0
0
TEXT
8
TEXT
10
9412.5
20
-11950.0
30
0
40
220.0
1
43.62 м2
50
0
72
1
73
2
11
9412.5
21
-11950.0
31
0
0
TEXT
8
TEXT
10
3187.5
20
-12625.0
30
0
40
250.0
1
1.08 Кухня-столовая
50
0
72
1
73
2
11
3187.5
21
-12625.0
31
0
0
TEXT
8
TEXT
10
3187.5
20
-13075.0
30
0
40
220.0
1
30.17 м2
50
0
72
1
73
2
11
3187.5
21
-13075.0
31
0
0
TEXT
8
TEXT
10
5162.5
20
-9000.0
30
0
40
250.0
1
1.09 Коридор
50
0
72
1
73
2
11
5162.5
21
-9000.0
31
0
0
TEXT
8
TEXT
10
5162.5
20
-9450.0
30
0
40
220.0
1
3.85 м2
50
0
72
1
73
2
11
5162.5
21
-9450.0
31
0
0
TEXT
8
TEXT
10
5162.5
20
-7250.0
30
0
40
250.0
1
1.10 Кладовая
50
0
72
1
73
2
11
5162.5
21
-7250.0
31
0
0
TEXT
8
TEXT
10
5162.5
20
-7700.0
30
0
40
220.0
1
2.83 м2
50
0
72
1
73
2
11
5162.5
21
-7700.0
31
0
0
TEXT
8
TEXT
10
2100.0
20
-8250.0
30
0
40
250.0
1
1.11 Кабинет
50
0
72
1
73
2
11
2100.0
21
-8250.0
31
0
0
TEXT
8
TEXT
10
2100.0
20
-8700.0
30
0
40
220.0
1
12.92 м2
50
0
72
1
73
2
11
2100.0
21
-8700.0
31
0
0
TEXT
8
TEXT
10
5137.5
20
-4550.0
30
0
40
250.0
1
1.12 Хозяйственная
50
0
72
1
73
2
11
5137.5
21
-4550.0
31
0
0
TEXT
8
TEXT
10
5137.5
20
-5000.0
30
0
40
220.0
1
7.47 м2
50
0
72
1
73
2
11
5137.5
21
-5000.0
31
0
0
TEXT
8
TEXT
10
5137.5
20
-1300.0
30
0
40
250.0
1
1.13 Котельная
50
0
72
1
73
2
11
5137.5
21
-1300.0
31
0
0
TEXT
8
TEXT
10
5137.5
20
-1750.0
30
0
40
220.0
1
5.60 м2
50
0
72
1
73
2
11
5137.5
21
-1750.0
31
0
0
TEXT
8
TEXT
10
2050.0
20
-3150.0
30
0
40
250.0
1
1.14 Гараж
50
0
72
1
73
2
11
2050.0
21
-3150.0
31
0
0
TEXT
8
TEXT
10
2050.0
20
-3600.0
30
0
40
220.0
1
23.68 м2
50
0
72
1
73
2
11
2050.0
21
-3600.0
31
0
0
LINE
8
AXES
10
0.0
20
4200.0
30
0
11
0.0
21
-19800.0
31
0
0
CIRCLE
8
AXES
10
0.0
20
4700.0
30
0
40
400.0
0
TEXT
8
AXES
10
0.0
20
4700.0
30
0
40
350.0
1
1
50
0
72
1
73
2
11
0.0
21
4700.0
31
0
0
CIRCLE
8
AXES
10
0.0
20
-20300.0
30
0
40
400.0
0
TEXT
8
AXES
10
0.0
20
-20300.0
30
0
40
350.0
1
1
50
0
72
1
73
2
11
0.0
21
-20300.0
31
0
0
LINE
8
AXES
10
6300.0
20
4200.0
30
0
11
6300.0
21
-19800.0
31
0
0
CIRCLE
8
AXES
10
6300.0
20
4700.0
30
0
40
400.0
0
TEXT
8
AXES
10
6300.0
20
4700.0
30
0
40
350.0
1
2
50
0
72
1
73
2
11
6300.0
21
4700.0
31
0
0
CIRCLE
8
AXES
10
6300.0
20
-20300.0
30
0
40
400.0
0
TEXT
8
AXES
10
6300.0
20
-20300.0
30
0
40
350.0
1
2
50
0
72
1
73
2
11
6300.0
21
-20300.0
31
0
0
LINE
8
AXES
10
12600.0
20
4200.0
30
0
11
12600.0
21
-19800.0
31
0
0
CIRCLE
8
AXES
10
12600.0
20
4700.0
30
0
40
400.0
0
TEXT
8
AXES
10
12600.0
20
4700.0
30
0
40
350.0
1
3
50
0
72
1
73
2
11
12600.0
21
4700.0
31
0
0
CIRCLE
8
AXES
10
12600.0
20
-20300.0
30
0
40
400.0
0
TEXT
8
AXES
10
12600.0
20
-20300.0
30
0
40
350.0
1
3
50
0
72
1
73
2
11
12600.0
21
-20300.0
31
0
0
LINE
8
AXES
10
-3400.0
20
-0.0
30
0
11
16000.0
21
-0.0
31
0
0
CIRCLE
8
AXES
10
-3900.0
20
-0.0
30
0
40
400.0
0
TEXT
8
AXES
10
-3900.0
20
-0.0
30
0
40
350.0
1
А
50
0
72
1
73
2
11
-3900.0
21
-0.0
31
0
0
CIRCLE
8
AXES
10
16500.0
20
-0.0
30
0
40
400.0
0
TEXT
8
AXES
10
16500.0
20
-0.0
30
0
40
350.0
1
А
50
0
72
1
73
2
11
16500.0
21
-0.0
31
0
0
LINE
8
AXES
10
-3400.0
20
-15600.0
30
0
11
16000.0
21
-15600.0
31
0
0
CIRCLE
8
AXES
10
-3900.0
20
-15600.0
30
0
40
400.0
0
TEXT
8
AXES
10
-3900.0
20
-15600.0
30
0
40
350.0
1
Б
50
0
72
1
73
2
11
-3900.0
21
-15600.0
31
0
0
CIRCLE
8
AXES
10
16500.0
20
-15600.0
30
0
40
400.0
0
TEXT
8
AXES
10
16500.0
20
-15600.0
30
0
40
350.0
1
Б
50
0
72
1
73
2
11
16500.0
21
-15600.0
31
0
0
LINE
8
DIM
10
-200.0
20
200.0
30
0
11
-200.0
21
2900.0
31
0
0
LINE
8
DIM
10
550.0
20
200.0
30
0
11
550.0
21
2900.0
31
0
0
LINE
8
DIM
10
3550.0
20
200.0
30
0
11
3550.0
21
2900.0
31
0
0
LINE
8
DIM
10
4800.0
20
200.0
30
0
11
4800.0
21
2900.0
31
0
0
LINE
8
DIM
10
5600.0
20
200.0
30
0
11
5600.0
21
2900.0
31
0
0
LINE
8
DIM
10
6900.0
20
200.0
30
0
11
6900.0
21
2900.0
31
0
0
LINE
8
DIM
10
7900.0
20
200.0
30
0
11
7900.0
21
2900.0
31
0
0
LINE
8
DIM
10
8800.0
20
200.0
30
0
11
8800.0
21
2900.0
31
0
0
LINE
8
DIM
10
10000.0
20
200.0
30
0
11
10000.0
21
2900.0
31
0
0
LINE
8
DIM
10
12800.0
20
200.0
30
0
11
12800.0
21
2900.0
31
0
0
LINE
8
DIM
10
-200.0
20
3100.0
30
0
11
12800.0
21
3100.0
31
0
0
LINE
8
DIM
10
-300.0
20
3000.0
30
0
11
-100.0
21
3200.0
31
0
0
TEXT
8
DIM
10
175.0
20
3220.0
30
0
40
200.0
1
750
50
0
72
1
73
2
11
175.0
21
3220.0
31
0
0
LINE
8
DIM
10
450.0
20
3000.0
30
0
11
650.0
21
3200.0
31
0
0
TEXT
8
DIM
10
2050.0
20
3220.0
30
0
40
200.0
1
3000
50
0
72
1
73
2
11
2050.0
21
3220.0
31
0
0
LINE
8
DIM
10
3450.0
20
3000.0
30
0
11
3650.0
21
3200.0
31
0
0
TEXT
8
DIM
10
4175.0
20
3220.0
30
0
40
200.0
1
1250
50
0
72
1
73
2
11
4175.0
21
3220.0
31
0
0
LINE
8
DIM
10
4700.0
20
3000.0
30
0
11
4900.0
21
3200.0
31
0
0
TEXT
8
DIM
10
5200.0
20
3220.0
30
0
40
200.0
1
800
50
0
72
1
73
2
11
5200.0
21
3220.0
31
0
0
LINE
8
DIM
10
5500.0
20
3000.0
30
0
11
5700.0
21
3200.0
31
0
0
TEXT
8
DIM
10
6250.0
20
3220.0
30
0
40
200.0
1
1300
50
0
72
1
73
2
11
6250.0
21
3220.0
31
0
0
LINE
8
DIM
10
6800.0
20
3000.0
30
0
11
7000.0
21
3200.0
31
0
0
TEXT
8
DIM
10
7400.0
20
3220.0
30
0
40
200.0
1
1000
50
0
72
1
73
2
11
7400.0
21
3220.0
31
0
0
LINE
8
DIM
10
7800.0
20
3000.0
30
0
11
8000.0
21
3200.0
31
0
0
TEXT
8
DIM
10
8350.0
20
3220.0
30
0
40
200.0
1
900
50
0
72
1
73
2
11
8350.0
21
3220.0
31
0
0
LINE
8
DIM
10
8700.0
20
3000.0
30
0
11
8900.0
21
3200.0
31
0
0
TEXT
8
DIM
10
9400.0
20
3220.0
30
0
40
200.0
1
1200
50
0
72
1
73
2
11
9400.0
21
3220.0
31
0
0
LINE
8
DIM
10
9900.0
20
3000.0
30
0
11
10100.0
21
3200.0
31
0
0
TEXT
8
DIM
10
11400.0
20
3220.0
30
0
40
200.0
1
2800
50
0
72
1
73
2
11
11400.0
21
3220.0
31
0
0
LINE
8
DIM
10
12700.0
20
3000.0
30
0
11
12900.0
21
3200.0
31
0
0
LINE
8
DIM
10
0.0
20
200.0
30
0
11
0.0
21
3915.0
31
0
0
LINE
8
DIM
10
6300.0
20
200.0
30
0
11
6300.0
21
3915.0
31
0
0
LINE
8
DIM
10
12600.0
20
200.0
30
0
11
12600.0
21
3915.0
31
0
0
LINE
8
DIM
10
0.0
20
4115.0
30
0
11
12600.0
21
4115.0
31
0
0
LINE
8
DIM
10
-100.0
20
4015.0
30
0
11
100.0
21
4215.0
31
0
0
TEXT
8
DIM
10
3150.0
20
4235.0
30
0
40
200.0
1
6300
50
0
72
1
73
2
11
3150.0
21
4235.0
31
0
0
LINE
8
DIM
10
6200.0
20
4015.0
30
0
11
6400.0
21
4215.0
31
0
0
TEXT
8
DIM
10
9450.0
20
4235.0
30
0
40
200.0
1
6300
50
0
72
1
73
2
11
9450.0
21
4235.0
31
0
0
LINE
8
DIM
10
12500.0
20
4015.0
30
0
11
12700.0
21
4215.0
31
0
0
LINE
8
DIM
10
-200.0
20
200.0
30
0
11
-200.0
21
4930.0
31
0
0
LINE
8
DIM
10
12800.0
20
200.0
30
0
11
12800.0
21
4930.0
31
0
0
LINE
8
DIM
10
-200.0
20
5130.0
30
0
11
12800.0
21
5130.0
31
0
0
LINE
8
DIM
10
-300.0
20
5030.0
30
0
11
-100.0
21
5230.0
31
0
0
TEXT
8
DIM
10
6300.0
20
5250.0
30
0
40
200.0
1
13000
50
0
72
1
73
2
11
6300.0
21
5250.0
31
0
0
LINE
8
DIM
10
12700.0
20
5030.0
30
0
11
12900.0
21
5230.0
31
0
0
LINE
8
DIM
10
-200.0
20
-15800.0
30
0
11
-200.0
21
-18500.0
31
0
0
LINE
8
DIM
10
1200.0
20
-15800.0
30
0
11
1200.0
21
-18500.0
31
0
0
LINE
8
DIM
10
3600.0
20
-15800.0
30
0
11
3600.0
21
-18500.0
31
0
0
LINE
8
DIM
10
4200.0
20
-15800.0
30
0
11
4200.0
21
-18500.0
31
0
0
LINE
8
DIM
10
5700.0
20
-15800.0
30
0
11
5700.0
21
-18500.0
31
0
0
LINE
8
DIM
10
7000.0
20
-15800.0
30
0
11
7000.0
21
-18500.0
31
0
0
LINE
8
DIM
10
10000.0
20
-15800.0
30
0
11
10000.0
21
-18500.0
31
0
0
LINE
8
DIM
10
10600.0
20
-15800.0
30
0
11
10600.0
21
-18500.0
31
0
0
LINE
8
DIM
10
12100.0
20
-15800.0
30
0
11
12100.0
21
-18500.0
31
0
0
LINE
8
DIM
10
12800.0
20
-15800.0
30
0
11
12800.0
21
-18500.0
31
0
0
LINE
8
DIM
10
-200.0
20
-18700.0
30
0
11
12800.0
21
-18700.0
31
0
0
LINE
8
DIM
10
-300.0
20
-18800.0
30
0
11
-100.0
21
-18600.0
31
0
0
TEXT
8
DIM
10
500.0
20
-18580.0
30
0
40
200.0
1
1400
50
0
72
1
73
2
11
500.0
21
-18580.0
31
0
0
LINE
8
DIM
10
1100.0
20
-18800.0
30
0
11
1300.0
21
-18600.0
31
0
0
TEXT
8
DIM
10
2400.0
20
-18580.0
30
0
40
200.0
1
2400
50
0
72
1
73
2
11
2400.0
21
-18580.0
31
0
0
LINE
8
DIM
10
3500.0
20
-18800.0
30
0
11
3700.0
21
-18600.0
31
0
0
TEXT
8
DIM
10
3900.0
20
-18580.0
30
0
40
200.0
1
600
50
0
72
1
73
2
11
3900.0
21
-18580.0
31
0
0
LINE
8
DIM
10
4100.0
20
-18800.0
30
0
11
4300.0
21
-18600.0
31
0
0
TEXT
8
DIM
10
4950.0
20
-18580.0
30
0
40
200.0
1
1500
50
0
72
1
73
2
11
4950.0
21
-18580.0
31
0
0
LINE
8
DIM
10
5600.0
20
-18800.0
30
0
11
5800.0
21
-18600.0
31
0
0
TEXT
8
DIM
10
6350.0
20
-18580.0
30
0
40
200.0
1
1300
50
0
72
1
73
2
11
6350.0
21
-18580.0
31
0
0
LINE
8
DIM
10
6900.0
20
-18800.0
30
0
11
7100.0
21
-18600.0
31
0
0
TEXT
8
DIM
10
8500.0
20
-18580.0
30
0
40
200.0
1
3000
50
0
72
1
73
2
11
8500.0
21
-18580.0
31
0
0
LINE
8
DIM
10
9900.0
20
-18800.0
30
0
11
10100.0
21
-18600.0
31
0
0
TEXT
8
DIM
10
10300.0
20
-18580.0
30
0
40
200.0
1
600
50
0
72
1
73
2
11
10300.0
21
-18580.0
31
0
0
LINE
8
DIM
10
10500.0
20
-18800.0
30
0
11
10700.0
21
-18600.0
31
0
0
TEXT
8
DIM
10
11350.0
20
-18580.0
30
0
40
200.0
1
1500
50
0
72
1
73
2
11
11350.0
21
-18580.0
31
0
0
LINE
8
DIM
10
12000.0
20
-18800.0
30
0
11
12200.0
21
-18600.0
31
0
0
TEXT
8
DIM
10
12450.0
20
-18580.0
30
0
40
200.0
1
700
50
0
72
1
73
2
11
12450.0
21
-18580.0
31
0
0
LINE
8
DIM
10
12700.0
20
-18800.0
30
0
11
12900.0
21
-18600.0
31
0
0
LINE
8
DIM
10
0.0
20
-15800.0
30
0
11
0.0
21
-19515.0
31
0
0
LINE
8
DIM
10
6300.0
20
-15800.0
30
0
11
6300.0
21
-19515.0
31
0
0
LINE
8
DIM
10
12600.0
20
-15800.0
30
0
11
12600.0
21
-19515.0
31
0
0
LINE
8
DIM
10
0.0
20
-19715.0
30
0
11
12600.0
21
-19715.0
31
0
0
LINE
8
DIM
10
-100.0
20
-19815.0
30
0
11
100.0
21
-19615.0
31
0
0
TEXT
8
DIM
10
3150.0
20
-19595.0
30
0
40
200.0
1
6300
50
0
72
1
73
2
11
3150.0
21
-19595.0
31
0
0
LINE
8
DIM
10
6200.0
20
-19815.0
30
0
11
6400.0
21
-19615.0
31
0
0
TEXT
8
DIM
10
9450.0
20
-19595.0
30
0
40
200.0
1
6300
50
0
72
1
73
2
11
9450.0
21
-19595.0
31
0
0
LINE
8
DIM
10
12500.0
20
-19815.0
30
0
11
12700.0
21
-19615.0
31
0
0
LINE
8
DIM
10
-200.0
20
-15800.0
30
0
11
-200.0
21
-20530.0
31
0
0
LINE
8
DIM
10
12800.0
20
-15800.0
30
0
11
12800.0
21
-20530.0
31
0
0
LINE
8
DIM
10
-200.0
20
-20730.0
30
0
11
12800.0
21
-20730.0
31
0
0
LINE
8
DIM
10
-300.0
20
-20830.0
30
0
11
-100.0
21
-20630.0
31
0
0
TEXT
8
DIM
10
6300.0
20
-20610.0
30
0
40
200.0
1
13000
50
0
72
1
73
2
11
6300.0
21
-20610.0
31
0
0
LINE
8
DIM
10
12700.0
20
-20830.0
30
0
11
12900.0
21
-20630.0
31
0
0
LINE
8
DIM
10
-200.0
20
200.0
30
0
11
-3000.0
21
200.0
31
0
0
LINE
8
DIM
10
-200.0
20
-2500.0
30
0
11
-3000.0
21
-2500.0
31
0
0
LINE
8
DIM
10
-200.0
20
-3500.0
30
0
11
-3000.0
21
-3500.0
31
0
0
LINE
8
DIM
10
-200.0
20
-7800.0
30
0
11
-3000.0
21
-7800.0
31
0
0
LINE
8
DIM
10
-200.0
20
-9300.0
30
0
11
-3000.0
21
-9300.0
31
0
0
LINE
8
DIM
10
-200.0
20
-11400.0
30
0
11
-3000.0
21
-11400.0
31
0
0
LINE
8
DIM
10
-200.0
20
-13200.0
30
0
11
-3000.0
21
-13200.0
31
0
0
LINE
8
DIM
10
-200.0
20
-15800.0
30
0
11
-3000.0
21
-15800.0
31
0
0
LINE
8
DIM
10
-2800.0
20
200.0
30
0
11
-2800.0
21
-15800.0
31
0
0
LINE
8
DIM
10
-2900.0
20
100.0
30
0
11
-2700.0
21
300.0
31
0
0
TEXT
8
DIM
10
-2920.0
20
-1150.0
30
0
40
200.0
1
2700
50
90
72
1
73
2
11
-2920.0
21
-1150.0
31
0
0
LINE
8
DIM
10
-2900.0
20
-2600.0
30
0
11
-2700.0
21
-2400.0
31
0
0
TEXT
8
DIM
10
-2920.0
20
-3000.0
30
0
40
200.0
1
1000
50
90
72
1
73
2
11
-2920.0
21
-3000.0
31
0
0
LINE
8
DIM
10
-2900.0
20
-3600.0
30
0
11
-2700.0
21
-3400.0
31
0
0
TEXT
8
DIM
10
-2920.0
20
-5650.0
30
0
40
200.0
1
4300
50
90
72
1
73
2
11
-2920.0
21
-5650.0
31
0
0
LINE
8
DIM
10
-2900.0
20
-7900.0
30
0
11
-2700.0
21
-7700.0
31
0
0
TEXT
8
DIM
10
-2920.0
20
-8550.0
30
0
40
200.0
1
1500
50
90
72
1
73
2
11
-2920.0
21
-8550.0
31
0
0
LINE
8
DIM
10
-2900.0
20
-9400.0
30
0
11
-2700.0
21
-9200.0
31
0
0
TEXT
8
DIM
10
-2920.0
20
-10350.0
30
0
40
200.0
1
2100
50
90
72
1
73
2
11
-2920.0
21
-10350.0
31
0
0
LINE
8
DIM
10
-2900.0
20
-11500.0
30
0
11
-2700.0
21
-11300.0
31
0
0
TEXT
8
DIM
10
-2920.0
20
-12300.0
30
0
40
200.0
1
1800
50
90
72
1
73
2
11
-2920.0
21
-12300.0
31
0
0
LINE
8
DIM
10
-2900.0
20
-13300.0
30
0
11
-2700.0
21
-13100.0
31
0
0
TEXT
8
DIM
10
-2920.0
20
-14500.0
30
0
40
200.0
1
2600
50
90
72
1
73
2
11
-2920.0
21
-14500.0
31
0
0
LINE
8
DIM
10
-2900.0
20
-15900.0
30
0
11
-2700.0
21
-15700.0
31
0
0
LINE
8
DIM
10
-200.0
20
-0.0
30
0
11
-3910.0
21
-0.0
31
0
0
LINE
8
DIM
10
-200.0
20
-15600.0
30
0
11
-3910.0
21
-15600.0
31
0
0
LINE
8
DIM
10
-3710.0
20
-0.0
30
0
11
-3710.0
21
-15600.0
31
0
0
LINE
8
DIM
10
-3810.0
20
-100.0
30
0
11
-3610.0
21
100.0
31
0
0
TEXT
8
DIM
10
-3830.0
20
-7800.0
30
0
40
200.0
1
15600
50
90
72
1
73
2
11
-3830.0
21
-7800.0
31
0
0
LINE
8
DIM
10
-3810.0
20
-15700.0
30
0
11
-3610.0
21
-15500.0
31
0
0
LINE
8
DIM
10
-200.0
20
200.0
30
0
11
-4820.0
21
200.0
31
0
0
LINE
8
DIM
10
-200.0
20
-15800.0
30
0
11
-4820.0
21
-15800.0
31
0
0
LINE
8
DIM
10
-4620.0
20
200.0
30
0
11
-4620.0
21
-15800.0
31
0
0
LINE
8
DIM
10
-4720.0
20
100.0
30
0
11
-4520.0
21
300.0
31
0
0
TEXT
8
DIM
10
-4740.0
20
-7800.0
30
0
40
200.0
1
16000
50
90
72
1
73
2
11
-4740.0
21
-7800.0
31
0
0
LINE
8
DIM
10
-4720.0
20
-15900.0
30
0
11
-4520.0
21
-15700.0
31
0
0
LINE
8
DIM
10
12800.0
20
200.0
30
0
11
15600.0
21
200.0
31
0
0
LINE
8
DIM
10
12800.0
20
-2400.0
30
0
11
15600.0
21
-2400.0
31
0
0
LINE
8
DIM
10
12800.0
20
-3600.0
30
0
11
15600.0
21
-3600.0
31
0
0
LINE
8
DIM
10
12800.0
20
-4600.0
30
0
11
15600.0
21
-4600.0
31
0
0
LINE
8
DIM
10
12800.0
20
-5200.0
30
0
11
15600.0
21
-5200.0
31
0
0
LINE
8
DIM
10
12800.0
20
-9000.0
30
0
11
15600.0
21
-9000.0
31
0
0
LINE
8
DIM
10
12800.0
20
-10800.0
30
0
11
15600.0
21
-10800.0
31
0
0
LINE
8
DIM
10
12800.0
20
-12400.0
30
0
11
15600.0
21
-12400.0
31
0
0
LINE
8
DIM
10
12800.0
20
-14200.0
30
0
11
15600.0
21
-14200.0
31
0
0
LINE
8
DIM
10
12800.0
20
-15800.0
30
0
11
15600.0
21
-15800.0
31
0
0
LINE
8
DIM
10
15400.0
20
200.0
30
0
11
15400.0
21
-15800.0
31
0
0
LINE
8
DIM
10
15300.0
20
100.0
30
0
11
15500.0
21
300.0
31
0
0
TEXT
8
DIM
10
15280.0
20
-1100.0
30
0
40
200.0
1
2600
50
90
72
1
73
2
11
15280.0
21
-1100.0
31
0
0
LINE
8
DIM
10
15300.0
20
-2500.0
30
0
11
15500.0
21
-2300.0
31
0
0
TEXT
8
DIM
10
15280.0
20
-3000.0
30
0
40
200.0
1
1200
50
90
72
1
73
2
11
15280.0
21
-3000.0
31
0
0
LINE
8
DIM
10
15300.0
20
-3700.0
30
0
11
15500.0
21
-3500.0
31
0
0
TEXT
8
DIM
10
15280.0
20
-4100.0
30
0
40
200.0
1
1000
50
90
72
1
73
2
11
15280.0
21
-4100.0
31
0
0
LINE
8
DIM
10
15300.0
20
-4700.0
30
0
11
15500.0
21
-4500.0
31
0
0
TEXT
8
DIM
10
15280.0
20
-4900.0
30
0
40
200.0
1
600
50
90
72
1
73
2
11
15280.0
21
-4900.0
31
0
0
LINE
8
DIM
10
15300.0
20
-5300.0
30
0
11
15500.0
21
-5100.0
31
0
0
TEXT
8
DIM
10
15280.0
20
-7100.0
30
0
40
200.0
1
3800
50
90
72
1
73
2
11
15280.0
21
-7100.0
31
0
0
LINE
8
DIM
10
15300.0
20
-9100.0
30
0
11
15500.0
21
-8900.0
31
0
0
TEXT
8
DIM
10
15280.0
20
-9900.0
30
0
40
200.0
1
1800
50
90
72
1
73
2
11
15280.0
21
-9900.0
31
0
0
LINE
8
DIM
10
15300.0
20
-10900.0
30
0
11
15500.0
21
-10700.0
31
0
0
TEXT
8
DIM
10
15280.0
20
-11600.0
30
0
40
200.0
1
1600
50
90
72
1
73
2
11
15280.0
21
-11600.0
31
0
0
LINE
8
DIM
10
15300.0
20
-12500.0
30
0
11
15500.0
21
-12300.0
31
0
0
TEXT
8
DIM
10
15280.0
20
-13300.0
30
0
40
200.0
1
1800
50
90
72
1
73
2
11
15280.0
21
-13300.0
31
0
0
LINE
8
DIM
10
15300.0
20
-14300.0
30
0
11
15500.0
21
-14100.0
31
0
0
TEXT
8
DIM
10
15280.0
20
-15000.0
30
0
40
200.0
1
1600
50
90
72
1
73
2
11
15280.0
21
-15000.0
31
0
0
LINE
8
DIM
10
15300.0
20
-15900.0
30
0
11
15500.0
21
-15700.0
31
0
0
LINE
8
DIM
10
12800.0
20
-0.0
30
0
11
16510.0
21
-0.0
31
0
0
LINE
8
DIM
10
12800.0
20
-15600.0
30
0
11
16510.0
21
-15600.0
31
0
0
LINE
8
DIM
10
16310.0
20
-0.0
30
0
11
16310.0
21
-15600.0
31
0
0
LINE
8
DIM
10
16210.0
20
-100.0
30
0
11
16410.0
21
100.0
31
0
0
TEXT
8
DIM
10
16190.0
20
-7800.0
30
0
40
200.0
1
15600
50
90
72
1
73
2
11
16190.0
21
-7800.0
31
0
0
LINE
8
DIM
10
16210.0
20
-15700.0
30
0
11
16410.0
21
-15500.0
31
0
0
LINE
8
DIM
10
12800.0
20
200.0
30
0
11
17420.0
21
200.0
31
0
0
LINE
8
DIM
10
12800.0
20
-15800.0
30
0
11
17420.0
21
-15800.0
31
0
0
LINE
8
DIM
10
17220.0
20
200.0
30
0
11
17220.0
21
-15800.0
31
0
0
LINE
8
DIM
10
17120.0
20
100.0
30
0
11
17320.0
21
300.0
31
0
0
TEXT
8
DIM
10
17100.0
20
-7800.0
30
0
40
200.0
1
16000
50
90
72
1
73
2
11
17100.0
21
-7800.0
31
0
0
LINE
8
DIM
10
17120.0
20
-15900.0
30
0
11
17320.0
21
-15700.0
31
0
0
POLYLINE
8
OUTDOOR
66
1
70
1
0
VERTEX
8
OUTDOOR
10
0.0
20
-15800.0
30
0
0
VERTEX
8
OUTDOOR
10
12600.0
20
-15800.0
30
0
0
VERTEX
8
OUTDOOR
10
12600.0
20
-18800.0
30
0
0
VERTEX
8
OUTDOOR
10
0.0
20
-18800.0
30
0
0
SEQEND
8
OUTDOOR
0
POLYLINE
8
OUTDOOR
66
1
70
1
0
VERTEX
8
OUTDOOR
10
6200.0
20
1800.0
30
0
0
VERTEX
8
OUTDOOR
10
8600.0
20
1800.0
30
0
0
VERTEX
8
OUTDOOR
10
8600.0
20
200.0
30
0
0
VERTEX
8
OUTDOOR
10
6200.0
20
200.0
30
0
0
SEQEND
8
OUTDOOR
0
POLYLINE
8
OUTDOOR
66
1
70
1
0
VERTEX
8
OUTDOOR
10
5900.0
20
2200.0
30
0
0
VERTEX
8
OUTDOOR
10
8900.0
20
2200.0
30
0
0
VERTEX
8
OUTDOOR
10
8900.0
20
200.0
30
0
0
VERTEX
8
OUTDOOR
10
5900.0
20
200.0
30
0
0
SEQEND
8
OUTDOOR
0
TEXT
8
TEXT
10
6300.0
20
3600.0
30
0
40
400.0
1
План 1-го этажа на отм. 0,000. Размеры в мм.
50
0
72
1
73
2
11
6300.0
21
3600.0
31
0
0
ENDSEC
0
EOF
