0
SECTION
2
HEADER
9
$ACADVER
1
AC1009
9
$DWGCODEPAGE
3
ANSI_1251
9
$INSUNITS
70
4
0
ENDSEC
0
SECTION
2
TABLES
0
TABLE
2
LAYER
70
19
0
LAYER
2
WALLS
70
0
62
7
6
CONTINUOUS
0
LAYER
2
WALLS_INT
70
0
62
8
6
CONTINUOUS
0
LAYER
2
OPENINGS
70
0
62
7
6
CONTINUOUS
0
LAYER
2
WINDOWS
70
0
62
5
6
CONTINUOUS
0
LAYER
2
DOORS
70
0
62
3
6
CONTINUOUS
0
LAYER
2
AXES
70
0
62
1
6
CONTINUOUS
0
LAYER
2
DIM
70
0
62
4
6
CONTINUOUS
0
LAYER
2
TEXT
70
0
62
7
6
CONTINUOUS
0
LAYER
2
STAIR
70
0
62
6
6
CONTINUOUS
0
LAYER
2
VENT
70
0
62
2
6
CONTINUOUS
0
LAYER
2
OUTDOOR
70
0
62
8
6
CONTINUOUS
0
LAYER
2
FURN
70
0
62
9
6
CONTINUOUS
0
LAYER
2
SITE
70
0
62
3
6
CONTINUOUS
0
LAYER
2
WATER
70
0
62
5
6
CONTINUOUS
0
LAYER
2
SEWER
70
0
62
30
6
CONTINUOUS
0
LAYER
2
GAS
70
0
62
2
6
CONTINUOUS
0
LAYER
2
POWER
70
0
62
1
6
CONTINUOUS
0
LAYER
2
ROOF
70
0
62
8
6
CONTINUOUS
0
LAYER
2
REBAR
70
0
62
1
6
CONTINUOUS
0
ENDTAB
0
ENDSEC
0
SECTION
2
ENTITIES
0
POLYLINE
8
WALLS
66
1
70
1
0
VERTEX
8
WALLS
10
13000.0
20
0.0
30
0
0
VERTEX
8
WALLS
10
0.0
20
0.0
30
0
0
VERTEX
8
WALLS
10
0.0
20
6620.0
30
0
0
VERTEX
8
WALLS
10
6500.0
20
10372.8
30
0
0
VERTEX
8
WALLS
10
13000.0
20
6620.0
30
0
0
SEQEND
8
WALLS
0
POLYLINE
8
ROOF
66
1
70
1
0
VERTEX
8
ROOF
10
13600.0
20
6553.6
30
0
0
VERTEX
8
ROOF
10
6500.0
20
10652.8
30
0
0
VERTEX
8
ROOF
10
-600.0
20
6553.6
30
0
0
VERTEX
8
ROOF
10
-600.0
20
6273.6
30
0
0
VERTEX
8
ROOF
10
6500.0
20
10372.8
30
0
0
VERTEX
8
ROOF
10
13600.0
20
6273.6
30
0
0
SEQEND
8
ROOF
0
POLYLINE
8
WALLS
66
1
70
1
0
VERTEX
8
WALLS
10
13000.0
20
-450.0
30
0
0
VERTEX
8
WALLS
10
0.0
20
-450.0
30
0
0
VERTEX
8
WALLS
10
0.0
20
0.0
30
0
0
VERTEX
8
WALLS
10
13000.0
20
0.0
30
0
0
SEQEND
8
WALLS
0
POLYLINE
8
WINDOWS
66
1
70
1
0
VERTEX
8
WINDOWS
10
8000.0
20
1250.0
30
0
0
VERTEX
8
WINDOWS
10
7200.0
20
1250.0
30
0
0
VERTEX
8
WINDOWS
10
7200.0
20
2500.0
30
0
0
VERTEX
8
WINDOWS
10
8000.0
20
2500.0
30
0
0
SEQEND
8
WINDOWS
0
POLYLINE
8
WINDOWS
66
1
70
1
0
VERTEX
8
WINDOWS
10
4000.0
20
1000.0
30
0
0
VERTEX
8
WINDOWS
10
2800.0
20
1000.0
30
0
0
VERTEX
8
WINDOWS
10
2800.0
20
2500.0
30
0
0
VERTEX
8
WINDOWS
10
4000.0
20
2500.0
30
0
0
SEQEND
8
WINDOWS
0
POLYLINE
8
WINDOWS
66
1
70
1
0
VERTEX
8
WINDOWS
10
11800.0
20
4300.0
30
0
0
VERTEX
8
WINDOWS
10
10300.0
20
4300.0
30
0
0
VERTEX
8
WINDOWS
10
10300.0
20
5800.0
30
0
0
VERTEX
8
WINDOWS
10
11800.0
20
5800.0
30
0
0
SEQEND
8
WINDOWS
0
POLYLINE
8
WINDOWS
66
1
70
1
0
VERTEX
8
WINDOWS
10
9100.0
20
4300.0
30
0
0
VERTEX
8
WINDOWS
10
7600.0
20
4300.0
30
0
0
VERTEX
8
WINDOWS
10
7600.0
20
5800.0
30
0
0
VERTEX
8
WINDOWS
10
9100.0
20
5800.0
30
0
0
SEQEND
8
WINDOWS
0
POLYLINE
8
WINDOWS
66
1
70
1
0
VERTEX
8
WINDOWS
10
5800.0
20
4300.0
30
0
0
VERTEX
8
WINDOWS
10
4600.0
20
4300.0
30
0
0
VERTEX
8
WINDOWS
10
4600.0
20
5800.0
30
0
0
VERTEX
8
WINDOWS
10
5800.0
20
5800.0
30
0
0
SEQEND
8
WINDOWS
0
POLYLINE
8
WINDOWS
66
1
70
1
0
VERTEX
8
WINDOWS
10
4000.0
20
4300.0
30
0
0
VERTEX
8
WINDOWS
10
2800.0
20
4300.0
30
0
0
VERTEX
8
WINDOWS
10
2800.0
20
5800.0
30
0
0
VERTEX
8
WINDOWS
10
4000.0
20
5800.0
30
0
0
SEQEND
8
WINDOWS
0
POLYLINE
8
WINDOWS
66
1
70
1
0
VERTEX
8
WINDOWS
10
2000.0
20
4300.0
30
0
0
VERTEX
8
WINDOWS
10
800.0
20
4300.0
30
0
0
VERTEX
8
WINDOWS
10
800.0
20
5800.0
30
0
0
VERTEX
8
WINDOWS
10
2000.0
20
5800.0
30
0
0
SEQEND
8
WINDOWS
0
POLYLINE
8
DOORS
66
1
70
1
0
VERTEX
8
DOORS
10
5900.0
20
-30.0
30
0
0
VERTEX
8
DOORS
10
4900.0
20
-30.0
30
0
0
VERTEX
8
DOORS
10
4900.0
20
2220.0
30
0
0
VERTEX
8
DOORS
10
5900.0
20
2220.0
30
0
0
SEQEND
8
DOORS
0
POLYLINE
8
DOORS
66
1
70
1
0
VERTEX
8
DOORS
10
12250.0
20
-280.0
30
0
0
VERTEX
8
DOORS
10
9250.0
20
-280.0
30
0
0
VERTEX
8
DOORS
10
9250.0
20
2250.0
30
0
0
VERTEX
8
DOORS
10
12250.0
20
2250.0
30
0
0
SEQEND
8
DOORS
0
LINE
8
SITE
10
-2000.0
20
-450.0
30
0
11
15000.0
21
-450.0
31
0
0
CIRCLE
8
AXES
10
12800.0
20
-1750.0
30
0
40
400.0
0
TEXT
8
AXES
10
12800.0
20
-1750.0
30
0
40
350.0
1
1
50
0
72
1
73
2
11
12800.0
21
-1750.0
31
0
0
CIRCLE
8
AXES
10
6500.0
20
-1750.0
30
0
40
400.0
0
TEXT
8
AXES
10
6500.0
20
-1750.0
30
0
40
350.0
1
2
50
0
72
1
73
2
11
6500.0
21
-1750.0
31
0
0
CIRCLE
8
AXES
10
200.0
20
-1750.0
30
0
40
400.0
0
TEXT
8
AXES
10
200.0
20
-1750.0
30
0
40
350.0
1
3
50
0
72
1
73
2
11
200.0
21
-1750.0
31
0
0
TEXT
8
TEXT
10
6500.0
20
11652.8
30
0
40
400.0
1
Фасад 3-1 (северный, со стороны улицы)
50
0
72
1
73
2
11
6500.0
21
11652.8
31
0
0
POLYLINE
8
WALLS
66
1
70
1
0
VERTEX
8
WALLS
10
19000.0
20
0.0
30
0
0
VERTEX
8
WALLS
10
32000.0
20
0.0
30
0
0
VERTEX
8
WALLS
10
32000.0
20
6620.0
30
0
0
VERTEX
8
WALLS
10
25500.0
20
10372.8
30
0
0
VERTEX
8
WALLS
10
19000.0
20
6620.0
30
0
0
SEQEND
8
WALLS
0
POLYLINE
8
ROOF
66
1
70
1
0
VERTEX
8
ROOF
10
18400.0
20
6553.6
30
0
0
VERTEX
8
ROOF
10
25500.0
20
10652.8
30
0
0
VERTEX
8
ROOF
10
32600.0
20
6553.6
30
0
0
VERTEX
8
ROOF
10
32600.0
20
6273.6
30
0
0
VERTEX
8
ROOF
10
25500.0
20
10372.8
30
0
0
VERTEX
8
ROOF
10
18400.0
20
6273.6
30
0
0
SEQEND
8
ROOF
0
POLYLINE
8
WALLS
66
1
70
1
0
VERTEX
8
WALLS
10
19000.0
20
-450.0
30
0
0
VERTEX
8
WALLS
10
32000.0
20
-450.0
30
0
0
VERTEX
8
WALLS
10
32000.0
20
0.0
30
0
0
VERTEX
8
WALLS
10
19000.0
20
0.0
30
0
0
SEQEND
8
WALLS
0
POLYLINE
8
WINDOWS
66
1
70
1
0
VERTEX
8
WINDOWS
10
29800.0
20
750.0
30
0
0
VERTEX
8
WINDOWS
10
31300.0
20
750.0
30
0
0
VERTEX
8
WINDOWS
10
31300.0
20
2500.0
30
0
0
VERTEX
8
WINDOWS
10
29800.0
20
2500.0
30
0
0
SEQEND
8
WINDOWS
0
POLYLINE
8
WINDOWS
66
1
70
1
0
VERTEX
8
WINDOWS
10
23400.0
20
1000.0
30
0
0
VERTEX
8
WINDOWS
10
24900.0
20
1000.0
30
0
0
VERTEX
8
WINDOWS
10
24900.0
20
2500.0
30
0
0
VERTEX
8
WINDOWS
10
23400.0
20
2500.0
30
0
0
SEQEND
8
WINDOWS
0
POLYLINE
8
WINDOWS
66
1
70
1
0
VERTEX
8
WINDOWS
10
29400.0
20
4300.0
30
0
0
VERTEX
8
WINDOWS
10
30900.0
20
4300.0
30
0
0
VERTEX
8
WINDOWS
10
30900.0
20
5800.0
30
0
0
VERTEX
8
WINDOWS
10
29400.0
20
5800.0
30
0
0
SEQEND
8
WINDOWS
0
POLYLINE
8
WINDOWS
66
1
70
1
0
VERTEX
8
WINDOWS
10
26400.0
20
4300.0
30
0
0
VERTEX
8
WINDOWS
10
27900.0
20
4300.0
30
0
0
VERTEX
8
WINDOWS
10
27900.0
20
5800.0
30
0
0
VERTEX
8
WINDOWS
10
26400.0
20
5800.0
30
0
0
SEQEND
8
WINDOWS
0
POLYLINE
8
WINDOWS
66
1
70
1
0
VERTEX
8
WINDOWS
10
21200.0
20
4300.0
30
0
0
VERTEX
8
WINDOWS
10
23600.0
20
4300.0
30
0
0
VERTEX
8
WINDOWS
10
23600.0
20
5800.0
30
0
0
VERTEX
8
WINDOWS
10
21200.0
20
5800.0
30
0
0
SEQEND
8
WINDOWS
0
POLYLINE
8
DOORS
66
1
70
1
0
VERTEX
8
DOORS
10
20400.0
20
0.0
30
0
0
VERTEX
8
DOORS
10
22800.0
20
0.0
30
0
0
VERTEX
8
DOORS
10
22800.0
20
2500.0
30
0
0
VERTEX
8
DOORS
10
20400.0
20
2500.0
30
0
0
SEQEND
8
DOORS
0
POLYLINE
8
DOORS
66
1
70
1
0
VERTEX
8
DOORS
10
26200.0
20
0.0
30
0
0
VERTEX
8
DOORS
10
29200.0
20
0.0
30
0
0
VERTEX
8
DOORS
10
29200.0
20
2500.0
30
0
0
VERTEX
8
DOORS
10
26200.0
20
2500.0
30
0
0
SEQEND
8
DOORS
0
LINE
8
SITE
10
17000.0
20
-450.0
30
0
11
34000.0
21
-450.0
31
0
0
CIRCLE
8
AXES
10
19200.0
20
-1750.0
30
0
40
400.0
0
TEXT
8
AXES
10
19200.0
20
-1750.0
30
0
40
350.0
1
1
50
0
72
1
73
2
11
19200.0
21
-1750.0
31
0
0
CIRCLE
8
AXES
10
25500.0
20
-1750.0
30
0
40
400.0
0
TEXT
8
AXES
10
25500.0
20
-1750.0
30
0
40
350.0
1
2
50
0
72
1
73
2
11
25500.0
21
-1750.0
31
0
0
CIRCLE
8
AXES
10
31800.0
20
-1750.0
30
0
40
400.0
0
TEXT
8
AXES
10
31800.0
20
-1750.0
30
0
40
350.0
1
3
50
0
72
1
73
2
11
31800.0
21
-1750.0
31
0
0
TEXT
8
TEXT
10
25500.0
20
11652.8
30
0
40
400.0
1
Фасад 1-3 (южный, со стороны сада)
50
0
72
1
73
2
11
25500.0
21
11652.8
31
0
0
ENDSEC
0
EOF
