0
SECTION
2
HEADER
9
$ACADVER
1
AC1009
9
$DWGCODEPAGE
3
ANSI_1251
9
$INSUNITS
70
4
0
ENDSEC
0
SECTION
2
TABLES
0
TABLE
2
LAYER
70
19
0
LAYER
2
WALLS
70
0
62
7
6
CONTINUOUS
0
LAYER
2
WALLS_INT
70
0
62
8
6
CONTINUOUS
0
LAYER
2
OPENINGS
70
0
62
7
6
CONTINUOUS
0
LAYER
2
WINDOWS
70
0
62
5
6
CONTINUOUS
0
LAYER
2
DOORS
70
0
62
3
6
CONTINUOUS
0
LAYER
2
AXES
70
0
62
1
6
CONTINUOUS
0
LAYER
2
DIM
70
0
62
4
6
CONTINUOUS
0
LAYER
2
TEXT
70
0
62
7
6
CONTINUOUS
0
LAYER
2
STAIR
70
0
62
6
6
CONTINUOUS
0
LAYER
2
VENT
70
0
62
2
6
CONTINUOUS
0
LAYER
2
OUTDOOR
70
0
62
8
6
CONTINUOUS
0
LAYER
2
FURN
70
0
62
9
6
CONTINUOUS
0
LAYER
2
SITE
70
0
62
3
6
CONTINUOUS
0
LAYER
2
WATER
70
0
62
5
6
CONTINUOUS
0
LAYER
2
SEWER
70
0
62
30
6
CONTINUOUS
0
LAYER
2
GAS
70
0
62
2
6
CONTINUOUS
0
LAYER
2
POWER
70
0
62
1
6
CONTINUOUS
0
LAYER
2
ROOF
70
0
62
8
6
CONTINUOUS
0
LAYER
2
REBAR
70
0
62
1
6
CONTINUOUS
0
ENDTAB
0
ENDSEC
0
SECTION
2
ENTITIES
0
POLYLINE
8
SITE
66
1
70
1
0
VERTEX
8
SITE
10
0.0
20
0.0
30
0
0
VERTEX
8
SITE
10
20000.0
20
0.0
30
0
0
VERTEX
8
SITE
10
20000.0
20
-30000.0
30
0
0
VERTEX
8
SITE
10
0.0
20
-30000.0
30
0
0
SEQEND
8
SITE
0
POLYLINE
8
DIM
66
1
70
1
0
VERTEX
8
DIM
10
3000.0
20
-5000.0
30
0
0
VERTEX
8
DIM
10
17000.0
20
-5000.0
30
0
0
VERTEX
8
DIM
10
17000.0
20
-27000.0
30
0
0
VERTEX
8
DIM
10
3000.0
20
-27000.0
30
0
0
SEQEND
8
DIM
0
POLYLINE
8
WALLS
66
1
70
1
0
VERTEX
8
WALLS
10
3500.0
20
-5000.0
30
0
0
VERTEX
8
WALLS
10
16500.0
20
-5000.0
30
0
0
VERTEX
8
WALLS
10
16500.0
20
-21000.0
30
0
0
VERTEX
8
WALLS
10
3500.0
20
-21000.0
30
0
0
SEQEND
8
WALLS
0
POLYLINE
8
ROOF
66
1
70
1
0
VERTEX
8
ROOF
10
2900.0
20
-4500.0
30
0
0
VERTEX
8
ROOF
10
17100.0
20
-4500.0
30
0
0
VERTEX
8
ROOF
10
17100.0
20
-21500.0
30
0
0
VERTEX
8
ROOF
10
2900.0
20
-21500.0
30
0
0
SEQEND
8
ROOF
0
LINE
8
ROOF
10
10000.0
20
-4500.0
30
0
11
10000.0
21
-21500.0
31
0
0
POLYLINE
8
OUTDOOR
66
1
70
1
0
VERTEX
8
OUTDOOR
10
3700.0
20
-21000.0
30
0
0
VERTEX
8
OUTDOOR
10
16300.0
20
-21000.0
30
0
0
VERTEX
8
OUTDOOR
10
16300.0
20
-24000.0
30
0
0
VERTEX
8
OUTDOOR
10
3700.0
20
-24000.0
30
0
0
SEQEND
8
OUTDOOR
0
POLYLINE
8
OUTDOOR
66
1
70
1
0
VERTEX
8
OUTDOOR
10
9900.0
20
-3400.0
30
0
0
VERTEX
8
OUTDOOR
10
12300.0
20
-3400.0
30
0
0
VERTEX
8
OUTDOOR
10
12300.0
20
-5000.0
30
0
0
VERTEX
8
OUTDOOR
10
9900.0
20
-5000.0
30
0
0
SEQEND
8
OUTDOOR
0
POLYLINE
8
OUTDOOR
66
1
70
1
0
VERTEX
8
OUTDOOR
10
2000.0
20
0.0
30
0
0
VERTEX
8
OUTDOOR
10
8600.0
20
0.0
30
0
0
VERTEX
8
OUTDOOR
10
8600.0
20
-5000.0
30
0
0
VERTEX
8
OUTDOOR
10
2000.0
20
-5000.0
30
0
0
SEQEND
8
OUTDOOR
0
POLYLINE
8
OUTDOOR
66
1
70
1
0
VERTEX
8
OUTDOOR
10
8600.0
20
0.0
30
0
0
VERTEX
8
OUTDOOR
10
9600.0
20
0.0
30
0
0
VERTEX
8
OUTDOOR
10
9600.0
20
-5000.0
30
0
0
VERTEX
8
OUTDOOR
10
8600.0
20
-5000.0
30
0
0
SEQEND
8
OUTDOOR
0
CIRCLE
8
SITE
10
1500.0
20
-2000.0
30
0
40
750.0
0
TEXT
8
TEXT
10
1500.0
20
-2000.0
30
0
40
300.0
1
5
50
0
72
1
73
2
11
1500.0
21
-2000.0
31
0
0
CIRCLE
8
SITE
10
18000.0
20
-27000.0
30
0
40
600.0
0
TEXT
8
TEXT
10
18000.0
20
-27000.0
30
0
40
300.0
1
6
50
0
72
1
73
2
11
18000.0
21
-27000.0
31
0
0
CIRCLE
8
SITE
10
11500.0
20
-28800.0
30
0
40
500.0
0
TEXT
8
TEXT
10
11500.0
20
-28800.0
30
0
40
300.0
1
7
50
0
72
1
73
2
11
11500.0
21
-28800.0
31
0
0
POLYLINE
8
SITE
66
1
70
1
0
VERTEX
8
SITE
10
18100.0
20
-100.0
30
0
0
VERTEX
8
SITE
10
18700.0
20
-100.0
30
0
0
VERTEX
8
SITE
10
18700.0
20
-500.0
30
0
0
VERTEX
8
SITE
10
18100.0
20
-500.0
30
0
0
SEQEND
8
SITE
0
TEXT
8
TEXT
10
18400.0
20
500.0
30
0
40
300.0
1
8
50
0
72
1
73
2
11
18400.0
21
500.0
31
0
0
POLYLINE
8
SITE
66
1
70
1
0
VERTEX
8
SITE
10
1950.0
20
-150.0
30
0
0
VERTEX
8
SITE
10
2450.0
20
-150.0
30
0
0
VERTEX
8
SITE
10
2450.0
20
-450.0
30
0
0
VERTEX
8
SITE
10
1950.0
20
-450.0
30
0
0
SEQEND
8
SITE
0
TEXT
8
TEXT
10
2200.0
20
450.0
30
0
40
300.0
1
9
50
0
72
1
73
2
11
2200.0
21
450.0
31
0
0
POLYLINE
8
SITE
66
1
70
1
0
VERTEX
8
SITE
10
8000.0
20
-200.0
30
0
0
VERTEX
8
SITE
10
9200.0
20
-200.0
30
0
0
VERTEX
8
SITE
10
9200.0
20
-1000.0
30
0
0
VERTEX
8
SITE
10
8000.0
20
-1000.0
30
0
0
SEQEND
8
SITE
0
TEXT
8
TEXT
10
8600.0
20
400.0
30
0
40
300.0
1
10
50
0
72
1
73
2
11
8600.0
21
400.0
31
0
0
CIRCLE
8
SITE
10
1500.0
20
-22000.0
30
0
40
500.0
0
TEXT
8
TEXT
10
1500.0
20
-22000.0
30
0
40
300.0
1
12
50
0
72
1
73
2
11
1500.0
21
-22000.0
31
0
0
TEXT
8
TEXT
10
10000.0
20
-11700.0
30
0
40
600.0
1
1
50
0
72
1
73
2
11
10000.0
21
-11700.0
31
0
0
LINE
8
SEWER
10
16500.0
20
-15200.0
30
0
11
18000.0
21
-15200.0
31
0
0
LINE
8
SEWER
10
18000.0
20
-15200.0
30
0
11
18000.0
21
-27000.0
31
0
0
LINE
8
SEWER
10
18000.0
20
-27000.0
30
0
11
17400.0
21
-27000.0
31
0
0
LINE
8
SEWER
10
17400.0
20
-27000.0
30
0
11
12000.0
21
-28800.0
31
0
0
LINE
8
WATER
10
1500.0
20
-2000.0
30
0
11
1500.0
21
-3500.0
31
0
0
LINE
8
WATER
10
1500.0
20
-3500.0
30
0
11
8100.0
21
-3500.0
31
0
0
LINE
8
WATER
10
8100.0
20
-3500.0
30
0
11
8100.0
21
-5500.0
31
0
0
LINE
8
GAS
10
18400.0
20
-500.0
30
0
11
18400.0
21
-1500.0
31
0
0
LINE
8
GAS
10
18400.0
20
-1500.0
30
0
11
8900.0
21
-1500.0
31
0
0
LINE
8
GAS
10
8900.0
20
-1500.0
30
0
11
8900.0
21
-5000.0
31
0
0
LINE
8
POWER
10
2200.0
20
-500.0
30
0
11
2200.0
21
-900.0
31
0
0
LINE
8
POWER
10
2200.0
20
-900.0
30
0
11
8700.0
21
-900.0
31
0
0
LINE
8
POWER
10
8700.0
20
-900.0
30
0
11
8700.0
21
-5000.0
31
0
0
TEXT
8
TEXT
10
10000.0
20
2000.0
30
0
40
500.0
1
Генплан участка 20х30 м. Размеры в мм. Улица — сверху (север).
50
0
72
1
73
2
11
10000.0
21
2000.0
31
0
0
ENDSEC
0
EOF
