0
SECTION
2
HEADER
9
$ACADVER
1
AC1009
9
$DWGCODEPAGE
3
ANSI_1251
9
$INSUNITS
70
4
0
ENDSEC
0
SECTION
2
TABLES
0
TABLE
2
LAYER
70
19
0
LAYER
2
WALLS
70
0
62
7
6
CONTINUOUS
0
LAYER
2
WALLS_INT
70
0
62
8
6
CONTINUOUS
0
LAYER
2
OPENINGS
70
0
62
7
6
CONTINUOUS
0
LAYER
2
WINDOWS
70
0
62
5
6
CONTINUOUS
0
LAYER
2
DOORS
70
0
62
3
6
CONTINUOUS
0
LAYER
2
AXES
70
0
62
1
6
CONTINUOUS
0
LAYER
2
DIM
70
0
62
4
6
CONTINUOUS
0
LAYER
2
TEXT
70
0
62
7
6
CONTINUOUS
0
LAYER
2
STAIR
70
0
62
6
6
CONTINUOUS
0
LAYER
2
VENT
70
0
62
2
6
CONTINUOUS
0
LAYER
2
OUTDOOR
70
0
62
8
6
CONTINUOUS
0
LAYER
2
FURN
70
0
62
9
6
CONTINUOUS
0
LAYER
2
SITE
70
0
62
3
6
CONTINUOUS
0
LAYER
2
WATER
70
0
62
5
6
CONTINUOUS
0
LAYER
2
SEWER
70
0
62
30
6
CONTINUOUS
0
LAYER
2
GAS
70
0
62
2
6
CONTINUOUS
0
LAYER
2
POWER
70
0
62
1
6
CONTINUOUS
0
LAYER
2
ROOF
70
0
62
8
6
CONTINUOUS
0
LAYER
2
REBAR
70
0
62
1
6
CONTINUOUS
0
ENDTAB
0
ENDSEC
0
SECTION
2
ENTITIES
0
POLYLINE
8
WALLS
66
1
70
1
0
VERTEX
8
WALLS
10
-500.0
20
500.0
30
0
0
VERTEX
8
WALLS
10
13100.0
20
500.0
30
0
0
VERTEX
8
WALLS
10
13100.0
20
-16100.0
30
0
0
VERTEX
8
WALLS
10
-500.0
20
-16100.0
30
0
0
SEQEND
8
WALLS
0
POLYLINE
8
WALLS
66
1
70
1
0
VERTEX
8
WALLS
10
-200.0
20
200.0
30
0
0
VERTEX
8
WALLS
10
12800.0
20
200.0
30
0
0
VERTEX
8
WALLS
10
12800.0
20
-15800.0
30
0
0
VERTEX
8
WALLS
10
-200.0
20
-15800.0
30
0
0
SEQEND
8
WALLS
0
POLYLINE
8
WALLS
66
1
70
1
0
VERTEX
8
WALLS
10
200.0
20
-200.0
30
0
0
VERTEX
8
WALLS
10
12400.0
20
-200.0
30
0
0
VERTEX
8
WALLS
10
12400.0
20
-15400.0
30
0
0
VERTEX
8
WALLS
10
200.0
20
-15400.0
30
0
0
SEQEND
8
WALLS
0
POLYLINE
8
WALLS
66
1
70
1
0
VERTEX
8
WALLS
10
6175.0
20
-200.0
30
0
0
VERTEX
8
WALLS
10
6425.0
20
-200.0
30
0
0
VERTEX
8
WALLS
10
6425.0
20
-15400.0
30
0
0
VERTEX
8
WALLS
10
6175.0
20
-15400.0
30
0
0
SEQEND
8
WALLS
0
CIRCLE
8
SEWER
10
10600.0
20
-5000.0
30
0
40
150.0
0
TEXT
8
TEXT
10
10600.0
20
-4600.0
30
0
40
200.0
1
Ст1 ?160
50
0
72
1
73
2
11
10600.0
21
-4600.0
31
0
0
CIRCLE
8
SEWER
10
6000.0
20
-4800.0
30
0
40
150.0
0
TEXT
8
TEXT
10
6000.0
20
-4400.0
30
0
40
200.0
1
Ст2 ?160
50
0
72
1
73
2
11
6000.0
21
-4400.0
31
0
0
CIRCLE
8
SEWER
10
600.0
20
-10400.0
30
0
40
150.0
0
TEXT
8
TEXT
10
600.0
20
-10000.0
30
0
40
200.0
1
Ст3 ?160
50
0
72
1
73
2
11
600.0
21
-10000.0
31
0
0
CIRCLE
8
SEWER
10
4400.0
20
-500.0
30
0
40
150.0
0
TEXT
8
TEXT
10
4400.0
20
-100.0
30
0
40
200.0
1
В1 ?50
50
0
72
1
73
2
11
4400.0
21
-100.0
31
0
0
CIRCLE
8
SEWER
10
5500.0
20
-3300.0
30
0
40
150.0
0
TEXT
8
TEXT
10
5500.0
20
-2900.0
30
0
40
200.0
1
W ?63
50
0
72
1
73
2
11
5500.0
21
-2900.0
31
0
0
LINE
8
SEWER
10
600.0
20
-10400.0
30
0
11
13600.0
21
-10400.0
31
0
0
LINE
8
SEWER
10
6000.0
20
-4800.0
30
0
11
6000.0
21
-10400.0
31
0
0
LINE
8
SEWER
10
10600.0
20
-5000.0
30
0
11
10600.0
21
-10400.0
31
0
0
POLYLINE
8
WATER
66
1
70
1
0
VERTEX
8
WATER
10
-1400.0
20
1400.0
30
0
0
VERTEX
8
WATER
10
14000.0
20
1400.0
30
0
0
VERTEX
8
WATER
10
14000.0
20
-17000.0
30
0
0
VERTEX
8
WATER
10
-1400.0
20
-17000.0
30
0
0
SEQEND
8
WATER
0
LINE
8
AXES
10
0.0
20
4000.0
30
0
11
0.0
21
-19600.0
31
0
0
CIRCLE
8
AXES
10
0.0
20
4500.0
30
0
40
400.0
0
TEXT
8
AXES
10
0.0
20
4500.0
30
0
40
350.0
1
1
50
0
72
1
73
2
11
0.0
21
4500.0
31
0
0
LINE
8
AXES
10
6300.0
20
4000.0
30
0
11
6300.0
21
-19600.0
31
0
0
CIRCLE
8
AXES
10
6300.0
20
4500.0
30
0
40
400.0
0
TEXT
8
AXES
10
6300.0
20
4500.0
30
0
40
350.0
1
2
50
0
72
1
73
2
11
6300.0
21
4500.0
31
0
0
LINE
8
AXES
10
12600.0
20
4000.0
30
0
11
12600.0
21
-19600.0
31
0
0
CIRCLE
8
AXES
10
12600.0
20
4500.0
30
0
40
400.0
0
TEXT
8
AXES
10
12600.0
20
4500.0
30
0
40
350.0
1
3
50
0
72
1
73
2
11
12600.0
21
4500.0
31
0
0
LINE
8
AXES
10
-3200.0
20
-0.0
30
0
11
15800.0
21
-0.0
31
0
0
CIRCLE
8
AXES
10
-3700.0
20
-0.0
30
0
40
400.0
0
TEXT
8
AXES
10
-3700.0
20
-0.0
30
0
40
350.0
1
А
50
0
72
1
73
2
11
-3700.0
21
-0.0
31
0
0
LINE
8
AXES
10
-3200.0
20
-15600.0
30
0
11
15800.0
21
-15600.0
31
0
0
CIRCLE
8
AXES
10
-3700.0
20
-15600.0
30
0
40
400.0
0
TEXT
8
AXES
10
-3700.0
20
-15600.0
30
0
40
350.0
1
Б
50
0
72
1
73
2
11
-3700.0
21
-15600.0
31
0
0
TEXT
8
REBAR
10
6300.0
20
-13000.0
30
0
40
250.0
1
Плита 300 B25 W6 F150, сетки С1/С2 ?14 A500C 200х200, рёбра 400х300 / 250х300
50
0
72
1
73
2
11
6300.0
21
-13000.0
31
0
0
TEXT
8
TEXT
10
6300.0
20
3500.0
30
0
40
400.0
1
Схема фундаментной плиты на отм. -0,300. Размеры в мм.
50
0
72
1
73
2
11
6300.0
21
3500.0
31
0
0
ENDSEC
0
EOF
