# Индивидуальный жилой дом 13×16 м — параметрическая модель (стадия ЭП). Единицы: м, Y — вверх.
mtllib house.mtl
v -0.2000 0.0000 0.2000
v 12.8000 0.0000 0.2000
v 12.8000 0.0000 -0.2000
v -0.2000 0.0000 -0.2000
v -0.2000 3.2000 0.2000
v 12.8000 3.2000 0.2000
v 12.8000 3.2000 -0.2000
v -0.2000 3.2000 -0.2000
v -0.2000 0.0000 -15.4000
v 12.8000 0.0000 -15.4000
v 12.8000 0.0000 -15.8000
v -0.2000 0.0000 -15.8000
v -0.2000 3.2000 -15.4000
v 12.8000 3.2000 -15.4000
v 12.8000 3.2000 -15.8000
v -0.2000 3.2000 -15.8000
v -0.2000 0.0000 0.2000
v 0.2000 0.0000 0.2000
v 0.2000 0.0000 -15.8000
v -0.2000 0.0000 -15.8000
v -0.2000 3.2000 0.2000
v 0.2000 3.2000 0.2000
v 0.2000 3.2000 -15.8000
v -0.2000 3.2000 -15.8000
v 12.4000 0.0000 0.2000
v 12.8000 0.0000 0.2000
v 12.8000 0.0000 -15.8000
v 12.4000 0.0000 -15.8000
v 12.4000 3.2000 0.2000
v 12.8000 3.2000 0.2000
v 12.8000 3.2000 -15.8000
v 12.4000 3.2000 -15.8000
v -0.2000 3.2000 0.2000
v 12.8000 3.2000 0.2000
v 12.8000 3.2000 -0.2000
v -0.2000 3.2000 -0.2000
v -0.2000 6.5000 0.2000
v 12.8000 6.5000 0.2000
v 12.8000 6.5000 -0.2000
v -0.2000 6.5000 -0.2000
v -0.2000 3.2000 -15.4000
v 12.8000 3.2000 -15.4000
v 12.8000 3.2000 -15.8000
v -0.2000 3.2000 -15.8000
v -0.2000 6.5000 -15.4000
v 12.8000 6.5000 -15.4000
v 12.8000 6.5000 -15.8000
v -0.2000 6.5000 -15.8000
v -0.2000 3.2000 0.2000
v 0.2000 3.2000 0.2000
v 0.2000 3.2000 -15.8000
v -0.2000 3.2000 -15.8000
v -0.2000 6.5000 0.2000
v 0.2000 6.5000 0.2000
v 0.2000 6.5000 -15.8000
v -0.2000 6.5000 -15.8000
v 12.4000 3.2000 0.2000
v 12.8000 3.2000 0.2000
v 12.8000 3.2000 -15.8000
v 12.4000 3.2000 -15.8000
v 12.4000 6.5000 0.2000
v 12.8000 6.5000 0.2000
v 12.8000 6.5000 -15.8000
v 12.4000 6.5000 -15.8000
v -0.2200 -0.7500 0.2200
v 12.8200 -0.7500 0.2200
v 12.8200 -0.7500 -15.8200
v -0.2200 -0.7500 -15.8200
v -0.2200 0.0000 0.2200
v 12.8200 0.0000 0.2200
v 12.8200 0.0000 -15.8200
v -0.2200 0.0000 -15.8200
v -0.2000 6.5000 0.5000
v 12.8000 6.5000 0.5000
v 12.8000 6.6200 0.5000
v 6.3000 10.3728 0.5000
v -0.2000 6.6200 0.5000
v -0.2000 6.5000 0.2000
v 12.8000 6.5000 0.2000
v 12.8000 6.6200 0.2000
v 6.3000 10.3728 0.2000
v -0.2000 6.6200 0.2000
v -0.2000 6.5000 -15.8000
v 12.8000 6.5000 -15.8000
v 12.8000 6.6200 -15.8000
v 6.3000 10.3728 -15.8000
v -0.2000 6.6200 -15.8000
v -0.2000 6.5000 -16.1000
v 12.8000 6.5000 -16.1000
v 12.8000 6.6200 -16.1000
v 6.3000 10.3728 -16.1000
v -0.2000 6.6200 -16.1000
v 6.1750 0.0000 -0.2000
v 6.4250 0.0000 -0.2000
v 6.4250 0.0000 -15.4000
v 6.1750 0.0000 -15.4000
v 6.1750 3.0000 -0.2000
v 6.4250 3.0000 -0.2000
v 6.4250 3.0000 -15.4000
v 6.1750 3.0000 -15.4000
v 3.9000 0.0000 -0.2000
v 4.1000 0.0000 -0.2000
v 4.1000 0.0000 -6.6000
v 3.9000 0.0000 -6.6000
v 3.9000 3.0000 -0.2000
v 4.1000 3.0000 -0.2000
v 4.1000 3.0000 -6.6000
v 3.9000 3.0000 -6.6000
v 0.2000 0.0000 -6.6000
v 6.1750 0.0000 -6.6000
v 6.1750 0.0000 -6.8000
v 0.2000 0.0000 -6.8000
v 0.2000 3.0000 -6.6000
v 6.1750 3.0000 -6.6000
v 6.1750 3.0000 -6.8000
v 0.2000 3.0000 -6.8000
v 4.1000 0.0000 -2.9000
v 6.1750 0.0000 -2.9000
v 6.1750 0.0000 -3.0000
v 4.1000 0.0000 -3.0000
v 4.1000 3.0000 -2.9000
v 6.1750 3.0000 -2.9000
v 6.1750 3.0000 -3.0000
v 4.1000 3.0000 -3.0000
v 4.0000 0.0000 -6.8000
v 4.1500 0.0000 -6.8000
v 4.1500 0.0000 -10.2500
v 4.0000 0.0000 -10.2500
v 4.0000 3.0000 -6.8000
v 4.1500 3.0000 -6.8000
v 4.1500 3.0000 -10.2500
v 4.0000 3.0000 -10.2500
v 4.1500 0.0000 -8.2000
v 6.1750 0.0000 -8.2000
v 6.1750 0.0000 -8.3000
v 4.1500 0.0000 -8.3000
v 4.1500 3.0000 -8.2000
v 6.1750 3.0000 -8.2000
v 6.1750 3.0000 -8.3000
v 4.1500 3.0000 -8.3000
v 0.2000 0.0000 -10.2000
v 6.1750 0.0000 -10.2000
v 6.1750 0.0000 -10.3500
v 0.2000 0.0000 -10.3500
v 0.2000 3.0000 -10.2000
v 6.1750 3.0000 -10.2000
v 6.1750 3.0000 -10.3500
v 0.2000 3.0000 -10.3500
v 8.3000 0.0000 -0.2000
v 8.4000 0.0000 -0.2000
v 8.4000 0.0000 -2.0000
v 8.3000 0.0000 -2.0000
v 8.3000 3.0000 -0.2000
v 8.4000 3.0000 -0.2000
v 8.4000 3.0000 -2.0000
v 8.3000 3.0000 -2.0000
v 6.4250 0.0000 -2.0000
v 8.3000 0.0000 -2.0000
v 8.3000 0.0000 -2.1000
v 6.4250 0.0000 -2.1000
v 6.4250 3.0000 -2.0000
v 8.3000 3.0000 -2.0000
v 8.3000 3.0000 -2.1000
v 6.4250 3.0000 -2.1000
v 10.4000 0.0000 -0.2000
v 10.5000 0.0000 -0.2000
v 10.5000 0.0000 -2.0000
v 10.4000 0.0000 -2.0000
v 10.4000 3.0000 -0.2000
v 10.5000 3.0000 -0.2000
v 10.5000 3.0000 -2.0000
v 10.4000 3.0000 -2.0000
v 10.5000 0.0000 -2.0000
v 12.4000 0.0000 -2.0000
v 12.4000 0.0000 -2.1000
v 10.5000 0.0000 -2.1000
v 10.5000 3.0000 -2.0000
v 12.4000 3.0000 -2.0000
v 12.4000 3.0000 -2.1000
v 10.5000 3.0000 -2.1000
v 10.4000 0.0000 -3.9000
v 12.4000 0.0000 -3.9000
v 12.4000 0.0000 -4.0000
v 10.4000 0.0000 -4.0000
v 10.4000 3.0000 -3.9000
v 12.4000 3.0000 -3.9000
v 12.4000 3.0000 -4.0000
v 10.4000 3.0000 -4.0000
v 10.4000 0.0000 -4.0000
v 10.5000 0.0000 -4.0000
v 10.5000 0.0000 -8.0000
v 10.4000 0.0000 -8.0000
v 10.4000 3.0000 -4.0000
v 10.5000 3.0000 -4.0000
v 10.5000 3.0000 -8.0000
v 10.4000 3.0000 -8.0000
v 10.5000 0.0000 -6.1000
v 12.4000 0.0000 -6.1000
v 12.4000 0.0000 -6.2000
v 10.5000 0.0000 -6.2000
v 10.5000 3.0000 -6.1000
v 12.4000 3.0000 -6.1000
v 12.4000 3.0000 -6.2000
v 10.5000 3.0000 -6.2000
v 10.4000 0.0000 -8.0000
v 12.4000 0.0000 -8.0000
v 12.4000 0.0000 -8.1000
v 10.4000 0.0000 -8.1000
v 10.4000 3.0000 -8.0000
v 12.4000 3.0000 -8.0000
v 12.4000 3.0000 -8.1000
v 10.4000 3.0000 -8.1000
v 6.4250 0.0000 -8.0000
v 8.9250 0.0000 -8.0000
v 8.9250 0.0000 -8.1000
v 6.4250 0.0000 -8.1000
v 6.4250 3.0000 -8.0000
v 8.9250 3.0000 -8.0000
v 8.9250 3.0000 -8.1000
v 6.4250 3.0000 -8.1000
v 6.1750 3.3000 -0.2000
v 6.4250 3.3000 -0.2000
v 6.4250 3.3000 -15.4000
v 6.1750 3.3000 -15.4000
v 6.1750 6.3000 -0.2000
v 6.4250 6.3000 -0.2000
v 6.4250 6.3000 -15.4000
v 6.1750 6.3000 -15.4000
v 0.2000 3.3000 -4.5000
v 6.1750 3.3000 -4.5000
v 6.1750 3.3000 -4.6500
v 0.2000 3.3000 -4.6500
v 0.2000 6.3000 -4.5000
v 6.1750 6.3000 -4.5000
v 6.1750 6.3000 -4.6500
v 0.2000 6.3000 -4.6500
v 3.2000 3.3000 -4.6500
v 3.3000 3.3000 -4.6500
v 3.3000 3.3000 -8.0000
v 3.2000 3.3000 -8.0000
v 3.2000 6.3000 -4.6500
v 3.3000 6.3000 -4.6500
v 3.3000 6.3000 -8.0000
v 3.2000 6.3000 -8.0000
v 0.2000 3.3000 -8.0000
v 6.1750 3.3000 -8.0000
v 6.1750 3.3000 -8.1000
v 0.2000 3.3000 -8.1000
v 0.2000 6.3000 -8.0000
v 6.1750 6.3000 -8.0000
v 6.1750 6.3000 -8.1000
v 0.2000 6.3000 -8.1000
v 0.2000 3.3000 -9.3500
v 6.1750 3.3000 -9.3500
v 6.1750 3.3000 -9.5000
v 0.2000 3.3000 -9.5000
v 0.2000 6.3000 -9.3500
v 6.1750 6.3000 -9.3500
v 6.1750 6.3000 -9.5000
v 0.2000 6.3000 -9.5000
v 2.6000 3.3000 -9.5000
v 2.7000 3.3000 -9.5000
v 2.7000 3.3000 -11.6500
v 2.6000 3.3000 -11.6500
v 2.6000 6.3000 -9.5000
v 2.7000 6.3000 -9.5000
v 2.7000 6.3000 -11.6500
v 2.6000 6.3000 -11.6500
v 4.6000 3.3000 -9.5000
v 4.7000 3.3000 -9.5000
v 4.7000 3.3000 -11.6500
v 4.6000 3.3000 -11.6500
v 4.6000 6.3000 -9.5000
v 4.7000 6.3000 -9.5000
v 4.7000 6.3000 -11.6500
v 4.6000 6.3000 -11.6500
v 0.2000 3.3000 -11.6500
v 6.1750 3.3000 -11.6500
v 6.1750 3.3000 -11.8000
v 0.2000 3.3000 -11.8000
v 0.2000 6.3000 -11.6500
v 6.1750 6.3000 -11.6500
v 6.1750 6.3000 -11.8000
v 0.2000 6.3000 -11.8000
v 10.4000 3.3000 -3.9000
v 12.4000 3.3000 -3.9000
v 12.4000 3.3000 -4.0000
v 10.4000 3.3000 -4.0000
v 10.4000 6.3000 -3.9000
v 12.4000 6.3000 -3.9000
v 12.4000 6.3000 -4.0000
v 10.4000 6.3000 -4.0000
v 10.4000 3.3000 -4.0000
v 10.5000 3.3000 -4.0000
v 10.5000 3.3000 -9.3500
v 10.4000 3.3000 -9.3500
v 10.4000 6.3000 -4.0000
v 10.5000 6.3000 -4.0000
v 10.5000 6.3000 -9.3500
v 10.4000 6.3000 -9.3500
v 10.5000 3.3000 -6.8000
v 12.4000 3.3000 -6.8000
v 12.4000 3.3000 -6.9000
v 10.5000 3.3000 -6.9000
v 10.5000 6.3000 -6.8000
v 12.4000 6.3000 -6.8000
v 12.4000 6.3000 -6.9000
v 10.5000 6.3000 -6.9000
v 6.4250 3.3000 -9.3500
v 12.4000 3.3000 -9.3500
v 12.4000 3.3000 -9.5000
v 6.4250 3.3000 -9.5000
v 6.4250 6.3000 -9.3500
v 12.4000 6.3000 -9.3500
v 12.4000 6.3000 -9.5000
v 6.4250 6.3000 -9.5000
v 9.2000 3.3000 -9.5000
v 9.3500 3.3000 -9.5000
v 9.3500 3.3000 -15.4000
v 9.2000 3.3000 -15.4000
v 9.2000 6.3000 -9.5000
v 9.3500 6.3000 -9.5000
v 9.3500 6.3000 -15.4000
v 9.2000 6.3000 -15.4000
v -0.1000 3.0000 0.1000
v 6.4250 3.0000 0.1000
v 6.4250 3.0000 -15.7000
v -0.1000 3.0000 -15.7000
v -0.1000 3.2000 0.1000
v 6.4250 3.2000 0.1000
v 6.4250 3.2000 -15.7000
v -0.1000 3.2000 -15.7000
v 6.4250 3.0000 0.1000
v 12.7000 3.0000 0.1000
v 12.7000 3.0000 -4.3300
v 6.4250 3.0000 -4.3300
v 6.4250 3.2000 0.1000
v 12.7000 3.2000 0.1000
v 12.7000 3.2000 -4.3300
v 6.4250 3.2000 -4.3300
v 6.4250 3.0000 -8.0000
v 12.7000 3.0000 -8.0000
v 12.7000 3.0000 -15.7000
v 6.4250 3.0000 -15.7000
v 6.4250 3.2000 -8.0000
v 12.7000 3.2000 -8.0000
v 12.7000 3.2000 -15.7000
v 6.4250 3.2000 -15.7000
v 8.9250 3.0000 -4.3300
v 12.7000 3.0000 -4.3300
v 12.7000 3.0000 -8.0000
v 8.9250 3.0000 -8.0000
v 8.9250 3.2000 -4.3300
v 12.7000 3.2000 -4.3300
v 12.7000 3.2000 -8.0000
v 8.9250 3.2000 -8.0000
v -0.1000 6.3000 0.1000
v 12.7000 6.3000 0.1000
v 12.7000 6.3000 -15.7000
v -0.1000 6.3000 -15.7000
v -0.1000 6.5000 0.1000
v 12.7000 6.5000 0.1000
v 12.7000 6.5000 -15.7000
v -0.1000 6.5000 -15.7000
v -0.2000 -0.6000 0.2000
v 12.8000 -0.6000 0.2000
v 12.8000 -0.6000 -15.8000
v -0.2000 -0.6000 -15.8000
v -0.2000 0.0000 0.2000
v 12.8000 0.0000 0.2000
v 12.8000 0.0000 -15.8000
v -0.2000 0.0000 -15.8000
v -0.8000 6.5536 0.7000
v 6.3000 10.6528 0.7000
v 6.3000 10.3728 0.7000
v -0.8000 6.2736 0.7000
v -0.8000 6.5536 -16.3000
v 6.3000 10.6528 -16.3000
v 6.3000 10.3728 -16.3000
v -0.8000 6.2736 -16.3000
v 6.3000 10.6528 0.7000
v 13.4000 6.5536 0.7000
v 13.4000 6.2736 0.7000
v 6.3000 10.3728 0.7000
v 6.3000 10.6528 -16.3000
v 13.4000 6.5536 -16.3000
v 13.4000 6.2736 -16.3000
v 6.3000 10.3728 -16.3000
v 6.1800 10.6328 0.7000
v 6.4200 10.6328 0.7000
v 6.4200 10.6328 -16.3000
v 6.1800 10.6328 -16.3000
v 6.1800 10.7328 0.7000
v 6.4200 10.7328 0.7000
v 6.4200 10.7328 -16.3000
v 6.1800 10.7328 -16.3000
v -0.9500 6.4136 0.7000
v -0.8000 6.4136 0.7000
v -0.8000 6.4136 -16.3000
v -0.9500 6.4136 -16.3000
v -0.9500 6.5336 0.7000
v -0.8000 6.5336 0.7000
v -0.8000 6.5336 -16.3000
v -0.9500 6.5336 -16.3000
v 13.4000 6.4136 0.7000
v 13.5500 6.4136 0.7000
v 13.5500 6.4136 -16.3000
v 13.4000 6.4136 -16.3000
v 13.4000 6.5336 0.7000
v 13.5500 6.5336 0.7000
v 13.5500 6.5336 -16.3000
v 13.4000 6.5336 -16.3000
v -0.3300 -0.4500 -0.1000
v -0.2300 -0.4500 -0.1000
v -0.2300 -0.4500 -0.2000
v -0.3300 -0.4500 -0.2000
v -0.3300 6.0536 -0.1000
v -0.2300 6.0536 -0.1000
v -0.2300 6.0536 -0.2000
v -0.3300 6.0536 -0.2000
v -0.7000 6.0536 -0.1000
v -0.3300 6.0536 -0.1000
v -0.3300 6.0536 -0.2000
v -0.7000 6.0536 -0.2000
v -0.7000 6.1536 -0.1000
v -0.3300 6.1536 -0.1000
v -0.3300 6.1536 -0.2000
v -0.7000 6.1536 -0.2000
v -0.3300 -0.4500 -15.4000
v -0.2300 -0.4500 -15.4000
v -0.2300 -0.4500 -15.5000
v -0.3300 -0.4500 -15.5000
v -0.3300 6.0536 -15.4000
v -0.2300 6.0536 -15.4000
v -0.2300 6.0536 -15.5000
v -0.3300 6.0536 -15.5000
v -0.7000 6.0536 -15.4000
v -0.3300 6.0536 -15.4000
v -0.3300 6.0536 -15.5000
v -0.7000 6.0536 -15.5000
v -0.7000 6.1536 -15.4000
v -0.3300 6.1536 -15.4000
v -0.3300 6.1536 -15.5000
v -0.7000 6.1536 -15.5000
v 12.8300 -0.4500 -0.1000
v 12.9300 -0.4500 -0.1000
v 12.9300 -0.4500 -0.2000
v 12.8300 -0.4500 -0.2000
v 12.8300 6.0536 -0.1000
v 12.9300 6.0536 -0.1000
v 12.9300 6.0536 -0.2000
v 12.8300 6.0536 -0.2000
v 12.9300 6.0536 -0.1000
v 13.3000 6.0536 -0.1000
v 13.3000 6.0536 -0.2000
v 12.9300 6.0536 -0.2000
v 12.9300 6.1536 -0.1000
v 13.3000 6.1536 -0.1000
v 13.3000 6.1536 -0.2000
v 12.9300 6.1536 -0.2000
v 12.8300 -0.4500 -15.4000
v 12.9300 -0.4500 -15.4000
v 12.9300 -0.4500 -15.5000
v 12.8300 -0.4500 -15.5000
v 12.8300 6.0536 -15.4000
v 12.9300 6.0536 -15.4000
v 12.9300 6.0536 -15.5000
v 12.8300 6.0536 -15.5000
v 12.9300 6.0536 -15.4000
v 13.3000 6.0536 -15.4000
v 13.3000 6.0536 -15.5000
v 12.9300 6.0536 -15.5000
v 12.9300 6.1536 -15.4000
v 13.3000 6.1536 -15.4000
v 13.3000 6.1536 -15.5000
v 12.9300 6.1536 -15.5000
v 5.7750 10.2651 -0.2000
v 6.1750 10.2651 -0.2000
v 6.1750 10.2651 -0.6000
v 5.7750 10.2651 -0.6000
v 5.7750 11.1651 -0.2000
v 6.1750 11.1651 -0.2000
v 6.1750 11.1651 -0.6000
v 5.7750 11.1651 -0.6000
v 5.7750 10.2651 -4.6500
v 6.1750 10.2651 -4.6500
v 6.1750 10.2651 -5.0500
v 5.7750 10.2651 -5.0500
v 5.7750 11.1651 -4.6500
v 6.1750 11.1651 -4.6500
v 6.1750 11.1651 -5.0500
v 5.7750 11.1651 -5.0500
v 10.5000 7.9124 -4.0000
v 10.9000 7.9124 -4.0000
v 10.9000 7.9124 -4.4000
v 10.5000 7.9124 -4.4000
v 10.5000 8.8124 -4.0000
v 10.9000 8.8124 -4.0000
v 10.9000 8.8124 -4.4000
v 10.5000 8.8124 -4.4000
v 5.7750 10.2651 -10.3500
v 6.1750 10.2651 -10.3500
v 6.1750 10.2651 -10.7500
v 5.7750 10.2651 -10.7500
v 5.7750 11.1651 -10.3500
v 6.1750 11.1651 -10.3500
v 6.1750 11.1651 -10.7500
v 5.7750 11.1651 -10.7500
v 2.2000 8.2011 -9.5000
v 2.6000 8.2011 -9.5000
v 2.6000 8.2011 -9.9000
v 2.2000 8.2011 -9.9000
v 2.2000 9.1011 -9.5000
v 2.6000 9.1011 -9.5000
v 2.6000 9.1011 -9.9000
v 2.2000 9.1011 -9.9000
v 2.8000 8.5475 -4.6500
v 3.2000 8.5475 -4.6500
v 3.2000 8.5475 -5.0500
v 2.8000 8.5475 -5.0500
v 2.8000 9.4475 -4.6500
v 3.2000 9.4475 -4.6500
v 3.2000 9.4475 -5.0500
v 2.8000 9.4475 -5.0500
v 3.5000 8.9517 -0.2000
v 3.9000 8.9517 -0.2000
v 3.9000 8.9517 -0.6000
v 3.5000 8.9517 -0.6000
v 3.5000 9.8517 -0.2000
v 3.9000 9.8517 -0.2000
v 3.9000 9.8517 -0.6000
v 3.5000 9.8517 -0.6000
v 4.8000 1.2500 0.2300
v 5.6000 1.2500 0.2300
v 5.6000 1.2500 0.0800
v 4.8000 1.2500 0.0800
v 4.8000 2.5000 0.2300
v 5.6000 2.5000 0.2300
v 5.6000 2.5000 0.0800
v 4.8000 2.5000 0.0800
v 8.8000 1.0000 0.2300
v 10.0000 1.0000 0.2300
v 10.0000 1.0000 0.0800
v 8.8000 1.0000 0.0800
v 8.8000 2.5000 0.2300
v 10.0000 2.5000 0.2300
v 10.0000 2.5000 0.0800
v 8.8000 2.5000 0.0800
v 12.6800 1.0000 -2.4000
v 12.8300 1.0000 -2.4000
v 12.8300 1.0000 -3.6000
v 12.6800 1.0000 -3.6000
v 12.6800 2.5000 -2.4000
v 12.8300 2.5000 -2.4000
v 12.8300 2.5000 -3.6000
v 12.6800 2.5000 -3.6000
v 12.6800 1.5000 -4.6000
v 12.8300 1.5000 -4.6000
v 12.8300 1.5000 -5.2000
v 12.6800 1.5000 -5.2000
v 12.6800 2.5000 -4.6000
v 12.8300 2.5000 -4.6000
v 12.8300 2.5000 -5.2000
v 12.6800 2.5000 -5.2000
v 12.6800 0.7500 -9.0000
v 12.8300 0.7500 -9.0000
v 12.8300 0.7500 -10.8000
v 12.6800 0.7500 -10.8000
v 12.6800 2.5000 -9.0000
v 12.8300 2.5000 -9.0000
v 12.8300 2.5000 -10.8000
v 12.6800 2.5000 -10.8000
v 12.6800 0.7500 -12.4000
v 12.8300 0.7500 -12.4000
v 12.8300 0.7500 -14.2000
v 12.6800 0.7500 -14.2000
v 12.6800 2.5000 -12.4000
v 12.8300 2.5000 -12.4000
v 12.8300 2.5000 -14.2000
v 12.6800 2.5000 -14.2000
v 10.6000 0.7500 -15.6800
v 12.1000 0.7500 -15.6800
v 12.1000 0.7500 -15.8300
v 10.6000 0.7500 -15.8300
v 10.6000 2.5000 -15.6800
v 12.1000 2.5000 -15.6800
v 12.1000 2.5000 -15.8300
v 10.6000 2.5000 -15.8300
v 4.2000 1.0000 -15.6800
v 5.7000 1.0000 -15.6800
v 5.7000 1.0000 -15.8300
v 4.2000 1.0000 -15.8300
v 4.2000 2.5000 -15.6800
v 5.7000 2.5000 -15.6800
v 5.7000 2.5000 -15.8300
v 4.2000 2.5000 -15.8300
v -0.2300 1.0000 -11.4000
v -0.0800 1.0000 -11.4000
v -0.0800 1.0000 -13.2000
v -0.2300 1.0000 -13.2000
v -0.2300 2.5000 -11.4000
v -0.0800 2.5000 -11.4000
v -0.0800 2.5000 -13.2000
v -0.2300 2.5000 -13.2000
v -0.2300 1.0000 -7.8000
v -0.0800 1.0000 -7.8000
v -0.0800 1.0000 -9.3000
v -0.2300 1.0000 -9.3000
v -0.2300 2.5000 -7.8000
v -0.0800 2.5000 -7.8000
v -0.0800 2.5000 -9.3000
v -0.2300 2.5000 -9.3000
v -0.2300 1.7500 -2.5000
v -0.0800 1.7500 -2.5000
v -0.0800 1.7500 -3.5000
v -0.2300 1.7500 -3.5000
v -0.2300 2.5000 -2.5000
v -0.0800 2.5000 -2.5000
v -0.0800 2.5000 -3.5000
v -0.2300 2.5000 -3.5000
v 1.0000 4.3000 0.2300
v 2.5000 4.3000 0.2300
v 2.5000 4.3000 0.0800
v 1.0000 4.3000 0.0800
v 1.0000 5.8000 0.2300
v 2.5000 5.8000 0.2300
v 2.5000 5.8000 0.0800
v 1.0000 5.8000 0.0800
v 3.7000 4.3000 0.2300
v 5.2000 4.3000 0.2300
v 5.2000 4.3000 0.0800
v 3.7000 4.3000 0.0800
v 3.7000 5.8000 0.2300
v 5.2000 5.8000 0.2300
v 5.2000 5.8000 0.0800
v 3.7000 5.8000 0.0800
v 7.0000 4.3000 0.2300
v 8.2000 4.3000 0.2300
v 8.2000 4.3000 0.0800
v 7.0000 4.3000 0.0800
v 7.0000 5.8000 0.2300
v 8.2000 5.8000 0.2300
v 8.2000 5.8000 0.0800
v 7.0000 5.8000 0.0800
v 8.8000 4.3000 0.2300
v 10.0000 4.3000 0.2300
v 10.0000 4.3000 0.0800
v 8.8000 4.3000 0.0800
v 8.8000 5.8000 0.2300
v 10.0000 5.8000 0.2300
v 10.0000 5.8000 0.0800
v 8.8000 5.8000 0.0800
v 10.8000 4.3000 0.2300
v 12.0000 4.3000 0.2300
v 12.0000 4.3000 0.0800
v 10.8000 4.3000 0.0800
v 10.8000 5.8000 0.2300
v 12.0000 5.8000 0.2300
v 12.0000 5.8000 0.0800
v 10.8000 5.8000 0.0800
v 12.6800 4.3000 -2.4000
v 12.8300 4.3000 -2.4000
v 12.8300 4.3000 -3.6000
v 12.6800 4.3000 -3.6000
v 12.6800 5.8000 -2.4000
v 12.8300 5.8000 -2.4000
v 12.8300 5.8000 -3.6000
v 12.6800 5.8000 -3.6000
v 12.6800 4.8000 -4.9000
v 12.8300 4.8000 -4.9000
v 12.8300 4.8000 -5.5000
v 12.6800 4.8000 -5.5000
v 12.6800 5.8000 -4.9000
v 12.8300 5.8000 -4.9000
v 12.8300 5.8000 -5.5000
v 12.6800 5.8000 -5.5000
v 12.6800 4.3000 -12.4000
v 12.8300 4.3000 -12.4000
v 12.8300 4.3000 -13.9000
v 12.6800 4.3000 -13.9000
v 12.6800 5.8000 -12.4000
v 12.8300 5.8000 -12.4000
v 12.8300 5.8000 -13.9000
v 12.6800 5.8000 -13.9000
v 10.2000 4.3000 -15.6800
v 11.7000 4.3000 -15.6800
v 11.7000 4.3000 -15.8300
v 10.2000 4.3000 -15.8300
v 10.2000 5.8000 -15.6800
v 11.7000 5.8000 -15.6800
v 11.7000 5.8000 -15.8300
v 10.2000 5.8000 -15.8300
v 7.2000 4.3000 -15.6800
v 8.7000 4.3000 -15.6800
v 8.7000 4.3000 -15.8300
v 7.2000 4.3000 -15.8300
v 7.2000 5.8000 -15.6800
v 8.7000 5.8000 -15.6800
v 8.7000 5.8000 -15.8300
v 7.2000 5.8000 -15.8300
v 2.0000 4.3000 -15.6800
v 4.4000 4.3000 -15.6800
v 4.4000 4.3000 -15.8300
v 2.0000 4.3000 -15.8300
v 2.0000 5.8000 -15.6800
v 4.4000 5.8000 -15.6800
v 4.4000 5.8000 -15.8300
v 2.0000 5.8000 -15.8300
v -0.2300 4.3000 -12.8000
v -0.0800 4.3000 -12.8000
v -0.0800 4.3000 -14.3000
v -0.2300 4.3000 -14.3000
v -0.2300 5.8000 -12.8000
v -0.0800 5.8000 -12.8000
v -0.0800 5.8000 -14.3000
v -0.2300 5.8000 -14.3000
v -0.2300 4.5500 -10.1000
v -0.0800 4.5500 -10.1000
v -0.0800 4.5500 -11.0000
v -0.2300 4.5500 -11.0000
v -0.2300 5.8000 -10.1000
v -0.0800 5.8000 -10.1000
v -0.0800 5.8000 -11.0000
v -0.2300 5.8000 -11.0000
v -0.2300 4.3000 -8.3000
v -0.0800 4.3000 -8.3000
v -0.0800 4.3000 -9.2000
v -0.2300 4.3000 -9.2000
v -0.2300 5.8000 -8.3000
v -0.0800 5.8000 -8.3000
v -0.0800 5.8000 -9.2000
v -0.2300 5.8000 -9.2000
v -0.2300 4.5500 -5.5000
v -0.0800 4.5500 -5.5000
v -0.0800 4.5500 -6.4000
v -0.2300 4.5500 -6.4000
v -0.2300 5.8000 -5.5000
v -0.0800 5.8000 -5.5000
v -0.0800 5.8000 -6.4000
v -0.2300 5.8000 -6.4000
v -0.2300 4.3000 -1.5000
v -0.0800 4.3000 -1.5000
v -0.0800 4.3000 -3.0000
v -0.2300 4.3000 -3.0000
v -0.2300 5.8000 -1.5000
v -0.0800 5.8000 -1.5000
v -0.0800 5.8000 -3.0000
v -0.2300 5.8000 -3.0000
v 6.9000 -0.0300 0.2300
v 7.9000 -0.0300 0.2300
v 7.9000 -0.0300 0.0800
v 6.9000 -0.0300 0.0800
v 6.9000 2.2200 0.2300
v 7.9000 2.2200 0.2300
v 7.9000 2.2200 0.0800
v 6.9000 2.2200 0.0800
v 0.5500 -0.2800 0.2300
v 3.5500 -0.2800 0.2300
v 3.5500 -0.2800 0.0800
v 0.5500 -0.2800 0.0800
v 0.5500 2.2500 0.2300
v 3.5500 2.2500 0.2300
v 3.5500 2.2500 0.0800
v 0.5500 2.2500 0.0800
v 1.2000 0.0000 -15.6800
v 3.6000 0.0000 -15.6800
v 3.6000 0.0000 -15.8300
v 1.2000 0.0000 -15.8300
v 1.2000 2.5000 -15.6800
v 3.6000 2.5000 -15.6800
v 3.6000 2.5000 -15.8300
v 1.2000 2.5000 -15.8300
v 7.0000 0.0000 -15.6800
v 10.0000 0.0000 -15.6800
v 10.0000 0.0000 -15.8300
v 7.0000 0.0000 -15.8300
v 7.0000 2.5000 -15.6800
v 10.0000 2.5000 -15.6800
v 10.0000 2.5000 -15.8300
v 7.0000 2.5000 -15.8300
v 0.0000 -0.4500 -15.8000
v 12.6000 -0.4500 -15.8000
v 12.6000 -0.4500 -18.8000
v 0.0000 -0.4500 -18.8000
v 0.0000 -0.1500 -15.8000
v 12.6000 -0.1500 -15.8000
v 12.6000 -0.1500 -18.8000
v 0.0000 -0.1500 -18.8000
v 6.2000 -0.4500 1.8000
v 8.6000 -0.4500 1.8000
v 8.6000 -0.4500 0.2000
v 6.2000 -0.4500 0.2000
v 6.2000 -0.0300 1.8000
v 8.6000 -0.0300 1.8000
v 8.6000 -0.0300 0.2000
v 6.2000 -0.0300 0.2000
v 6.2000 -0.4500 2.1000
v 8.6000 -0.4500 2.1000
v 8.6000 -0.4500 1.8000
v 6.2000 -0.4500 1.8000
v 6.2000 -0.3100 2.1000
v 8.6000 -0.3100 2.1000
v 8.6000 -0.3100 1.8000
v 6.2000 -0.3100 1.8000
v 6.2000 -0.4500 2.4000
v 8.6000 -0.4500 2.4000
v 8.6000 -0.4500 2.1000
v 6.2000 -0.4500 2.1000
v 6.2000 -0.1700 2.4000
v 8.6000 -0.1700 2.4000
v 8.6000 -0.1700 2.1000
v 6.2000 -0.1700 2.1000
v 5.9000 2.7000 2.2000
v 8.9000 2.7000 2.2000
v 8.9000 2.7000 0.2000
v 5.9000 2.7000 0.2000
v 5.9000 2.8500 2.2000
v 8.9000 2.8500 2.2000
v 8.9000 2.8500 0.2000
v 5.9000 2.8500 0.2000
v 6.1700 2.6500 2.0000
v 6.2300 2.6500 2.0000
v 6.2300 2.6500 0.2000
v 6.1700 2.6500 0.2000
v 6.1700 2.7000 2.0000
v 6.2300 2.7000 2.0000
v 6.2300 2.7000 0.2000
v 6.1700 2.7000 0.2000
v 6.1700 2.1000 0.5000
v 6.2300 2.1000 0.5000
v 6.2300 2.1000 0.2000
v 6.1700 2.1000 0.2000
v 6.1700 2.7000 0.5000
v 6.2300 2.7000 0.5000
v 6.2300 2.7000 0.2000
v 6.1700 2.7000 0.2000
v 8.5700 2.6500 2.0000
v 8.6300 2.6500 2.0000
v 8.6300 2.6500 0.2000
v 8.5700 2.6500 0.2000
v 8.5700 2.7000 2.0000
v 8.6300 2.7000 2.0000
v 8.6300 2.7000 0.2000
v 8.5700 2.7000 0.2000
v 8.5700 2.1000 0.5000
v 8.6300 2.1000 0.5000
v 8.6300 2.1000 0.2000
v 8.5700 2.1000 0.2000
v 8.5700 2.7000 0.5000
v 8.6300 2.7000 0.5000
v 8.6300 2.7000 0.2000
v 8.5700 2.7000 0.2000
v 0.3000 -0.4700 2.5000
v 3.8000 -0.4700 2.5000
v 3.8000 -0.4700 0.2000
v 0.3000 -0.4700 0.2000
v 0.3000 -0.3900 2.5000
v 3.8000 -0.3900 2.5000
v 3.8000 -0.3900 0.2000
v 0.3000 -0.3900 0.2000
v 7.7750 0.0000 -4.3300
v 8.9250 0.0000 -4.3300
v 8.9250 0.0000 -4.6100
v 7.7750 0.0000 -4.6100
v 7.7750 0.1737 -4.3300
v 8.9250 0.1737 -4.3300
v 8.9250 0.1737 -4.6100
v 7.7750 0.1737 -4.6100
v 7.7750 0.0000 -4.6100
v 8.9250 0.0000 -4.6100
v 8.9250 0.0000 -4.8900
v 7.7750 0.0000 -4.8900
v 7.7750 0.3474 -4.6100
v 8.9250 0.3474 -4.6100
v 8.9250 0.3474 -4.8900
v 7.7750 0.3474 -4.8900
v 7.7750 0.0000 -4.8900
v 8.9250 0.0000 -4.8900
v 8.9250 0.0000 -5.1700
v 7.7750 0.0000 -5.1700
v 7.7750 0.5211 -4.8900
v 8.9250 0.5211 -4.8900
v 8.9250 0.5211 -5.1700
v 7.7750 0.5211 -5.1700
v 7.7750 0.0000 -5.1700
v 8.9250 0.0000 -5.1700
v 8.9250 0.0000 -5.4500
v 7.7750 0.0000 -5.4500
v 7.7750 0.6947 -5.1700
v 8.9250 0.6947 -5.1700
v 8.9250 0.6947 -5.4500
v 7.7750 0.6947 -5.4500
v 7.7750 0.0000 -5.4500
v 8.9250 0.0000 -5.4500
v 8.9250 0.0000 -5.7300
v 7.7750 0.0000 -5.7300
v 7.7750 0.8684 -5.4500
v 8.9250 0.8684 -5.4500
v 8.9250 0.8684 -5.7300
v 7.7750 0.8684 -5.7300
v 7.7750 0.0000 -5.7300
v 8.9250 0.0000 -5.7300
v 8.9250 0.0000 -6.0100
v 7.7750 0.0000 -6.0100
v 7.7750 1.0421 -5.7300
v 8.9250 1.0421 -5.7300
v 8.9250 1.0421 -6.0100
v 7.7750 1.0421 -6.0100
v 7.7750 0.0000 -6.0100
v 8.9250 0.0000 -6.0100
v 8.9250 0.0000 -6.2900
v 7.7750 0.0000 -6.2900
v 7.7750 1.2158 -6.0100
v 8.9250 1.2158 -6.0100
v 8.9250 1.2158 -6.2900
v 7.7750 1.2158 -6.2900
v 7.7750 0.0000 -6.2900
v 8.9250 0.0000 -6.2900
v 8.9250 0.0000 -6.5700
v 7.7750 0.0000 -6.5700
v 7.7750 1.3895 -6.2900
v 8.9250 1.3895 -6.2900
v 8.9250 1.3895 -6.5700
v 7.7750 1.3895 -6.5700
v 7.7750 0.0000 -6.5700
v 8.9250 0.0000 -6.5700
v 8.9250 0.0000 -6.8500
v 7.7750 0.0000 -6.8500
v 7.7750 1.5632 -6.5700
v 8.9250 1.5632 -6.5700
v 8.9250 1.5632 -6.8500
v 7.7750 1.5632 -6.8500
v 6.4250 1.5368 -6.8500
v 8.9250 1.5368 -6.8500
v 8.9250 1.5368 -8.0000
v 6.4250 1.5368 -8.0000
v 6.4250 1.7368 -6.8500
v 8.9250 1.7368 -6.8500
v 8.9250 1.7368 -8.0000
v 6.4250 1.7368 -8.0000
v 6.4250 1.5368 -6.5700
v 7.5750 1.5368 -6.5700
v 7.5750 1.5368 -6.8500
v 6.4250 1.5368 -6.8500
v 6.4250 1.9105 -6.5700
v 7.5750 1.9105 -6.5700
v 7.5750 1.9105 -6.8500
v 6.4250 1.9105 -6.8500
v 6.4250 1.5368 -6.2900
v 7.5750 1.5368 -6.2900
v 7.5750 1.5368 -6.5700
v 6.4250 1.5368 -6.5700
v 6.4250 2.0842 -6.2900
v 7.5750 2.0842 -6.2900
v 7.5750 2.0842 -6.5700
v 6.4250 2.0842 -6.5700
v 6.4250 1.5368 -6.0100
v 7.5750 1.5368 -6.0100
v 7.5750 1.5368 -6.2900
v 6.4250 1.5368 -6.2900
v 6.4250 2.2579 -6.0100
v 7.5750 2.2579 -6.0100
v 7.5750 2.2579 -6.2900
v 6.4250 2.2579 -6.2900
v 6.4250 1.5368 -5.7300
v 7.5750 1.5368 -5.7300
v 7.5750 1.5368 -6.0100
v 6.4250 1.5368 -6.0100
v 6.4250 2.4316 -5.7300
v 7.5750 2.4316 -5.7300
v 7.5750 2.4316 -6.0100
v 6.4250 2.4316 -6.0100
v 6.4250 1.5368 -5.4500
v 7.5750 1.5368 -5.4500
v 7.5750 1.5368 -5.7300
v 6.4250 1.5368 -5.7300
v 6.4250 2.6053 -5.4500
v 7.5750 2.6053 -5.4500
v 7.5750 2.6053 -5.7300
v 6.4250 2.6053 -5.7300
v 6.4250 1.5368 -5.1700
v 7.5750 1.5368 -5.1700
v 7.5750 1.5368 -5.4500
v 6.4250 1.5368 -5.4500
v 6.4250 2.7789 -5.1700
v 7.5750 2.7789 -5.1700
v 7.5750 2.7789 -5.4500
v 6.4250 2.7789 -5.4500
v 6.4250 1.5368 -4.8900
v 7.5750 1.5368 -4.8900
v 7.5750 1.5368 -5.1700
v 6.4250 1.5368 -5.1700
v 6.4250 2.9526 -4.8900
v 7.5750 2.9526 -4.8900
v 7.5750 2.9526 -5.1700
v 6.4250 2.9526 -5.1700
v 6.4250 1.5368 -4.6100
v 7.5750 1.5368 -4.6100
v 7.5750 1.5368 -4.8900
v 6.4250 1.5368 -4.8900
v 6.4250 3.1263 -4.6100
v 7.5750 3.1263 -4.6100
v 7.5750 3.1263 -4.8900
v 6.4250 3.1263 -4.8900
v 6.4250 1.5368 -4.3300
v 7.5750 1.5368 -4.3300
v 7.5750 1.5368 -4.6100
v 6.4250 1.5368 -4.6100
v 6.4250 3.3000 -4.3300
v 7.5750 3.3000 -4.3300
v 7.5750 3.3000 -4.6100
v 6.4250 3.3000 -4.6100
v -1.7000 -0.4600 5.2000
v 4.9000 -0.4600 5.2000
v 4.9000 -0.4600 0.2000
v -1.7000 -0.4600 0.2000
v -1.7000 -0.4300 5.2000
v 4.9000 -0.4300 5.2000
v 4.9000 -0.4300 0.2000
v -1.7000 -0.4300 0.2000
v 4.9000 -0.4600 5.2000
v 5.9000 -0.4600 5.2000
v 5.9000 -0.4600 0.2000
v 4.9000 -0.4600 0.2000
v 4.9000 -0.4300 5.2000
v 5.9000 -0.4300 5.2000
v 5.9000 -0.4300 0.2000
v 4.9000 -0.4300 0.2000
v -1.2000 -0.4700 1.2000
v 13.8000 -0.4700 1.2000
v 13.8000 -0.4700 -16.8000
v -1.2000 -0.4700 -16.8000
v -1.2000 -0.4400 1.2000
v 13.8000 -0.4400 1.2000
v 13.8000 -0.4400 -16.8000
v -1.2000 -0.4400 -16.8000
v 13.8000 -0.4600 1.2000
v 14.8000 -0.4600 1.2000
v 14.8000 -0.4600 -18.8000
v 13.8000 -0.4600 -18.8000
v 13.8000 -0.4300 1.2000
v 14.8000 -0.4300 1.2000
v 14.8000 -0.4300 -18.8000
v 13.8000 -0.4300 -18.8000
v -3.7000 -0.4500 5.2000
v 16.3000 -0.4500 5.2000
v 16.3000 -0.4500 5.1500
v -3.7000 -0.4500 5.1500
v -3.7000 1.3500 5.2000
v 16.3000 1.3500 5.2000
v 16.3000 1.3500 5.1500
v -3.7000 1.3500 5.1500
v -3.7000 -0.4500 -24.7500
v 16.3000 -0.4500 -24.7500
v 16.3000 -0.4500 -24.8000
v -3.7000 -0.4500 -24.8000
v -3.7000 1.1500 -24.7500
v 16.3000 1.1500 -24.7500
v 16.3000 1.1500 -24.8000
v -3.7000 1.1500 -24.8000
v -3.7000 -0.4500 5.2000
v -3.6500 -0.4500 5.2000
v -3.6500 -0.4500 -24.8000
v -3.7000 -0.4500 -24.8000
v -3.7000 1.1500 5.2000
v -3.6500 1.1500 5.2000
v -3.6500 1.1500 -24.8000
v -3.7000 1.1500 -24.8000
v 16.2500 -0.4500 5.2000
v 16.3000 -0.4500 5.2000
v 16.3000 -0.4500 -24.8000
v 16.2500 -0.4500 -24.8000
v 16.2500 1.1500 5.2000
v 16.3000 1.1500 5.2000
v 16.3000 1.1500 -24.8000
v 16.2500 1.1500 -24.8000
v -3.7000 -0.4500 5.2000
v 16.3000 -0.4500 5.2000
v 16.3000 -0.4500 -24.8000
v -3.7000 -0.4500 -24.8000
v -1.8000 -0.4500 -22.2000
v -1.6000 -0.4500 -22.2000
v -1.6000 -0.4500 -22.4000
v -1.8000 -0.4500 -22.4000
v -1.8000 1.8000 -22.2000
v -1.6000 1.8000 -22.2000
v -1.6000 1.8000 -22.4000
v -1.8000 1.8000 -22.4000
v -3.5000 1.8000 -20.5000
v 0.1000 1.8000 -20.5000
v 0.1000 1.8000 -24.1000
v -3.5000 1.8000 -24.1000
v -3.5000 4.6800 -20.5000
v 0.1000 4.6800 -20.5000
v 0.1000 4.6800 -24.1000
v -3.5000 4.6800 -24.1000
v 2.2000 -0.4500 -22.9000
v 2.4000 -0.4500 -22.9000
v 2.4000 -0.4500 -23.1000
v 2.2000 -0.4500 -23.1000
v 2.2000 1.5750 -22.9000
v 2.4000 1.5750 -22.9000
v 2.4000 1.5750 -23.1000
v 2.2000 1.5750 -23.1000
v 0.7000 1.5750 -21.4000
v 3.9000 1.5750 -21.4000
v 3.9000 1.5750 -24.6000
v 0.7000 1.5750 -24.6000
v 0.7000 4.1350 -21.4000
v 3.9000 4.1350 -21.4000
v 3.9000 4.1350 -24.6000
v 0.7000 4.1350 -24.6000
v 6.2000 -0.4500 -22.5000
v 6.4000 -0.4500 -22.5000
v 6.4000 -0.4500 -22.7000
v 6.2000 -0.4500 -22.7000
v 6.2000 1.8000 -22.5000
v 6.4000 1.8000 -22.5000
v 6.4000 1.8000 -22.7000
v 6.2000 1.8000 -22.7000
v 4.5000 1.8000 -20.8000
v 8.1000 1.8000 -20.8000
v 8.1000 1.8000 -24.4000
v 4.5000 1.8000 -24.4000
v 4.5000 4.6800 -20.8000
v 8.1000 4.6800 -20.8000
v 8.1000 4.6800 -24.4000
v 4.5000 4.6800 -24.4000
v 14.7000 -0.4500 -14.7000
v 14.9000 -0.4500 -14.7000
v 14.9000 -0.4500 -14.9000
v 14.7000 -0.4500 -14.9000
v 14.7000 1.3500 -14.7000
v 14.9000 1.3500 -14.7000
v 14.9000 1.3500 -14.9000
v 14.7000 1.3500 -14.9000
v 13.4000 1.3500 -13.4000
v 16.2000 1.3500 -13.4000
v 16.2000 1.3500 -16.2000
v 13.4000 1.3500 -16.2000
v 13.4000 3.5900 -13.4000
v 16.2000 3.5900 -13.4000
v 16.2000 3.5900 -16.2000
v 13.4000 3.5900 -16.2000
v 14.7000 -0.4500 -9.7000
v 14.9000 -0.4500 -9.7000
v 14.9000 -0.4500 -9.9000
v 14.7000 -0.4500 -9.9000
v 14.7000 1.3500 -9.7000
v 14.9000 1.3500 -9.7000
v 14.9000 1.3500 -9.9000
v 14.7000 1.3500 -9.9000
v 13.4000 1.3500 -8.4000
v 16.2000 1.3500 -8.4000
v 16.2000 1.3500 -11.2000
v 13.4000 1.3500 -11.2000
v 13.4000 3.5900 -8.4000
v 16.2000 3.5900 -8.4000
v 16.2000 3.5900 -11.2000
v 13.4000 3.5900 -11.2000
v 14.7000 -0.4500 -2.7000
v 14.9000 -0.4500 -2.7000
v 14.9000 -0.4500 -2.9000
v 14.7000 -0.4500 -2.9000
v 14.7000 1.1250 -2.7000
v 14.9000 1.1250 -2.7000
v 14.9000 1.1250 -2.9000
v 14.7000 1.1250 -2.9000
v 13.6000 1.1250 -1.6000
v 16.0000 1.1250 -1.6000
v 16.0000 1.1250 -4.0000
v 13.6000 1.1250 -4.0000
v 13.6000 3.0450 -1.6000
v 16.0000 3.0450 -1.6000
v 16.0000 3.0450 -4.0000
v 13.6000 3.0450 -4.0000
v -2.6000 -0.4500 -6.7000
v -2.4000 -0.4500 -6.7000
v -2.4000 -0.4500 -6.9000
v -2.6000 -0.4500 -6.9000
v -2.6000 0.9000 -6.7000
v -2.4000 0.9000 -6.7000
v -2.4000 0.9000 -6.9000
v -2.6000 0.9000 -6.9000
v -3.5000 0.9000 -5.8000
v -1.5000 0.9000 -5.8000
v -1.5000 0.9000 -7.8000
v -3.5000 0.9000 -7.8000
v -3.5000 2.5000 -5.8000
v -1.5000 2.5000 -5.8000
v -1.5000 2.5000 -7.8000
v -3.5000 2.5000 -7.8000
v -2.6000 -0.4500 -11.2000
v -2.4000 -0.4500 -11.2000
v -2.4000 -0.4500 -11.4000
v -2.6000 -0.4500 -11.4000
v -2.6000 0.9000 -11.2000
v -2.4000 0.9000 -11.2000
v -2.4000 0.9000 -11.4000
v -2.6000 0.9000 -11.4000
v -3.5000 0.9000 -10.3000
v -1.5000 0.9000 -10.3000
v -1.5000 0.9000 -12.3000
v -3.5000 0.9000 -12.3000
v -3.5000 2.5000 -10.3000
v -1.5000 2.5000 -10.3000
v -1.5000 2.5000 -12.3000
v -3.5000 2.5000 -12.3000
g wall
usemtl wall
f 1 4 3 2
f 5 6 7 8
f 1 2 6 5
f 3 4 8 7
f 1 5 8 4
f 2 3 7 6
f 9 12 11 10
f 13 14 15 16
f 9 10 14 13
f 11 12 16 15
f 9 13 16 12
f 10 11 15 14
f 17 20 19 18
f 21 22 23 24
f 17 18 22 21
f 19 20 24 23
f 17 21 24 20
f 18 19 23 22
f 25 28 27 26
f 29 30 31 32
f 25 26 30 29
f 27 28 32 31
f 25 29 32 28
f 26 27 31 30
f 33 36 35 34
f 37 38 39 40
f 33 34 38 37
f 35 36 40 39
f 33 37 40 36
f 34 35 39 38
f 41 44 43 42
f 45 46 47 48
f 41 42 46 45
f 43 44 48 47
f 41 45 48 44
f 42 43 47 46
f 49 52 51 50
f 53 54 55 56
f 49 50 54 53
f 51 52 56 55
f 49 53 56 52
f 50 51 55 54
f 57 60 59 58
f 61 62 63 64
f 57 58 62 61
f 59 60 64 63
f 57 61 64 60
f 58 59 63 62
g plinth
usemtl plinth
f 65 68 67 66
f 69 70 71 72
f 65 66 70 69
f 67 68 72 71
f 65 69 72 68
f 66 67 71 70
g wood
usemtl wood
f 77 76 75 74 73
f 78 79 80 81 82
f 73 74 79 78
f 74 75 80 79
f 75 76 81 80
f 76 77 82 81
f 77 73 78 82
f 87 86 85 84 83
f 88 89 90 91 92
f 83 84 89 88
f 84 85 90 89
f 85 86 91 90
f 86 87 92 91
f 87 83 88 92
g wall_int
usemtl wall_int
f 93 96 95 94
f 97 98 99 100
f 93 94 98 97
f 95 96 100 99
f 93 97 100 96
f 94 95 99 98
f 101 104 103 102
f 105 106 107 108
f 101 102 106 105
f 103 104 108 107
f 101 105 108 104
f 102 103 107 106
f 109 112 111 110
f 113 114 115 116
f 109 110 114 113
f 111 112 116 115
f 109 113 116 112
f 110 111 115 114
f 117 120 119 118
f 121 122 123 124
f 117 118 122 121
f 119 120 124 123
f 117 121 124 120
f 118 119 123 122
f 125 128 127 126
f 129 130 131 132
f 125 126 130 129
f 127 128 132 131
f 125 129 132 128
f 126 127 131 130
f 133 136 135 134
f 137 138 139 140
f 133 134 138 137
f 135 136 140 139
f 133 137 140 136
f 134 135 139 138
f 141 144 143 142
f 145 146 147 148
f 141 142 146 145
f 143 144 148 147
f 141 145 148 144
f 142 143 147 146
f 149 152 151 150
f 153 154 155 156
f 149 150 154 153
f 151 152 156 155
f 149 153 156 152
f 150 151 155 154
f 157 160 159 158
f 161 162 163 164
f 157 158 162 161
f 159 160 164 163
f 157 161 164 160
f 158 159 163 162
f 165 168 167 166
f 169 170 171 172
f 165 166 170 169
f 167 168 172 171
f 165 169 172 168
f 166 167 171 170
f 173 176 175 174
f 177 178 179 180
f 173 174 178 177
f 175 176 180 179
f 173 177 180 176
f 174 175 179 178
f 181 184 183 182
f 185 186 187 188
f 181 182 186 185
f 183 184 188 187
f 181 185 188 184
f 182 183 187 186
f 189 192 191 190
f 193 194 195 196
f 189 190 194 193
f 191 192 196 195
f 189 193 196 192
f 190 191 195 194
f 197 200 199 198
f 201 202 203 204
f 197 198 202 201
f 199 200 204 203
f 197 201 204 200
f 198 199 203 202
f 205 208 207 206
f 209 210 211 212
f 205 206 210 209
f 207 208 212 211
f 205 209 212 208
f 206 207 211 210
f 213 216 215 214
f 217 218 219 220
f 213 214 218 217
f 215 216 220 219
f 213 217 220 216
f 214 215 219 218
f 221 224 223 222
f 225 226 227 228
f 221 222 226 225
f 223 224 228 227
f 221 225 228 224
f 222 223 227 226
f 229 232 231 230
f 233 234 235 236
f 229 230 234 233
f 231 232 236 235
f 229 233 236 232
f 230 231 235 234
f 237 240 239 238
f 241 242 243 244
f 237 238 242 241
f 239 240 244 243
f 237 241 244 240
f 238 239 243 242
f 245 248 247 246
f 249 250 251 252
f 245 246 250 249
f 247 248 252 251
f 245 249 252 248
f 246 247 251 250
f 253 256 255 254
f 257 258 259 260
f 253 254 258 257
f 255 256 260 259
f 253 257 260 256
f 254 255 259 258
f 261 264 263 262
f 265 266 267 268
f 261 262 266 265
f 263 264 268 267
f 261 265 268 264
f 262 263 267 266
f 269 272 271 270
f 273 274 275 276
f 269 270 274 273
f 271 272 276 275
f 269 273 276 272
f 270 271 275 274
f 277 280 279 278
f 281 282 283 284
f 277 278 282 281
f 279 280 284 283
f 277 281 284 280
f 278 279 283 282
f 285 288 287 286
f 289 290 291 292
f 285 286 290 289
f 287 288 292 291
f 285 289 292 288
f 286 287 291 290
f 293 296 295 294
f 297 298 299 300
f 293 294 298 297
f 295 296 300 299
f 293 297 300 296
f 294 295 299 298
f 301 304 303 302
f 305 306 307 308
f 301 302 306 305
f 303 304 308 307
f 301 305 308 304
f 302 303 307 306
f 309 312 311 310
f 313 314 315 316
f 309 310 314 313
f 311 312 316 315
f 309 313 316 312
f 310 311 315 314
f 317 320 319 318
f 321 322 323 324
f 317 318 322 321
f 319 320 324 323
f 317 321 324 320
f 318 319 323 322
g slab
usemtl slab
f 325 328 327 326
f 329 330 331 332
f 325 326 330 329
f 327 328 332 331
f 325 329 332 328
f 326 327 331 330
f 333 336 335 334
f 337 338 339 340
f 333 334 338 337
f 335 336 340 339
f 333 337 340 336
f 334 335 339 338
f 341 344 343 342
f 345 346 347 348
f 341 342 346 345
f 343 344 348 347
f 341 345 348 344
f 342 343 347 346
f 349 352 351 350
f 353 354 355 356
f 349 350 354 353
f 351 352 356 355
f 349 353 356 352
f 350 351 355 354
f 357 360 359 358
f 361 362 363 364
f 357 358 362 361
f 359 360 364 363
f 357 361 364 360
f 358 359 363 362
f 365 368 367 366
f 369 370 371 372
f 365 366 370 369
f 367 368 372 371
f 365 369 372 368
f 366 367 371 370
g roof
usemtl roof
f 376 375 374 373
f 377 378 379 380
f 373 374 378 377
f 374 375 379 378
f 375 376 380 379
f 376 373 377 380
f 384 383 382 381
f 385 386 387 388
f 381 382 386 385
f 382 383 387 386
f 383 384 388 387
f 384 381 385 388
g roof_dark
usemtl roof_dark
f 389 392 391 390
f 393 394 395 396
f 389 390 394 393
f 391 392 396 395
f 389 393 396 392
f 390 391 395 394
f 397 400 399 398
f 401 402 403 404
f 397 398 402 401
f 399 400 404 403
f 397 401 404 400
f 398 399 403 402
f 405 408 407 406
f 409 410 411 412
f 405 406 410 409
f 407 408 412 411
f 405 409 412 408
f 406 407 411 410
f 413 416 415 414
f 417 418 419 420
f 413 414 418 417
f 415 416 420 419
f 413 417 420 416
f 414 415 419 418
f 421 424 423 422
f 425 426 427 428
f 421 422 426 425
f 423 424 428 427
f 421 425 428 424
f 422 423 427 426
f 429 432 431 430
f 433 434 435 436
f 429 430 434 433
f 431 432 436 435
f 429 433 436 432
f 430 431 435 434
f 437 440 439 438
f 441 442 443 444
f 437 438 442 441
f 439 440 444 443
f 437 441 444 440
f 438 439 443 442
f 445 448 447 446
f 449 450 451 452
f 445 446 450 449
f 447 448 452 451
f 445 449 452 448
f 446 447 451 450
f 453 456 455 454
f 457 458 459 460
f 453 454 458 457
f 455 456 460 459
f 453 457 460 456
f 454 455 459 458
f 461 464 463 462
f 465 466 467 468
f 461 462 466 465
f 463 464 468 467
f 461 465 468 464
f 462 463 467 466
f 469 472 471 470
f 473 474 475 476
f 469 470 474 473
f 471 472 476 475
f 469 473 476 472
f 470 471 475 474
f 477 480 479 478
f 481 482 483 484
f 477 478 482 481
f 479 480 484 483
f 477 481 484 480
f 478 479 483 482
f 485 488 487 486
f 489 490 491 492
f 485 486 490 489
f 487 488 492 491
f 485 489 492 488
f 486 487 491 490
f 493 496 495 494
f 497 498 499 500
f 493 494 498 497
f 495 496 500 499
f 493 497 500 496
f 494 495 499 498
f 501 504 503 502
f 505 506 507 508
f 501 502 506 505
f 503 504 508 507
f 501 505 508 504
f 502 503 507 506
f 509 512 511 510
f 513 514 515 516
f 509 510 514 513
f 511 512 516 515
f 509 513 516 512
f 510 511 515 514
f 517 520 519 518
f 521 522 523 524
f 517 518 522 521
f 519 520 524 523
f 517 521 524 520
f 518 519 523 522
f 525 528 527 526
f 529 530 531 532
f 525 526 530 529
f 527 528 532 531
f 525 529 532 528
f 526 527 531 530
f 813 816 815 814
f 817 818 819 820
f 813 814 818 817
f 815 816 820 819
f 813 817 820 816
f 814 815 819 818
f 821 824 823 822
f 825 826 827 828
f 821 822 826 825
f 823 824 828 827
f 821 825 828 824
f 822 823 827 826
f 829 832 831 830
f 833 834 835 836
f 829 830 834 833
f 831 832 836 835
f 829 833 836 832
f 830 831 835 834
f 837 840 839 838
f 841 842 843 844
f 837 838 842 841
f 839 840 844 843
f 837 841 844 840
f 838 839 843 842
f 845 848 847 846
f 849 850 851 852
f 845 846 850 849
f 847 848 852 851
f 845 849 852 848
f 846 847 851 850
g glass
usemtl glass
f 533 536 535 534
f 537 538 539 540
f 533 534 538 537
f 535 536 540 539
f 533 537 540 536
f 534 535 539 538
f 541 544 543 542
f 545 546 547 548
f 541 542 546 545
f 543 544 548 547
f 541 545 548 544
f 542 543 547 546
f 549 552 551 550
f 553 554 555 556
f 549 550 554 553
f 551 552 556 555
f 549 553 556 552
f 550 551 555 554
f 557 560 559 558
f 561 562 563 564
f 557 558 562 561
f 559 560 564 563
f 557 561 564 560
f 558 559 563 562
f 565 568 567 566
f 569 570 571 572
f 565 566 570 569
f 567 568 572 571
f 565 569 572 568
f 566 567 571 570
f 573 576 575 574
f 577 578 579 580
f 573 574 578 577
f 575 576 580 579
f 573 577 580 576
f 574 575 579 578
f 581 584 583 582
f 585 586 587 588
f 581 582 586 585
f 583 584 588 587
f 581 585 588 584
f 582 583 587 586
f 589 592 591 590
f 593 594 595 596
f 589 590 594 593
f 591 592 596 595
f 589 593 596 592
f 590 591 595 594
f 597 600 599 598
f 601 602 603 604
f 597 598 602 601
f 599 600 604 603
f 597 601 604 600
f 598 599 603 602
f 605 608 607 606
f 609 610 611 612
f 605 606 610 609
f 607 608 612 611
f 605 609 612 608
f 606 607 611 610
f 613 616 615 614
f 617 618 619 620
f 613 614 618 617
f 615 616 620 619
f 613 617 620 616
f 614 615 619 618
f 621 624 623 622
f 625 626 627 628
f 621 622 626 625
f 623 624 628 627
f 621 625 628 624
f 622 623 627 626
f 629 632 631 630
f 633 634 635 636
f 629 630 634 633
f 631 632 636 635
f 629 633 636 632
f 630 631 635 634
f 637 640 639 638
f 641 642 643 644
f 637 638 642 641
f 639 640 644 643
f 637 641 644 640
f 638 639 643 642
f 645 648 647 646
f 649 650 651 652
f 645 646 650 649
f 647 648 652 651
f 645 649 652 648
f 646 647 651 650
f 653 656 655 654
f 657 658 659 660
f 653 654 658 657
f 655 656 660 659
f 653 657 660 656
f 654 655 659 658
f 661 664 663 662
f 665 666 667 668
f 661 662 666 665
f 663 664 668 667
f 661 665 668 664
f 662 663 667 666
f 669 672 671 670
f 673 674 675 676
f 669 670 674 673
f 671 672 676 675
f 669 673 676 672
f 670 671 675 674
f 677 680 679 678
f 681 682 683 684
f 677 678 682 681
f 679 680 684 683
f 677 681 684 680
f 678 679 683 682
f 685 688 687 686
f 689 690 691 692
f 685 686 690 689
f 687 688 692 691
f 685 689 692 688
f 686 687 691 690
f 693 696 695 694
f 697 698 699 700
f 693 694 698 697
f 695 696 700 699
f 693 697 700 696
f 694 695 699 698
f 701 704 703 702
f 705 706 707 708
f 701 702 706 705
f 703 704 708 707
f 701 705 708 704
f 702 703 707 706
f 709 712 711 710
f 713 714 715 716
f 709 710 714 713
f 711 712 716 715
f 709 713 716 712
f 710 711 715 714
f 717 720 719 718
f 721 722 723 724
f 717 718 722 721
f 719 720 724 723
f 717 721 724 720
f 718 719 723 722
f 725 728 727 726
f 729 730 731 732
f 725 726 730 729
f 727 728 732 731
f 725 729 732 728
f 726 727 731 730
f 733 736 735 734
f 737 738 739 740
f 733 734 738 737
f 735 736 740 739
f 733 737 740 736
f 734 735 739 738
f 741 744 743 742
f 745 746 747 748
f 741 742 746 745
f 743 744 748 747
f 741 745 748 744
f 742 743 747 746
f 765 768 767 766
f 769 770 771 772
f 765 766 770 769
f 767 768 772 771
f 765 769 772 768
f 766 767 771 770
f 773 776 775 774
f 777 778 779 780
f 773 774 778 777
f 775 776 780 779
f 773 777 780 776
f 774 775 779 778
g door
usemtl door
f 749 752 751 750
f 753 754 755 756
f 749 750 754 753
f 751 752 756 755
f 749 753 756 752
f 750 751 755 754
g garage
usemtl garage
f 757 760 759 758
f 761 762 763 764
f 757 758 762 761
f 759 760 764 763
f 757 761 764 760
f 758 759 763 762
g paving
usemtl paving
f 781 784 783 782
f 785 786 787 788
f 781 782 786 785
f 783 784 788 787
f 781 785 788 784
f 782 783 787 786
f 789 792 791 790
f 793 794 795 796
f 789 790 794 793
f 791 792 796 795
f 789 793 796 792
f 790 791 795 794
f 797 800 799 798
f 801 802 803 804
f 797 798 802 801
f 799 800 804 803
f 797 801 804 800
f 798 799 803 802
f 805 808 807 806
f 809 810 811 812
f 805 806 810 809
f 807 808 812 811
f 805 809 812 808
f 806 807 811 810
f 853 856 855 854
f 857 858 859 860
f 853 854 858 857
f 855 856 860 859
f 853 857 860 856
f 854 855 859 858
f 1021 1024 1023 1022
f 1025 1026 1027 1028
f 1021 1022 1026 1025
f 1023 1024 1028 1027
f 1021 1025 1028 1024
f 1022 1023 1027 1026
f 1037 1040 1039 1038
f 1041 1042 1043 1044
f 1037 1038 1042 1041
f 1039 1040 1044 1043
f 1037 1041 1044 1040
f 1038 1039 1043 1042
g stair
usemtl stair
f 861 864 863 862
f 865 866 867 868
f 861 862 866 865
f 863 864 868 867
f 861 865 868 864
f 862 863 867 866
f 869 872 871 870
f 873 874 875 876
f 869 870 874 873
f 871 872 876 875
f 869 873 876 872
f 870 871 875 874
f 877 880 879 878
f 881 882 883 884
f 877 878 882 881
f 879 880 884 883
f 877 881 884 880
f 878 879 883 882
f 885 888 887 886
f 889 890 891 892
f 885 886 890 889
f 887 888 892 891
f 885 889 892 888
f 886 887 891 890
f 893 896 895 894
f 897 898 899 900
f 893 894 898 897
f 895 896 900 899
f 893 897 900 896
f 894 895 899 898
f 901 904 903 902
f 905 906 907 908
f 901 902 906 905
f 903 904 908 907
f 901 905 908 904
f 902 903 907 906
f 909 912 911 910
f 913 914 915 916
f 909 910 914 913
f 911 912 916 915
f 909 913 916 912
f 910 911 915 914
f 917 920 919 918
f 921 922 923 924
f 917 918 922 921
f 919 920 924 923
f 917 921 924 920
f 918 919 923 922
f 925 928 927 926
f 929 930 931 932
f 925 926 930 929
f 927 928 932 931
f 925 929 932 928
f 926 927 931 930
f 933 936 935 934
f 937 938 939 940
f 933 934 938 937
f 935 936 940 939
f 933 937 940 936
f 934 935 939 938
f 941 944 943 942
f 945 946 947 948
f 941 942 946 945
f 943 944 948 947
f 941 945 948 944
f 942 943 947 946
f 949 952 951 950
f 953 954 955 956
f 949 950 954 953
f 951 952 956 955
f 949 953 956 952
f 950 951 955 954
f 957 960 959 958
f 961 962 963 964
f 957 958 962 961
f 959 960 964 963
f 957 961 964 960
f 958 959 963 962
f 965 968 967 966
f 969 970 971 972
f 965 966 970 969
f 967 968 972 971
f 965 969 972 968
f 966 967 971 970
f 973 976 975 974
f 977 978 979 980
f 973 974 978 977
f 975 976 980 979
f 973 977 980 976
f 974 975 979 978
f 981 984 983 982
f 985 986 987 988
f 981 982 986 985
f 983 984 988 987
f 981 985 988 984
f 982 983 987 986
f 989 992 991 990
f 993 994 995 996
f 989 990 994 993
f 991 992 996 995
f 989 993 996 992
f 990 991 995 994
f 997 1000 999 998
f 1001 1002 1003 1004
f 997 998 1002 1001
f 999 1000 1004 1003
f 997 1001 1004 1000
f 998 999 1003 1002
f 1005 1008 1007 1006
f 1009 1010 1011 1012
f 1005 1006 1010 1009
f 1007 1008 1012 1011
f 1005 1009 1012 1008
f 1006 1007 1011 1010
g asphalt
usemtl asphalt
f 1013 1016 1015 1014
f 1017 1018 1019 1020
f 1013 1014 1018 1017
f 1015 1016 1020 1019
f 1013 1017 1020 1016
f 1014 1015 1019 1018
g concrete
usemtl concrete
f 1029 1032 1031 1030
f 1033 1034 1035 1036
f 1029 1030 1034 1033
f 1031 1032 1036 1035
f 1029 1033 1036 1032
f 1030 1031 1035 1034
g fence
usemtl fence
f 1045 1048 1047 1046
f 1049 1050 1051 1052
f 1045 1046 1050 1049
f 1047 1048 1052 1051
f 1045 1049 1052 1048
f 1046 1047 1051 1050
f 1053 1056 1055 1054
f 1057 1058 1059 1060
f 1053 1054 1058 1057
f 1055 1056 1060 1059
f 1053 1057 1060 1056
f 1054 1055 1059 1058
f 1061 1064 1063 1062
f 1065 1066 1067 1068
f 1061 1062 1066 1065
f 1063 1064 1068 1067
f 1061 1065 1068 1064
f 1062 1063 1067 1066
f 1069 1072 1071 1070
f 1073 1074 1075 1076
f 1069 1070 1074 1073
f 1071 1072 1076 1075
f 1069 1073 1076 1072
f 1070 1071 1075 1074
g grass
usemtl grass
f 1077 1078 1079 1080
g trunk
usemtl trunk
f 1081 1084 1083 1082
f 1085 1086 1087 1088
f 1081 1082 1086 1085
f 1083 1084 1088 1087
f 1081 1085 1088 1084
f 1082 1083 1087 1086
f 1097 1100 1099 1098
f 1101 1102 1103 1104
f 1097 1098 1102 1101
f 1099 1100 1104 1103
f 1097 1101 1104 1100
f 1098 1099 1103 1102
f 1113 1116 1115 1114
f 1117 1118 1119 1120
f 1113 1114 1118 1117
f 1115 1116 1120 1119
f 1113 1117 1120 1116
f 1114 1115 1119 1118
f 1129 1132 1131 1130
f 1133 1134 1135 1136
f 1129 1130 1134 1133
f 1131 1132 1136 1135
f 1129 1133 1136 1132
f 1130 1131 1135 1134
f 1145 1148 1147 1146
f 1149 1150 1151 1152
f 1145 1146 1150 1149
f 1147 1148 1152 1151
f 1145 1149 1152 1148
f 1146 1147 1151 1150
f 1161 1164 1163 1162
f 1165 1166 1167 1168
f 1161 1162 1166 1165
f 1163 1164 1168 1167
f 1161 1165 1168 1164
f 1162 1163 1167 1166
f 1177 1180 1179 1178
f 1181 1182 1183 1184
f 1177 1178 1182 1181
f 1179 1180 1184 1183
f 1177 1181 1184 1180
f 1178 1179 1183 1182
f 1193 1196 1195 1194
f 1197 1198 1199 1200
f 1193 1194 1198 1197
f 1195 1196 1200 1199
f 1193 1197 1200 1196
f 1194 1195 1199 1198
g crown
usemtl crown
f 1089 1092 1091 1090
f 1093 1094 1095 1096
f 1089 1090 1094 1093
f 1091 1092 1096 1095
f 1089 1093 1096 1092
f 1090 1091 1095 1094
f 1105 1108 1107 1106
f 1109 1110 1111 1112
f 1105 1106 1110 1109
f 1107 1108 1112 1111
f 1105 1109 1112 1108
f 1106 1107 1111 1110
f 1121 1124 1123 1122
f 1125 1126 1127 1128
f 1121 1122 1126 1125
f 1123 1124 1128 1127
f 1121 1125 1128 1124
f 1122 1123 1127 1126
f 1137 1140 1139 1138
f 1141 1142 1143 1144
f 1137 1138 1142 1141
f 1139 1140 1144 1143
f 1137 1141 1144 1140
f 1138 1139 1143 1142
f 1153 1156 1155 1154
f 1157 1158 1159 1160
f 1153 1154 1158 1157
f 1155 1156 1160 1159
f 1153 1157 1160 1156
f 1154 1155 1159 1158
f 1169 1172 1171 1170
f 1173 1174 1175 1176
f 1169 1170 1174 1173
f 1171 1172 1176 1175
f 1169 1173 1176 1172
f 1170 1171 1175 1174
f 1185 1188 1187 1186
f 1189 1190 1191 1192
f 1185 1186 1190 1189
f 1187 1188 1192 1191
f 1185 1189 1192 1188
f 1186 1187 1191 1190
f 1201 1204 1203 1202
f 1205 1206 1207 1208
f 1201 1202 1206 1205
f 1203 1204 1208 1207
f 1201 1205 1208 1204
f 1202 1203 1207 1206
