<svg xmlns="http://www.w3.org/2000/svg" xmlns:xlink="http://www.w3.org/1999/xlink" width="1782" height="1260" viewBox="0 0 594 420">
<defs><pattern id="hConcrete" patternUnits="userSpaceOnUse" width="3" height="3" patternTransform="rotate(45)"><line x1="0" y1="0" x2="0" y2="3" stroke="#333" stroke-width="0.18"/><circle cx="1.5" cy="1.5" r="0.22" fill="#333"/></pattern><pattern id="hMasonry" patternUnits="userSpaceOnUse" width="2.2" height="2.2" patternTransform="rotate(45)"><line x1="0" y1="0" x2="0" y2="2.2" stroke="#444" stroke-width="0.18"/></pattern><pattern id="hAerated" patternUnits="userSpaceOnUse" width="4" height="4" patternTransform="rotate(45)"><line x1="0" y1="0" x2="0" y2="4" stroke="#555" stroke-width="0.18"/><circle cx="2" cy="2" r="0.25" fill="none" stroke="#555" stroke-width="0.15"/></pattern><pattern id="hInsul" patternUnits="userSpaceOnUse" width="4" height="4"><path d="M0 2 Q1 0 2 2 T4 2" fill="none" stroke="#666" stroke-width="0.18"/></pattern><pattern id="hWood" patternUnits="userSpaceOnUse" width="3" height="3" patternTransform="rotate(45)"><line x1="0" y1="0" x2="0" y2="3" stroke="#7a4a1a" stroke-width="0.15"/><line x1="1.2" y1="0" x2="1.2" y2="3" stroke="#7a4a1a" stroke-width="0.15"/></pattern><pattern id="hEarth" patternUnits="userSpaceOnUse" width="5" height="5"><line x1="0" y1="2.5" x2="2.5" y2="2.5" stroke="#777" stroke-width="0.18"/><line x1="3.5" y1="1" x2="5" y2="1" stroke="#777" stroke-width="0.18"/><line x1="2" y1="4.2" x2="4.5" y2="4.2" stroke="#777" stroke-width="0.18"/></pattern><pattern id="hSand" patternUnits="userSpaceOnUse" width="3" height="3"><circle cx="0.7" cy="0.8" r="0.2" fill="#777"/><circle cx="2.1" cy="2.2" r="0.2" fill="#777"/></pattern><pattern id="hGravel" patternUnits="userSpaceOnUse" width="5" height="5"><circle cx="1.2" cy="1.2" r="0.6" fill="none" stroke="#666" stroke-width="0.15"/><circle cx="3.6" cy="3.4" r="0.8" fill="none" stroke="#666" stroke-width="0.15"/></pattern><pattern id="hGrass" patternUnits="userSpaceOnUse" width="6" height="6"><path d="M1 5 l1 -2 l1 2 M4 4 l1 -2 l1 2" fill="none" stroke="#5a9a3a" stroke-width="0.2"/></pattern><pattern id="hPaving" patternUnits="userSpaceOnUse" width="4" height="4"><rect x="0" y="0" width="4" height="4" fill="none" stroke="#999" stroke-width="0.15"/></pattern><pattern id="hGlass" patternUnits="userSpaceOnUse" width="6" height="6" patternTransform="rotate(-45)"><line x1="0" y1="0" x2="0" y2="6" stroke="#5b8fc7" stroke-width="0.25"/></pattern><marker id="arrow" viewBox="0 0 10 10" refX="9" refY="5" markerWidth="4" markerHeight="4" orient="auto-start-reverse"><path d="M0 0 L10 5 L0 10 z" fill="#000"/></marker><marker id="arrowR" viewBox="0 0 10 10" refX="9" refY="5" markerWidth="4" markerHeight="4" orient="auto-start-reverse"><path d="M0 0 L10 5 L0 10 z" fill="#c00"/></marker><marker id="arrowB" viewBox="0 0 10 10" refX="9" refY="5" markerWidth="4" markerHeight="4" orient="auto-start-reverse"><path d="M0 0 L10 5 L0 10 z" fill="#1a5fb4"/></marker></defs>
<rect x="0" y="0" width="594" height="420" fill="#fff"/>
<rect x="20.0" y="5.0" width="569.0" height="410.0" fill="none" stroke="#000" stroke-width="0.7"/>
<rect x="404.0" y="375.0" width="185" height="40" fill="#fff" stroke="#000" stroke-width="0.7"/>
<line x1="404.0" y1="383.0" x2="589.0" y2="383.0" stroke="#000" stroke-width="0.35"/>
<line x1="404.0" y1="391.0" x2="589.0" y2="391.0" stroke="#000" stroke-width="0.35"/>
<line x1="404.0" y1="399.0" x2="589.0" y2="399.0" stroke="#000" stroke-width="0.35"/>
<line x1="404.0" y1="407.0" x2="589.0" y2="407.0" stroke="#000" stroke-width="0.35"/>
<line x1="469.0" y1="375.0" x2="469.0" y2="415.0" stroke="#000" stroke-width="0.7"/>
<line x1="539.0" y1="391.0" x2="539.0" y2="415.0" stroke="#000" stroke-width="0.7"/>
<line x1="564.0" y1="391.0" x2="564.0" y2="415.0" stroke="#000" stroke-width="0.35"/>
<text x="406.0" y="379.0" font-family="'DejaVu Sans', 'Liberation Sans', Arial, sans-serif" font-size="2.2" text-anchor="start" dominant-baseline="middle" font-weight="normal">Разраб.</text>
<text x="426.0" y="379.0" font-family="'DejaVu Sans', 'Liberation Sans', Arial, sans-serif" font-size="2.2" text-anchor="start" dominant-baseline="middle" font-weight="normal">Claude (ИИ)</text>
<text x="406.0" y="387.0" font-family="'DejaVu Sans', 'Liberation Sans', Arial, sans-serif" font-size="2.2" text-anchor="start" dominant-baseline="middle" font-weight="normal">Пров.</text>
<text x="426.0" y="387.0" font-family="'DejaVu Sans', 'Liberation Sans', Arial, sans-serif" font-size="2.0" text-anchor="start" dominant-baseline="middle" font-weight="normal">— (требуется ГИП/ГАП)</text>
<text x="406.0" y="395.0" font-family="'DejaVu Sans', 'Liberation Sans', Arial, sans-serif" font-size="2.2" text-anchor="start" dominant-baseline="middle" font-weight="normal">Стадия</text>
<text x="406.0" y="403.0" font-family="'DejaVu Sans', 'Liberation Sans', Arial, sans-serif" font-size="2.2" text-anchor="start" dominant-baseline="middle" font-weight="normal">Шифр</text>
<text x="426.0" y="403.0" font-family="'DejaVu Sans', 'Liberation Sans', Arial, sans-serif" font-size="2.4" text-anchor="start" dominant-baseline="middle" font-weight="bold">АР-5</text>
<text x="406.0" y="411.0" font-family="'DejaVu Sans', 'Liberation Sans', Arial, sans-serif" font-size="2.2" text-anchor="start" dominant-baseline="middle" font-weight="normal">Дата</text>
<text x="426.0" y="411.0" font-family="'DejaVu Sans', 'Liberation Sans', Arial, sans-serif" font-size="2.2" text-anchor="start" dominant-baseline="middle" font-weight="normal">09.2026</text>
<text x="504.0" y="380.0" font-family="'DejaVu Sans', 'Liberation Sans', Arial, sans-serif" font-size="2.6" text-anchor="middle" dominant-baseline="middle" font-weight="bold">Индивидуальный жилой дом, 2 этажа, ~400 м²</text>
<text x="504.0" y="387.0" font-family="'DejaVu Sans', 'Liberation Sans', Arial, sans-serif" font-size="2.2" text-anchor="middle" dominant-baseline="middle" font-weight="normal">Участок 6 соток (20×30 м), 2 этажа + холодный чердак</text>
<text x="504.0" y="398.0" font-family="'DejaVu Sans', 'Liberation Sans', Arial, sans-serif" font-size="3.0" text-anchor="middle" dominant-baseline="middle" font-weight="bold">Фасады А-Б и Б-А</text>
<text x="504.0" y="405.0" font-family="'DejaVu Sans', 'Liberation Sans', Arial, sans-serif" font-size="2.3" text-anchor="middle" dominant-baseline="middle" font-weight="normal">Масштаб 1:100</text>
<text x="504.0" y="411.0" font-family="'DejaVu Sans', 'Liberation Sans', Arial, sans-serif" font-size="2.2" text-anchor="middle" dominant-baseline="middle" font-weight="normal">Стадия: ЭП</text>
<text x="551.0" y="395.0" font-family="'DejaVu Sans', 'Liberation Sans', Arial, sans-serif" font-size="2.2" text-anchor="middle" dominant-baseline="middle" font-weight="normal">Лист</text>
<text x="551.0" y="405.0" font-family="'DejaVu Sans', 'Liberation Sans', Arial, sans-serif" font-size="3.0" text-anchor="middle" dominant-baseline="middle" font-weight="bold">9</text>
<text x="576.0" y="395.0" font-family="'DejaVu Sans', 'Liberation Sans', Arial, sans-serif" font-size="2.2" text-anchor="middle" dominant-baseline="middle" font-weight="normal">Листов</text>
<text x="576.0" y="405.0" font-family="'DejaVu Sans', 'Liberation Sans', Arial, sans-serif" font-size="3.0" text-anchor="middle" dominant-baseline="middle" font-weight="bold">32</text>
<text x="551.0" y="413.0" font-family="'DejaVu Sans', 'Liberation Sans', Arial, sans-serif" font-size="1.7" text-anchor="middle" dominant-baseline="middle" font-weight="normal">Эскизный проект — не для строительства</text>
<text x="120.00" y="78.00" font-family="'DejaVu Sans', 'Liberation Sans', Arial, sans-serif" font-size="4.2" text-anchor="middle" dominant-baseline="middle" font-weight="bold" fill="#000">Фасад А-Б (западный)   М 1:100</text>
<rect x="15.00" y="204.50" width="210.00" height="5.00" fill="url(#hEarth)" fill-opacity="0.6" stroke="none"/>
<line x1="15.00" y1="204.50" x2="225.00" y2="204.50" stroke="#000" stroke-width="0.7" stroke-linecap="round"/>
<rect x="40.00" y="137.26" width="160.00" height="62.74" fill="#f2efe8" stroke="#000" stroke-width="0.35"/>
<rect x="40.00" y="200.00" width="160.00" height="4.50" fill="#5b5550" stroke="#000" stroke-width="0.35"/>
<rect x="35.00" y="134.46" width="170.00" height="2.80" fill="#3c3f42" stroke="#000" stroke-width="0.35"/>
<rect x="35.00" y="93.47" width="170.00" height="40.99" fill="#4d5156" stroke="#000" stroke-width="0.35"/>
<line x1="40.00" y1="134.46" x2="40.00" y2="93.47" stroke="#6b7075" stroke-width="0.18" stroke-linecap="round"/>
<line x1="45.00" y1="134.46" x2="45.00" y2="93.47" stroke="#6b7075" stroke-width="0.18" stroke-linecap="round"/>
<line x1="50.00" y1="134.46" x2="50.00" y2="93.47" stroke="#6b7075" stroke-width="0.18" stroke-linecap="round"/>
<line x1="55.00" y1="134.46" x2="55.00" y2="93.47" stroke="#6b7075" stroke-width="0.18" stroke-linecap="round"/>
<line x1="60.00" y1="134.46" x2="60.00" y2="93.47" stroke="#6b7075" stroke-width="0.18" stroke-linecap="round"/>
<line x1="65.00" y1="134.46" x2="65.00" y2="93.47" stroke="#6b7075" stroke-width="0.18" stroke-linecap="round"/>
<line x1="70.00" y1="134.46" x2="70.00" y2="93.47" stroke="#6b7075" stroke-width="0.18" stroke-linecap="round"/>
<line x1="75.00" y1="134.46" x2="75.00" y2="93.47" stroke="#6b7075" stroke-width="0.18" stroke-linecap="round"/>
<line x1="80.00" y1="134.46" x2="80.00" y2="93.47" stroke="#6b7075" stroke-width="0.18" stroke-linecap="round"/>
<line x1="85.00" y1="134.46" x2="85.00" y2="93.47" stroke="#6b7075" stroke-width="0.18" stroke-linecap="round"/>
<line x1="90.00" y1="134.46" x2="90.00" y2="93.47" stroke="#6b7075" stroke-width="0.18" stroke-linecap="round"/>
<line x1="95.00" y1="134.46" x2="95.00" y2="93.47" stroke="#6b7075" stroke-width="0.18" stroke-linecap="round"/>
<line x1="100.00" y1="134.46" x2="100.00" y2="93.47" stroke="#6b7075" stroke-width="0.18" stroke-linecap="round"/>
<line x1="105.00" y1="134.46" x2="105.00" y2="93.47" stroke="#6b7075" stroke-width="0.18" stroke-linecap="round"/>
<line x1="110.00" y1="134.46" x2="110.00" y2="93.47" stroke="#6b7075" stroke-width="0.18" stroke-linecap="round"/>
<line x1="115.00" y1="134.46" x2="115.00" y2="93.47" stroke="#6b7075" stroke-width="0.18" stroke-linecap="round"/>
<line x1="120.00" y1="134.46" x2="120.00" y2="93.47" stroke="#6b7075" stroke-width="0.18" stroke-linecap="round"/>
<line x1="125.00" y1="134.46" x2="125.00" y2="93.47" stroke="#6b7075" stroke-width="0.18" stroke-linecap="round"/>
<line x1="130.00" y1="134.46" x2="130.00" y2="93.47" stroke="#6b7075" stroke-width="0.18" stroke-linecap="round"/>
<line x1="135.00" y1="134.46" x2="135.00" y2="93.47" stroke="#6b7075" stroke-width="0.18" stroke-linecap="round"/>
<line x1="140.00" y1="134.46" x2="140.00" y2="93.47" stroke="#6b7075" stroke-width="0.18" stroke-linecap="round"/>
<line x1="145.00" y1="134.46" x2="145.00" y2="93.47" stroke="#6b7075" stroke-width="0.18" stroke-linecap="round"/>
<line x1="150.00" y1="134.46" x2="150.00" y2="93.47" stroke="#6b7075" stroke-width="0.18" stroke-linecap="round"/>
<line x1="155.00" y1="134.46" x2="155.00" y2="93.47" stroke="#6b7075" stroke-width="0.18" stroke-linecap="round"/>
<line x1="160.00" y1="134.46" x2="160.00" y2="93.47" stroke="#6b7075" stroke-width="0.18" stroke-linecap="round"/>
<line x1="165.00" y1="134.46" x2="165.00" y2="93.47" stroke="#6b7075" stroke-width="0.18" stroke-linecap="round"/>
<line x1="170.00" y1="134.46" x2="170.00" y2="93.47" stroke="#6b7075" stroke-width="0.18" stroke-linecap="round"/>
<line x1="175.00" y1="134.46" x2="175.00" y2="93.47" stroke="#6b7075" stroke-width="0.18" stroke-linecap="round"/>
<line x1="180.00" y1="134.46" x2="180.00" y2="93.47" stroke="#6b7075" stroke-width="0.18" stroke-linecap="round"/>
<line x1="185.00" y1="134.46" x2="185.00" y2="93.47" stroke="#6b7075" stroke-width="0.18" stroke-linecap="round"/>
<line x1="190.00" y1="134.46" x2="190.00" y2="93.47" stroke="#6b7075" stroke-width="0.18" stroke-linecap="round"/>
<line x1="195.00" y1="134.46" x2="195.00" y2="93.47" stroke="#6b7075" stroke-width="0.18" stroke-linecap="round"/>
<line x1="200.00" y1="134.46" x2="200.00" y2="93.47" stroke="#6b7075" stroke-width="0.18" stroke-linecap="round"/>
<line x1="35.00" y1="93.47" x2="205.00" y2="93.47" stroke="#000" stroke-width="0.7" stroke-linecap="round"/>
<rect x="156.00" y="175.00" width="18.00" height="15.00" fill="#2e3236" stroke="#000" stroke-width="0.18"/>
<rect x="156.60" y="175.60" width="16.80" height="13.80" fill="#b8d4e8" stroke="none"/>
<rect x="156.60" y="175.60" width="16.80" height="13.80" fill="url(#hGlass)" fill-opacity="0.5" stroke="none"/>
<line x1="165.00" y1="189.40" x2="165.00" y2="175.60" stroke="#2e3236" stroke-width="0.35" stroke-linecap="round"/>
<line x1="155.50" y1="190.00" x2="174.50" y2="190.00" stroke="#000" stroke-width="0.35" stroke-linecap="round"/>
<rect x="120.00" y="175.00" width="15.00" height="15.00" fill="#2e3236" stroke="#000" stroke-width="0.18"/>
<rect x="120.60" y="175.60" width="13.80" height="13.80" fill="#b8d4e8" stroke="none"/>
<rect x="120.60" y="175.60" width="13.80" height="13.80" fill="url(#hGlass)" fill-opacity="0.5" stroke="none"/>
<line x1="127.50" y1="189.40" x2="127.50" y2="175.60" stroke="#2e3236" stroke-width="0.35" stroke-linecap="round"/>
<line x1="119.50" y1="190.00" x2="135.50" y2="190.00" stroke="#000" stroke-width="0.35" stroke-linecap="round"/>
<rect x="67.00" y="175.00" width="10.00" height="7.50" fill="#2e3236" stroke="#000" stroke-width="0.18"/>
<rect x="67.60" y="175.60" width="8.80" height="6.30" fill="#b8d4e8" stroke="none"/>
<rect x="67.60" y="175.60" width="8.80" height="6.30" fill="url(#hGlass)" fill-opacity="0.5" stroke="none"/>
<line x1="66.50" y1="182.50" x2="77.50" y2="182.50" stroke="#000" stroke-width="0.35" stroke-linecap="round"/>
<rect x="170.00" y="142.00" width="15.00" height="15.00" fill="#2e3236" stroke="#000" stroke-width="0.18"/>
<rect x="170.60" y="142.60" width="13.80" height="13.80" fill="#b8d4e8" stroke="none"/>
<rect x="170.60" y="142.60" width="13.80" height="13.80" fill="url(#hGlass)" fill-opacity="0.5" stroke="none"/>
<line x1="177.50" y1="156.40" x2="177.50" y2="142.60" stroke="#2e3236" stroke-width="0.35" stroke-linecap="round"/>
<line x1="169.50" y1="157.00" x2="185.50" y2="157.00" stroke="#000" stroke-width="0.35" stroke-linecap="round"/>
<rect x="143.00" y="142.00" width="9.00" height="12.50" fill="#2e3236" stroke="#000" stroke-width="0.18"/>
<rect x="143.60" y="142.60" width="7.80" height="11.30" fill="#b8d4e8" stroke="none"/>
<rect x="143.60" y="142.60" width="7.80" height="11.30" fill="url(#hGlass)" fill-opacity="0.5" stroke="none"/>
<line x1="142.50" y1="154.50" x2="152.50" y2="154.50" stroke="#000" stroke-width="0.35" stroke-linecap="round"/>
<rect x="125.00" y="142.00" width="9.00" height="15.00" fill="#2e3236" stroke="#000" stroke-width="0.18"/>
<rect x="125.60" y="142.60" width="7.80" height="13.80" fill="#b8d4e8" stroke="none"/>
<rect x="125.60" y="142.60" width="7.80" height="13.80" fill="url(#hGlass)" fill-opacity="0.5" stroke="none"/>
<line x1="124.50" y1="157.00" x2="134.50" y2="157.00" stroke="#000" stroke-width="0.35" stroke-linecap="round"/>
<rect x="97.00" y="142.00" width="9.00" height="12.50" fill="#2e3236" stroke="#000" stroke-width="0.18"/>
<rect x="97.60" y="142.60" width="7.80" height="11.30" fill="#b8d4e8" stroke="none"/>
<rect x="97.60" y="142.60" width="7.80" height="11.30" fill="url(#hGlass)" fill-opacity="0.5" stroke="none"/>
<line x1="96.50" y1="154.50" x2="106.50" y2="154.50" stroke="#000" stroke-width="0.35" stroke-linecap="round"/>
<rect x="57.00" y="142.00" width="15.00" height="15.00" fill="#2e3236" stroke="#000" stroke-width="0.18"/>
<rect x="57.60" y="142.60" width="13.80" height="13.80" fill="#b8d4e8" stroke="none"/>
<rect x="57.60" y="142.60" width="13.80" height="13.80" fill="url(#hGlass)" fill-opacity="0.5" stroke="none"/>
<line x1="64.50" y1="156.40" x2="64.50" y2="142.60" stroke="#2e3236" stroke-width="0.35" stroke-linecap="round"/>
<line x1="56.50" y1="157.00" x2="72.50" y2="157.00" stroke="#000" stroke-width="0.35" stroke-linecap="round"/>
<rect x="200.00" y="201.50" width="30.00" height="3.00" fill="#bbb" stroke="#000" stroke-width="0.18"/>
<rect x="24.00" y="200.30" width="16.00" height="4.20" fill="#bbb" stroke="#000" stroke-width="0.18"/>
<rect x="20.00" y="171.50" width="20.00" height="1.50" fill="#3c3f42" stroke="#000" stroke-width="0.18"/>
<rect x="44.00" y="88.35" width="4.00" height="7.00" fill="#777" stroke="#000" stroke-width="0.18"/>
<rect x="43.20" y="87.15" width="5.60" height="1.20" fill="#444" stroke="#000" stroke-width="0.18"/>
<rect x="88.50" y="88.35" width="4.00" height="7.00" fill="#777" stroke="#000" stroke-width="0.18"/>
<rect x="87.70" y="87.15" width="5.60" height="1.20" fill="#444" stroke="#000" stroke-width="0.18"/>
<rect x="145.50" y="88.35" width="4.00" height="7.00" fill="#777" stroke="#000" stroke-width="0.18"/>
<rect x="144.70" y="87.15" width="5.60" height="1.20" fill="#444" stroke="#000" stroke-width="0.18"/>
<rect x="137.00" y="108.99" width="4.00" height="7.00" fill="#777" stroke="#000" stroke-width="0.18"/>
<rect x="136.20" y="107.79" width="5.60" height="1.20" fill="#444" stroke="#000" stroke-width="0.18"/>
<rect x="88.50" y="105.52" width="4.00" height="7.00" fill="#777" stroke="#000" stroke-width="0.18"/>
<rect x="87.70" y="104.32" width="5.60" height="1.20" fill="#444" stroke="#000" stroke-width="0.18"/>
<rect x="44.00" y="101.48" width="4.00" height="7.00" fill="#777" stroke="#000" stroke-width="0.18"/>
<rect x="43.20" y="100.28" width="5.60" height="1.20" fill="#444" stroke="#000" stroke-width="0.18"/>
<polygon points="24.00,204.50 22.60,202.50 25.40,202.50" fill="#000" stroke="#000" stroke-width="0.18" stroke-linejoin="round"/>
<line x1="24.00" y1="202.50" x2="15.00" y2="202.50" stroke="#000" stroke-width="0.18" stroke-linecap="round"/>
<text x="19.50" y="201.50" font-family="'DejaVu Sans', 'Liberation Sans', Arial, sans-serif" font-size="2.5" text-anchor="middle" dominant-baseline="auto" font-weight="normal" fill="#000">−0,450</text>
<polygon points="24.00,200.00 22.60,198.00 25.40,198.00" fill="#000" stroke="#000" stroke-width="0.18" stroke-linejoin="round"/>
<line x1="24.00" y1="198.00" x2="15.00" y2="198.00" stroke="#000" stroke-width="0.18" stroke-linecap="round"/>
<text x="19.50" y="197.00" font-family="'DejaVu Sans', 'Liberation Sans', Arial, sans-serif" font-size="2.5" text-anchor="middle" dominant-baseline="auto" font-weight="normal" fill="#000">±0,000</text>
<polygon points="24.00,167.00 22.60,165.00 25.40,165.00" fill="#000" stroke="#000" stroke-width="0.18" stroke-linejoin="round"/>
<line x1="24.00" y1="165.00" x2="15.00" y2="165.00" stroke="#000" stroke-width="0.18" stroke-linecap="round"/>
<text x="19.50" y="164.00" font-family="'DejaVu Sans', 'Liberation Sans', Arial, sans-serif" font-size="2.5" text-anchor="middle" dominant-baseline="auto" font-weight="normal" fill="#000">+3,300</text>
<polygon points="24.00,135.00 22.60,133.00 25.40,133.00" fill="#000" stroke="#000" stroke-width="0.18" stroke-linejoin="round"/>
<line x1="24.00" y1="133.00" x2="15.00" y2="133.00" stroke="#000" stroke-width="0.18" stroke-linecap="round"/>
<text x="19.50" y="132.00" font-family="'DejaVu Sans', 'Liberation Sans', Arial, sans-serif" font-size="2.5" text-anchor="middle" dominant-baseline="auto" font-weight="normal" fill="#000">+6,500</text>
<polygon points="24.00,93.47 22.60,91.47 25.40,91.47" fill="#000" stroke="#000" stroke-width="0.18" stroke-linejoin="round"/>
<line x1="24.00" y1="91.47" x2="15.00" y2="91.47" stroke="#000" stroke-width="0.18" stroke-linecap="round"/>
<text x="19.50" y="90.47" font-family="'DejaVu Sans', 'Liberation Sans', Arial, sans-serif" font-size="2.5" text-anchor="middle" dominant-baseline="auto" font-weight="normal" fill="#000">+10,650</text>
<polygon points="214.00,134.46 212.60,132.46 215.40,132.46" fill="#000" stroke="#000" stroke-width="0.18" stroke-linejoin="round"/>
<line x1="214.00" y1="132.46" x2="223.00" y2="132.46" stroke="#000" stroke-width="0.18" stroke-linecap="round"/>
<text x="218.50" y="131.46" font-family="'DejaVu Sans', 'Liberation Sans', Arial, sans-serif" font-size="2.5" text-anchor="middle" dominant-baseline="auto" font-weight="normal" fill="#000">+6,554</text>
<line x1="42.00" y1="209.50" x2="42.00" y2="217.50" stroke="#000" stroke-width="0.18" stroke-dasharray="4 1.5" stroke-linecap="round"/>
<circle cx="42.00" cy="221.50" r="4.00" fill="#fff" stroke="#000" stroke-width="0.35"/>
<text x="42.00" y="221.50" font-family="'DejaVu Sans', 'Liberation Sans', Arial, sans-serif" font-size="3.6" text-anchor="middle" dominant-baseline="middle" font-weight="bold" fill="#000">А</text>
<line x1="198.00" y1="209.50" x2="198.00" y2="217.50" stroke="#000" stroke-width="0.18" stroke-dasharray="4 1.5" stroke-linecap="round"/>
<circle cx="198.00" cy="221.50" r="4.00" fill="#fff" stroke="#000" stroke-width="0.35"/>
<text x="198.00" y="221.50" font-family="'DejaVu Sans', 'Liberation Sans', Arial, sans-serif" font-size="3.6" text-anchor="middle" dominant-baseline="middle" font-weight="bold" fill="#000">Б</text>
<line x1="42.00" y1="230.50" x2="42.00" y2="232.50" stroke="#000" stroke-width="0.18" stroke-linecap="round"/>
<line x1="198.00" y1="230.50" x2="198.00" y2="232.50" stroke="#000" stroke-width="0.18" stroke-linecap="round"/>
<line x1="42.00" y1="230.50" x2="198.00" y2="230.50" stroke="#000" stroke-width="0.18" stroke-linecap="round"/>
<line x1="41.16" y1="231.34" x2="42.84" y2="229.66" stroke="#000" stroke-width="0.35" stroke-linecap="round"/>
<text x="120.00" y="229.30" font-family="'DejaVu Sans', 'Liberation Sans', Arial, sans-serif" font-size="2.4" text-anchor="middle" dominant-baseline="auto" font-weight="normal" fill="#000">15600</text>
<line x1="197.16" y1="231.34" x2="198.84" y2="229.66" stroke="#000" stroke-width="0.35" stroke-linecap="round"/>
<text x="400.00" y="78.00" font-family="'DejaVu Sans', 'Liberation Sans', Arial, sans-serif" font-size="4.2" text-anchor="middle" dominant-baseline="middle" font-weight="bold" fill="#000">Фасад Б-А (восточный)   М 1:100</text>
<rect x="295.00" y="204.50" width="210.00" height="5.00" fill="url(#hEarth)" fill-opacity="0.6" stroke="none"/>
<line x1="295.00" y1="204.50" x2="505.00" y2="204.50" stroke="#000" stroke-width="0.7" stroke-linecap="round"/>
<rect x="320.00" y="137.26" width="160.00" height="62.74" fill="#f2efe8" stroke="#000" stroke-width="0.35"/>
<rect x="320.00" y="200.00" width="160.00" height="4.50" fill="#5b5550" stroke="#000" stroke-width="0.35"/>
<rect x="315.00" y="134.46" width="170.00" height="2.80" fill="#3c3f42" stroke="#000" stroke-width="0.35"/>
<rect x="315.00" y="93.47" width="170.00" height="40.99" fill="#4d5156" stroke="#000" stroke-width="0.35"/>
<line x1="480.00" y1="134.46" x2="480.00" y2="93.47" stroke="#6b7075" stroke-width="0.18" stroke-linecap="round"/>
<line x1="475.00" y1="134.46" x2="475.00" y2="93.47" stroke="#6b7075" stroke-width="0.18" stroke-linecap="round"/>
<line x1="470.00" y1="134.46" x2="470.00" y2="93.47" stroke="#6b7075" stroke-width="0.18" stroke-linecap="round"/>
<line x1="465.00" y1="134.46" x2="465.00" y2="93.47" stroke="#6b7075" stroke-width="0.18" stroke-linecap="round"/>
<line x1="460.00" y1="134.46" x2="460.00" y2="93.47" stroke="#6b7075" stroke-width="0.18" stroke-linecap="round"/>
<line x1="455.00" y1="134.46" x2="455.00" y2="93.47" stroke="#6b7075" stroke-width="0.18" stroke-linecap="round"/>
<line x1="450.00" y1="134.46" x2="450.00" y2="93.47" stroke="#6b7075" stroke-width="0.18" stroke-linecap="round"/>
<line x1="445.00" y1="134.46" x2="445.00" y2="93.47" stroke="#6b7075" stroke-width="0.18" stroke-linecap="round"/>
<line x1="440.00" y1="134.46" x2="440.00" y2="93.47" stroke="#6b7075" stroke-width="0.18" stroke-linecap="round"/>
<line x1="435.00" y1="134.46" x2="435.00" y2="93.47" stroke="#6b7075" stroke-width="0.18" stroke-linecap="round"/>
<line x1="430.00" y1="134.46" x2="430.00" y2="93.47" stroke="#6b7075" stroke-width="0.18" stroke-linecap="round"/>
<line x1="425.00" y1="134.46" x2="425.00" y2="93.47" stroke="#6b7075" stroke-width="0.18" stroke-linecap="round"/>
<line x1="420.00" y1="134.46" x2="420.00" y2="93.47" stroke="#6b7075" stroke-width="0.18" stroke-linecap="round"/>
<line x1="415.00" y1="134.46" x2="415.00" y2="93.47" stroke="#6b7075" stroke-width="0.18" stroke-linecap="round"/>
<line x1="410.00" y1="134.46" x2="410.00" y2="93.47" stroke="#6b7075" stroke-width="0.18" stroke-linecap="round"/>
<line x1="405.00" y1="134.46" x2="405.00" y2="93.47" stroke="#6b7075" stroke-width="0.18" stroke-linecap="round"/>
<line x1="400.00" y1="134.46" x2="400.00" y2="93.47" stroke="#6b7075" stroke-width="0.18" stroke-linecap="round"/>
<line x1="395.00" y1="134.46" x2="395.00" y2="93.47" stroke="#6b7075" stroke-width="0.18" stroke-linecap="round"/>
<line x1="390.00" y1="134.46" x2="390.00" y2="93.47" stroke="#6b7075" stroke-width="0.18" stroke-linecap="round"/>
<line x1="385.00" y1="134.46" x2="385.00" y2="93.47" stroke="#6b7075" stroke-width="0.18" stroke-linecap="round"/>
<line x1="380.00" y1="134.46" x2="380.00" y2="93.47" stroke="#6b7075" stroke-width="0.18" stroke-linecap="round"/>
<line x1="375.00" y1="134.46" x2="375.00" y2="93.47" stroke="#6b7075" stroke-width="0.18" stroke-linecap="round"/>
<line x1="370.00" y1="134.46" x2="370.00" y2="93.47" stroke="#6b7075" stroke-width="0.18" stroke-linecap="round"/>
<line x1="365.00" y1="134.46" x2="365.00" y2="93.47" stroke="#6b7075" stroke-width="0.18" stroke-linecap="round"/>
<line x1="360.00" y1="134.46" x2="360.00" y2="93.47" stroke="#6b7075" stroke-width="0.18" stroke-linecap="round"/>
<line x1="355.00" y1="134.46" x2="355.00" y2="93.47" stroke="#6b7075" stroke-width="0.18" stroke-linecap="round"/>
<line x1="350.00" y1="134.46" x2="350.00" y2="93.47" stroke="#6b7075" stroke-width="0.18" stroke-linecap="round"/>
<line x1="345.00" y1="134.46" x2="345.00" y2="93.47" stroke="#6b7075" stroke-width="0.18" stroke-linecap="round"/>
<line x1="340.00" y1="134.46" x2="340.00" y2="93.47" stroke="#6b7075" stroke-width="0.18" stroke-linecap="round"/>
<line x1="335.00" y1="134.46" x2="335.00" y2="93.47" stroke="#6b7075" stroke-width="0.18" stroke-linecap="round"/>
<line x1="330.00" y1="134.46" x2="330.00" y2="93.47" stroke="#6b7075" stroke-width="0.18" stroke-linecap="round"/>
<line x1="325.00" y1="134.46" x2="325.00" y2="93.47" stroke="#6b7075" stroke-width="0.18" stroke-linecap="round"/>
<line x1="320.00" y1="134.46" x2="320.00" y2="93.47" stroke="#6b7075" stroke-width="0.18" stroke-linecap="round"/>
<line x1="485.00" y1="93.47" x2="315.00" y2="93.47" stroke="#000" stroke-width="0.7" stroke-linecap="round"/>
<rect x="442.00" y="175.00" width="12.00" height="15.00" fill="#2e3236" stroke="#000" stroke-width="0.18"/>
<rect x="441.40" y="175.60" width="13.20" height="13.80" fill="#b8d4e8" stroke="none"/>
<rect x="441.40" y="175.60" width="13.20" height="13.80" fill="url(#hGlass)" fill-opacity="0.5" stroke="none"/>
<line x1="453.50" y1="190.00" x2="442.50" y2="190.00" stroke="#000" stroke-width="0.35" stroke-linecap="round"/>
<rect x="426.00" y="175.00" width="6.00" height="10.00" fill="#2e3236" stroke="#000" stroke-width="0.18"/>
<rect x="425.40" y="175.60" width="7.20" height="8.80" fill="#b8d4e8" stroke="none"/>
<rect x="425.40" y="175.60" width="7.20" height="8.80" fill="url(#hGlass)" fill-opacity="0.5" stroke="none"/>
<line x1="431.50" y1="185.00" x2="426.50" y2="185.00" stroke="#000" stroke-width="0.35" stroke-linecap="round"/>
<rect x="370.00" y="175.00" width="18.00" height="17.50" fill="#2e3236" stroke="#000" stroke-width="0.18"/>
<rect x="369.40" y="175.60" width="19.20" height="16.30" fill="#b8d4e8" stroke="none"/>
<rect x="369.40" y="175.60" width="19.20" height="16.30" fill="url(#hGlass)" fill-opacity="0.5" stroke="none"/>
<line x1="379.00" y1="191.90" x2="379.00" y2="175.60" stroke="#2e3236" stroke-width="0.35" stroke-linecap="round"/>
<line x1="387.50" y1="192.50" x2="370.50" y2="192.50" stroke="#000" stroke-width="0.35" stroke-linecap="round"/>
<rect x="336.00" y="175.00" width="18.00" height="17.50" fill="#2e3236" stroke="#000" stroke-width="0.18"/>
<rect x="335.40" y="175.60" width="19.20" height="16.30" fill="#b8d4e8" stroke="none"/>
<rect x="335.40" y="175.60" width="19.20" height="16.30" fill="url(#hGlass)" fill-opacity="0.5" stroke="none"/>
<line x1="345.00" y1="191.90" x2="345.00" y2="175.60" stroke="#2e3236" stroke-width="0.35" stroke-linecap="round"/>
<line x1="353.50" y1="192.50" x2="336.50" y2="192.50" stroke="#000" stroke-width="0.35" stroke-linecap="round"/>
<rect x="442.00" y="142.00" width="12.00" height="15.00" fill="#2e3236" stroke="#000" stroke-width="0.18"/>
<rect x="441.40" y="142.60" width="13.20" height="13.80" fill="#b8d4e8" stroke="none"/>
<rect x="441.40" y="142.60" width="13.20" height="13.80" fill="url(#hGlass)" fill-opacity="0.5" stroke="none"/>
<line x1="453.50" y1="157.00" x2="442.50" y2="157.00" stroke="#000" stroke-width="0.35" stroke-linecap="round"/>
<rect x="423.00" y="142.00" width="6.00" height="10.00" fill="#2e3236" stroke="#000" stroke-width="0.18"/>
<rect x="422.40" y="142.60" width="7.20" height="8.80" fill="#b8d4e8" stroke="none"/>
<rect x="422.40" y="142.60" width="7.20" height="8.80" fill="url(#hGlass)" fill-opacity="0.5" stroke="none"/>
<line x1="428.50" y1="152.00" x2="423.50" y2="152.00" stroke="#000" stroke-width="0.35" stroke-linecap="round"/>
<rect x="339.00" y="142.00" width="15.00" height="15.00" fill="#2e3236" stroke="#000" stroke-width="0.18"/>
<rect x="338.40" y="142.60" width="16.20" height="13.80" fill="#b8d4e8" stroke="none"/>
<rect x="338.40" y="142.60" width="16.20" height="13.80" fill="url(#hGlass)" fill-opacity="0.5" stroke="none"/>
<line x1="346.50" y1="156.40" x2="346.50" y2="142.60" stroke="#2e3236" stroke-width="0.35" stroke-linecap="round"/>
<line x1="353.50" y1="157.00" x2="339.50" y2="157.00" stroke="#000" stroke-width="0.35" stroke-linecap="round"/>
<rect x="290.00" y="201.50" width="30.00" height="3.00" fill="#bbb" stroke="#000" stroke-width="0.18"/>
<rect x="480.00" y="200.30" width="16.00" height="4.20" fill="#bbb" stroke="#000" stroke-width="0.18"/>
<rect x="480.00" y="171.50" width="20.00" height="1.50" fill="#3c3f42" stroke="#000" stroke-width="0.18"/>
<line x1="497.00" y1="173.00" x2="497.00" y2="179.00" stroke="#000" stroke-width="0.18" stroke-linecap="round"/>
<line x1="497.00" y1="179.00" x2="480.00" y2="179.00" stroke="#000" stroke-width="0.18" stroke-linecap="round"/>
<rect x="472.00" y="88.35" width="4.00" height="5.12" fill="#777" stroke="#000" stroke-width="0.18"/>
<rect x="472.80" y="87.15" width="2.40" height="1.20" fill="#444" stroke="#000" stroke-width="0.18"/>
<rect x="427.50" y="88.35" width="4.00" height="5.12" fill="#777" stroke="#000" stroke-width="0.18"/>
<rect x="428.30" y="87.15" width="2.40" height="1.20" fill="#444" stroke="#000" stroke-width="0.18"/>
<rect x="434.00" y="111.88" width="4.00" height="7.00" fill="#777" stroke="#000" stroke-width="0.18"/>
<rect x="434.80" y="110.68" width="2.40" height="1.20" fill="#444" stroke="#000" stroke-width="0.18"/>
<rect x="370.50" y="88.35" width="4.00" height="5.12" fill="#777" stroke="#000" stroke-width="0.18"/>
<rect x="371.30" y="87.15" width="2.40" height="1.20" fill="#444" stroke="#000" stroke-width="0.18"/>
<polygon points="304.00,204.50 302.60,202.50 305.40,202.50" fill="#000" stroke="#000" stroke-width="0.18" stroke-linejoin="round"/>
<line x1="304.00" y1="202.50" x2="295.00" y2="202.50" stroke="#000" stroke-width="0.18" stroke-linecap="round"/>
<text x="299.50" y="201.50" font-family="'DejaVu Sans', 'Liberation Sans', Arial, sans-serif" font-size="2.5" text-anchor="middle" dominant-baseline="auto" font-weight="normal" fill="#000">−0,450</text>
<polygon points="304.00,200.00 302.60,198.00 305.40,198.00" fill="#000" stroke="#000" stroke-width="0.18" stroke-linejoin="round"/>
<line x1="304.00" y1="198.00" x2="295.00" y2="198.00" stroke="#000" stroke-width="0.18" stroke-linecap="round"/>
<text x="299.50" y="197.00" font-family="'DejaVu Sans', 'Liberation Sans', Arial, sans-serif" font-size="2.5" text-anchor="middle" dominant-baseline="auto" font-weight="normal" fill="#000">±0,000</text>
<polygon points="304.00,167.00 302.60,165.00 305.40,165.00" fill="#000" stroke="#000" stroke-width="0.18" stroke-linejoin="round"/>
<line x1="304.00" y1="165.00" x2="295.00" y2="165.00" stroke="#000" stroke-width="0.18" stroke-linecap="round"/>
<text x="299.50" y="164.00" font-family="'DejaVu Sans', 'Liberation Sans', Arial, sans-serif" font-size="2.5" text-anchor="middle" dominant-baseline="auto" font-weight="normal" fill="#000">+3,300</text>
<polygon points="304.00,135.00 302.60,133.00 305.40,133.00" fill="#000" stroke="#000" stroke-width="0.18" stroke-linejoin="round"/>
<line x1="304.00" y1="133.00" x2="295.00" y2="133.00" stroke="#000" stroke-width="0.18" stroke-linecap="round"/>
<text x="299.50" y="132.00" font-family="'DejaVu Sans', 'Liberation Sans', Arial, sans-serif" font-size="2.5" text-anchor="middle" dominant-baseline="auto" font-weight="normal" fill="#000">+6,500</text>
<polygon points="304.00,93.47 302.60,91.47 305.40,91.47" fill="#000" stroke="#000" stroke-width="0.18" stroke-linejoin="round"/>
<line x1="304.00" y1="91.47" x2="295.00" y2="91.47" stroke="#000" stroke-width="0.18" stroke-linecap="round"/>
<text x="299.50" y="90.47" font-family="'DejaVu Sans', 'Liberation Sans', Arial, sans-serif" font-size="2.5" text-anchor="middle" dominant-baseline="auto" font-weight="normal" fill="#000">+10,650</text>
<polygon points="494.00,134.46 492.60,132.46 495.40,132.46" fill="#000" stroke="#000" stroke-width="0.18" stroke-linejoin="round"/>
<line x1="494.00" y1="132.46" x2="503.00" y2="132.46" stroke="#000" stroke-width="0.18" stroke-linecap="round"/>
<text x="498.50" y="131.46" font-family="'DejaVu Sans', 'Liberation Sans', Arial, sans-serif" font-size="2.5" text-anchor="middle" dominant-baseline="auto" font-weight="normal" fill="#000">+6,554</text>
<line x1="478.00" y1="209.50" x2="478.00" y2="217.50" stroke="#000" stroke-width="0.18" stroke-dasharray="4 1.5" stroke-linecap="round"/>
<circle cx="478.00" cy="221.50" r="4.00" fill="#fff" stroke="#000" stroke-width="0.35"/>
<text x="478.00" y="221.50" font-family="'DejaVu Sans', 'Liberation Sans', Arial, sans-serif" font-size="3.6" text-anchor="middle" dominant-baseline="middle" font-weight="bold" fill="#000">А</text>
<line x1="322.00" y1="209.50" x2="322.00" y2="217.50" stroke="#000" stroke-width="0.18" stroke-dasharray="4 1.5" stroke-linecap="round"/>
<circle cx="322.00" cy="221.50" r="4.00" fill="#fff" stroke="#000" stroke-width="0.35"/>
<text x="322.00" y="221.50" font-family="'DejaVu Sans', 'Liberation Sans', Arial, sans-serif" font-size="3.6" text-anchor="middle" dominant-baseline="middle" font-weight="bold" fill="#000">Б</text>
<line x1="322.00" y1="230.50" x2="322.00" y2="232.50" stroke="#000" stroke-width="0.18" stroke-linecap="round"/>
<line x1="478.00" y1="230.50" x2="478.00" y2="232.50" stroke="#000" stroke-width="0.18" stroke-linecap="round"/>
<line x1="322.00" y1="230.50" x2="478.00" y2="230.50" stroke="#000" stroke-width="0.18" stroke-linecap="round"/>
<line x1="321.16" y1="231.34" x2="322.84" y2="229.66" stroke="#000" stroke-width="0.35" stroke-linecap="round"/>
<text x="400.00" y="229.30" font-family="'DejaVu Sans', 'Liberation Sans', Arial, sans-serif" font-size="2.4" text-anchor="middle" dominant-baseline="auto" font-weight="normal" fill="#000">15600</text>
<line x1="477.16" y1="231.34" x2="478.84" y2="229.66" stroke="#000" stroke-width="0.35" stroke-linecap="round"/>
<text x="40.00" y="262.00" font-family="'DejaVu Sans', 'Liberation Sans', Arial, sans-serif" font-size="3.2" text-anchor="start" dominant-baseline="middle" font-weight="bold" fill="#000">Наружная отделка (ведомость)</text>
<rect x="40.00" y="266.00" width="258.00" height="6.58" fill="#e9e9e9" stroke="#000" stroke-width="0.35"/>
<line x1="40.00" y1="266.00" x2="40.00" y2="272.58" stroke="#000" stroke-width="0.35" stroke-linecap="round"/>
<text x="44.00" y="269.29" font-family="'DejaVu Sans', 'Liberation Sans', Arial, sans-serif" font-size="2.2" text-anchor="middle" dominant-baseline="middle" font-weight="bold" fill="#000">№</text>
<line x1="48.00" y1="266.00" x2="48.00" y2="272.58" stroke="#000" stroke-width="0.35" stroke-linecap="round"/>
<text x="68.00" y="269.29" font-family="'DejaVu Sans', 'Liberation Sans', Arial, sans-serif" font-size="2.2" text-anchor="middle" dominant-baseline="middle" font-weight="bold" fill="#000">Элемент</text>
<line x1="88.00" y1="266.00" x2="88.00" y2="272.58" stroke="#000" stroke-width="0.35" stroke-linecap="round"/>
<text x="193.00" y="269.29" font-family="'DejaVu Sans', 'Liberation Sans', Arial, sans-serif" font-size="2.2" text-anchor="middle" dominant-baseline="middle" font-weight="bold" fill="#000">Материал / цвет</text>
<rect x="40.00" y="272.58" width="258.00" height="5.06" fill="none" stroke="#000" stroke-width="0.18"/>
<line x1="40.00" y1="272.58" x2="40.00" y2="277.64" stroke="#000" stroke-width="0.18" stroke-linecap="round"/>
<text x="44.00" y="275.11" font-family="'DejaVu Sans', 'Liberation Sans', Arial, sans-serif" font-size="2.2" text-anchor="middle" dominant-baseline="middle" font-weight="normal" fill="#000">1</text>
<line x1="48.00" y1="272.58" x2="48.00" y2="277.64" stroke="#000" stroke-width="0.18" stroke-linecap="round"/>
<text x="49.20" y="275.11" font-family="'DejaVu Sans', 'Liberation Sans', Arial, sans-serif" font-size="2.2" text-anchor="start" dominant-baseline="middle" font-weight="normal" fill="#000">Стены</text>
<line x1="88.00" y1="272.58" x2="88.00" y2="277.64" stroke="#000" stroke-width="0.18" stroke-linecap="round"/>
<text x="89.20" y="275.11" font-family="'DejaVu Sans', 'Liberation Sans', Arial, sans-serif" font-size="2.2" text-anchor="start" dominant-baseline="middle" font-weight="normal" fill="#000">штукатурка тонкослойная паропроницаемая по газобетону, окраска силикатной краской, RAL 9003 (белый)</text>
<rect x="40.00" y="277.64" width="258.00" height="5.06" fill="none" stroke="#000" stroke-width="0.18"/>
<line x1="40.00" y1="277.64" x2="40.00" y2="282.70" stroke="#000" stroke-width="0.18" stroke-linecap="round"/>
<text x="44.00" y="280.17" font-family="'DejaVu Sans', 'Liberation Sans', Arial, sans-serif" font-size="2.2" text-anchor="middle" dominant-baseline="middle" font-weight="normal" fill="#000">2</text>
<line x1="48.00" y1="277.64" x2="48.00" y2="282.70" stroke="#000" stroke-width="0.18" stroke-linecap="round"/>
<text x="49.20" y="280.17" font-family="'DejaVu Sans', 'Liberation Sans', Arial, sans-serif" font-size="2.2" text-anchor="start" dominant-baseline="middle" font-weight="normal" fill="#000">Фронтоны</text>
<line x1="88.00" y1="277.64" x2="88.00" y2="282.70" stroke="#000" stroke-width="0.18" stroke-linecap="round"/>
<text x="89.20" y="280.17" font-family="'DejaVu Sans', 'Liberation Sans', Arial, sans-serif" font-size="2.2" text-anchor="start" dominant-baseline="middle" font-weight="normal" fill="#000">планкен лиственница 20×140, скрытый крепёж, масло с УФ-фильтром, тон «натуральный»</text>
<rect x="40.00" y="282.70" width="258.00" height="5.06" fill="none" stroke="#000" stroke-width="0.18"/>
<line x1="40.00" y1="282.70" x2="40.00" y2="287.76" stroke="#000" stroke-width="0.18" stroke-linecap="round"/>
<text x="44.00" y="285.23" font-family="'DejaVu Sans', 'Liberation Sans', Arial, sans-serif" font-size="2.2" text-anchor="middle" dominant-baseline="middle" font-weight="normal" fill="#000">3</text>
<line x1="48.00" y1="282.70" x2="48.00" y2="287.76" stroke="#000" stroke-width="0.18" stroke-linecap="round"/>
<text x="49.20" y="285.23" font-family="'DejaVu Sans', 'Liberation Sans', Arial, sans-serif" font-size="2.2" text-anchor="start" dominant-baseline="middle" font-weight="normal" fill="#000">Кровля, желоба, козырёк</text>
<line x1="88.00" y1="282.70" x2="88.00" y2="287.76" stroke="#000" stroke-width="0.18" stroke-linecap="round"/>
<text x="89.20" y="285.23" font-family="'DejaVu Sans', 'Liberation Sans', Arial, sans-serif" font-size="2.2" text-anchor="start" dominant-baseline="middle" font-weight="normal" fill="#000">фальцевая кровля / водосток сталь с полимерным покрытием RAL 7016 (антрацит)</text>
<rect x="40.00" y="287.76" width="258.00" height="5.06" fill="none" stroke="#000" stroke-width="0.18"/>
<line x1="40.00" y1="287.76" x2="40.00" y2="292.82" stroke="#000" stroke-width="0.18" stroke-linecap="round"/>
<text x="44.00" y="290.29" font-family="'DejaVu Sans', 'Liberation Sans', Arial, sans-serif" font-size="2.2" text-anchor="middle" dominant-baseline="middle" font-weight="normal" fill="#000">4</text>
<line x1="48.00" y1="287.76" x2="48.00" y2="292.82" stroke="#000" stroke-width="0.18" stroke-linecap="round"/>
<text x="49.20" y="290.29" font-family="'DejaVu Sans', 'Liberation Sans', Arial, sans-serif" font-size="2.2" text-anchor="start" dominant-baseline="middle" font-weight="normal" fill="#000">Цоколь</text>
<line x1="88.00" y1="287.76" x2="88.00" y2="292.82" stroke="#000" stroke-width="0.18" stroke-linecap="round"/>
<text x="89.20" y="290.29" font-family="'DejaVu Sans', 'Liberation Sans', Arial, sans-serif" font-size="2.2" text-anchor="start" dominant-baseline="middle" font-weight="normal" fill="#000">клинкерная плитка тёмно-серая по ЭППС 50 мм, отлив из окрашенной стали</text>
<rect x="40.00" y="292.82" width="258.00" height="5.06" fill="none" stroke="#000" stroke-width="0.18"/>
<line x1="40.00" y1="292.82" x2="40.00" y2="297.88" stroke="#000" stroke-width="0.18" stroke-linecap="round"/>
<text x="44.00" y="295.35" font-family="'DejaVu Sans', 'Liberation Sans', Arial, sans-serif" font-size="2.2" text-anchor="middle" dominant-baseline="middle" font-weight="normal" fill="#000">5</text>
<line x1="48.00" y1="292.82" x2="48.00" y2="297.88" stroke="#000" stroke-width="0.18" stroke-linecap="round"/>
<text x="49.20" y="295.35" font-family="'DejaVu Sans', 'Liberation Sans', Arial, sans-serif" font-size="2.2" text-anchor="start" dominant-baseline="middle" font-weight="normal" fill="#000">Окна, двери, ворота</text>
<line x1="88.00" y1="292.82" x2="88.00" y2="297.88" stroke="#000" stroke-width="0.18" stroke-linecap="round"/>
<text x="89.20" y="295.35" font-family="'DejaVu Sans', 'Liberation Sans', Arial, sans-serif" font-size="2.2" text-anchor="start" dominant-baseline="middle" font-weight="normal" fill="#000">ПВХ/алюминий ламинация RAL 7016 снаружи, белые внутри; ворота секционные RAL 7016</text>
<rect x="40.00" y="297.88" width="258.00" height="5.06" fill="none" stroke="#000" stroke-width="0.18"/>
<line x1="40.00" y1="297.88" x2="40.00" y2="302.94" stroke="#000" stroke-width="0.18" stroke-linecap="round"/>
<text x="44.00" y="300.41" font-family="'DejaVu Sans', 'Liberation Sans', Arial, sans-serif" font-size="2.2" text-anchor="middle" dominant-baseline="middle" font-weight="normal" fill="#000">6</text>
<line x1="48.00" y1="297.88" x2="48.00" y2="302.94" stroke="#000" stroke-width="0.18" stroke-linecap="round"/>
<text x="49.20" y="300.41" font-family="'DejaVu Sans', 'Liberation Sans', Arial, sans-serif" font-size="2.2" text-anchor="start" dominant-baseline="middle" font-weight="normal" fill="#000">Терраса, крыльцо</text>
<line x1="88.00" y1="297.88" x2="88.00" y2="302.94" stroke="#000" stroke-width="0.18" stroke-linecap="round"/>
<text x="89.20" y="300.41" font-family="'DejaVu Sans', 'Liberation Sans', Arial, sans-serif" font-size="2.2" text-anchor="start" dominant-baseline="middle" font-weight="normal" fill="#000">керамогранит морозостойкий R11 / крупноформатная плитка по бетонному основанию</text>
<rect x="40.00" y="302.94" width="258.00" height="5.06" fill="none" stroke="#000" stroke-width="0.18"/>
<line x1="40.00" y1="302.94" x2="40.00" y2="308.00" stroke="#000" stroke-width="0.18" stroke-linecap="round"/>
<text x="44.00" y="305.47" font-family="'DejaVu Sans', 'Liberation Sans', Arial, sans-serif" font-size="2.2" text-anchor="middle" dominant-baseline="middle" font-weight="normal" fill="#000">7</text>
<line x1="48.00" y1="302.94" x2="48.00" y2="308.00" stroke="#000" stroke-width="0.18" stroke-linecap="round"/>
<text x="49.20" y="305.47" font-family="'DejaVu Sans', 'Liberation Sans', Arial, sans-serif" font-size="2.2" text-anchor="start" dominant-baseline="middle" font-weight="normal" fill="#000">Ограждения</text>
<line x1="88.00" y1="302.94" x2="88.00" y2="308.00" stroke="#000" stroke-width="0.18" stroke-linecap="round"/>
<text x="89.20" y="305.47" font-family="'DejaVu Sans', 'Liberation Sans', Arial, sans-serif" font-size="2.2" text-anchor="start" dominant-baseline="middle" font-weight="normal" fill="#000">французские балконы отсутствуют; ограждение крыльца — сталь, порошковая окраска RAL 7016</text>
<rect x="40.00" y="266.00" width="258.00" height="42.00" fill="none" stroke="#000" stroke-width="0.35"/>
</svg>